<?xml version="1.0" encoding="utf-8"?>
<!-- Generator: Adobe Illustrator 24.0.2, SVG Export Plug-In . SVG Version: 6.00 Build 0)  -->
<svg version="1.1" id="Layer_1" xmlns="http://www.w3.org/2000/svg" xmlns:xlink="http://www.w3.org/1999/xlink" x="0px" y="0px"
	 viewBox="0 0 167 45" style="enable-background:new 0 0 167 45;" xml:space="preserve">
<g transform="translate(-3 -20)">
	<path style="fill:#F79392;" d="M162.6,48.3c1.9,0.9,2.8,2.8,2.1,4.3l-1.7,3.6c-0.7,1.5-2.8,2-4.7,1.1l-2.3-1.1l4.2-9.1L162.6,48.3z
		"/>
	<path style="fill:#FACB1B;" d="M152.7,54.8l4.2-9.1l3.4,1.6l-4.2,9.1L152.7,54.8z"/>
	<path style="fill:#FBE158;" d="M153.8,55.3l2.1-4.5l2.3,1.1l-2.1,4.5L153.8,55.3z"/>
	<path style="fill:#0484AB;" d="M158.1,46.2l-4.2,9.1L121,40l-10.8-5l-13.7-6.4l6.5,0.6l-3.5-4.7l6.3,0.6l0.1-0.1l-3.4-4.6l11.9,5.5
		l10.8,5L158.1,46.2z"/>
	<path style="fill:#21B2D1;" d="M155.9,50.8l-2.1,4.5L121,40l-10.8-5l-13.7-6.4l6.5,0.6l-3.5-4.7l12.4,5.8l11.1,5.2L155.9,50.8z"/>
	<path style="fill:#F7B4B4;" d="M156.1,56.3l2.3,1.1c1.9,0.9,4,0.4,4.7-1.1l0.9-1.8l-5.7-2.6L156.1,56.3z"/>
	<path style="fill:#F4D0A1;" d="M22,46.7L8.9,58l17.4-2.5l8.2-3.7l-4.2-8.8L22,46.7z"/>
	<path style="fill:#EDBC7C;" d="M32.2,47.5L30.1,43l-8,3.6L8.9,58L32.2,47.5z"/>
	<path style="fill:#3E3E3F;" d="M8.8,58l6.5-0.9c0.3-1,0.4-1.4,0.1-2c-0.3-0.6-0.6-0.8-1.6-1.3L8.8,58z"/>
	<path style="fill:#0484AB;" d="M21.9,46.7c-0.1,0.1-0.1,0.2,0,0.2c1.2-0.2,2.3,0.3,2.8,1.2c0.5,1,0,2.3-1.1,3.1
		c-0.1,0.1,0,0.2,0.1,0.2c1.3-0.3,2.6,0.2,3.1,1.2c0.5,0.9,0.1,2-0.8,2.8c-0.1,0.1,0,0.2,0.1,0.1l39-17.7l13.8-6.3l4.6-4.5l-5.8-0.3
		l4.6-4.5L76.5,22l-11,5L21.9,46.7L21.9,46.7z"/>
	<path style="fill:#21B2D1;" d="M23.6,51.3C23.6,51.3,23.6,51.4,23.6,51.3c1.4-0.2,2.7,0.2,3.1,1.3c0.4,0.9,0.1,2-0.8,2.8
		c-0.1,0.1,0,0.2,0.1,0.1l39-17.7l13.8-6.3l4.6-4.5l-5.8-0.3l-10.1,4.6L23.6,51.3z"/>
	<g>
		<ellipse style="fill-opacity:0.2;" cx="15.5" cy="64" rx="12.5" ry="1"/>
		<ellipse style="fill-opacity:0.2;" cx="157.5" cy="64" rx="12.5" ry="1"/>
	</g>
</g>
</svg>
