<?xml version="1.0" encoding="utf-8"?>
<!-- Generator: Adobe Illustrator 24.0.2, SVG Export Plug-In . SVG Version: 6.00 Build 0)  -->
<svg version="1.1" id="Layer_1" xmlns="http://www.w3.org/2000/svg" xmlns:xlink="http://www.w3.org/1999/xlink" x="0px" y="0px"
	 viewBox="0 0 1345.4 1086.6" style="enable-background:new 0 0 1345.4 1086.6;" xml:space="preserve">
<path style="fill:#FDA947;" d="M81,473.3h19.8v22.8H81V473.3z"/>
<path style="opacity:0.1;fill:#201E1D;enable-background:new    ;" d="M259.6,74.2h936.9c21.9,0,39.6,17.7,39.6,39.6v451.3
	c0,21.9-17.7,39.6-39.6,39.6H259.6c-21.9,0-39.6-17.7-39.6-39.6V113.8C220,91.9,237.8,74.2,259.6,74.2z"/>
<path style="fill:#F2F2F2;" d="M250.7,76.4h915.2c27.7,0,50.1,22.4,50.1,50.1v409.6c0,27.7-22.4,50.1-50.1,50.1H250.7
	c-27.7,0-50.1-22.4-50.1-50.1V126.5C200.6,98.9,223,76.4,250.7,76.4z"/>
<path style="fill:#DB7F00;" d="M523.8,586.7h-76.4c-3,0-5.4-2.4-5.4-5.4v-4.1c0-3,2.4-5.4,5.4-5.4h76.4l9,4.3c1.8,0.8,2.5,3,1.7,4.7
	c-0.4,0.7-1,1.3-1.7,1.7L523.8,586.7z"/>
<path style="fill:#FEC600;" d="M642.8,584.2h-76.3c-3,0-5.4-2.4-5.4-5.4v-4.1c0-3,2.4-5.4,5.4-5.4h76.3l9,4.3c1.8,0.8,2.5,3,1.7,4.7
	c-0.4,0.7-1,1.3-1.7,1.7L642.8,584.2z"/>
<path style="opacity:0.1;fill:#201E1D;enable-background:new    ;" d="M341.1,577.7h790c9.8,0,17.8,8,17.8,17.8v9.9
	c0,9.8-8,17.8-17.8,17.8h-790c-9.8,0-17.8-8-17.8-17.8v-9.9C323.3,585.6,331.3,577.7,341.1,577.7z"/>
<path style="fill:#FFFFFF;" d="M347.6,584.6h772c7.5,0,13.5,6,13.5,13.5l0,0c0,7.5-6,13.5-13.5,13.5h-772c-7.5,0-13.5-6-13.5-13.5
	l0,0C334.1,590.7,340.1,584.6,347.6,584.6z"/>
<path style="fill:#F9BC3D;" d="M711.1,692.1h143.7c6.5,0,11.8,5.3,11.8,11.8v65.6c0,6.5-5.3,11.8-11.8,11.8H711.1
	c-6.5,0-11.8-5.3-11.8-11.8V704C699.3,697.4,704.6,692.1,711.1,692.1z"/>
<path style="fill:#EC9134;" d="M509.3,749.2h522.6v224.9H509.3V749.2z"/>
<path style="opacity:0.1;fill:#201E1D;enable-background:new    ;" d="M510.3,746.2h522.6v17.6H510.3L510.3,746.2z"/>
<path style="fill:#FDA947;" d="M514.9,721.8H1017c15.2,0,27.6,12.4,27.6,27.6l0,0H487.3l0,0C487.3,734.1,499.7,721.8,514.9,721.8
	L514.9,721.8z"/>
<path style="fill:#ED973E;" d="M953.9,676.7v45H817.4c-2.6,0-4.6-2.1-4.6-4.6v-35.8c0-2.6,2.1-4.6,4.6-4.6L953.9,676.7L953.9,676.7z
	"/>
<path style="fill:#F2B271;" d="M880.7,688.2v22.2h-43.3v-22.2H880.7z"/>
<path style="opacity:0.6;fill:#E87601;enable-background:new    ;" d="M812.8,717.5v-17.3h141.1v21.7H817.7
	C815.2,721.9,813,720,812.8,717.5L812.8,717.5z"/>
<path style="fill:#DB7F00;" d="M593.7,709.2l-9-75.8c-0.3-3,1.8-5.6,4.7-6l4.1-0.5c3-0.3,5.6,1.8,6,4.7l9,75.8l-3.3,9.4
	c-0.6,1.9-2.7,2.9-4.5,2.2c-0.8-0.3-1.4-0.8-1.9-1.5L593.7,709.2z"/>
<path style="fill:#FEC600;" d="M578.3,704.7l34.5-68.1c1.4-2.7,4.6-3.7,7.3-2.4l3.7,1.9c2.7,1.4,3.7,4.6,2.4,7.3l-34.5,68.1l-7.9,6
	c-1.6,1.2-3.8,0.9-5-0.7c-0.5-0.7-0.8-1.5-0.7-2.3L578.3,704.7z"/>
<path style="fill:#FFFFFF;" d="M574.8,666.6h37.4c2.9,0,5.3,2.4,5.3,5.3l0,0v49.3l0,0h-47.9l0,0v-49.3
	C569.5,668.9,571.9,666.5,574.8,666.6L574.8,666.6L574.8,666.6z"/>
<path style="opacity:0.1;fill:#201E1D;enable-background:new    ;" d="M591.9,671.2h21.5v49.9h-21.5V671.2z"/>
<path style="fill:#FFFFFF;" d="M569.4,681c-7.1,0-12.8,5.7-12.8,12.8s5.7,12.8,12.8,12.8s12.8-5.7,12.8-12.8l0,0
	C582.2,686.7,576.4,681,569.4,681z M569.4,700.7c-3.8,0-6.9-3.1-6.9-6.9c0-3.8,3.1-6.9,6.9-6.9c3.8,0,6.9,3.1,6.9,6.9l0,0
	C576.3,697.6,573.2,700.7,569.4,700.7C569.4,700.7,569.4,700.7,569.4,700.7L569.4,700.7z"/>
<path style="opacity:0.14;fill:#201E1D;enable-background:new    ;" d="M457.4,117.1h511.1c22.8,0,41.3,18.5,41.3,41.3V487
	c0,22.8-18.5,41.3-41.3,41.3H457.4c-22.8,0-41.3-18.5-41.3-41.3V158.4C416.1,135.6,434.6,117.1,457.4,117.1z"/>
<path style="fill:#FFFFFF;" d="M463.2,125.7h493c21.4,0,38.8,17.4,38.8,38.8v302.5c0,21.4-17.4,38.8-38.8,38.8h-493
	c-21.4,0-38.8-17.4-38.8-38.8V164.5C424.4,143.1,441.8,125.7,463.2,125.7z"/>
<path style="fill:#C21D47;" d="M994.9,176.3v-11.8c0-21.4-17.4-38.8-38.8-38.8l0,0H463.2c-21.4,0-38.8,17.4-38.8,38.8v11.8H994.9z"
	/>
<path style="opacity:0.15;fill:#201E1D;enable-background:new    ;" d="M995.1,191.9l-570.9-0.9v-29l570.9,0.9V191.9L995.1,191.9z"
	/>
<path style="opacity:0.28;fill:#FFFFFF;enable-background:new    ;" d="M723.7,265.5c-46.9,0-84.9,38-84.9,84.9s38,84.9,84.9,84.9
	l0,0"/>
<path style="fill:#FEF0E1;" d="M449.9,255.6h113.6v219.6H449.9V255.6z"/>
<g>
	<path style="fill:#FFFFFF;" d="M474.6,280.4H528c5,0,9.1,4.1,9.1,9.1v0c0,5-4.1,9.1-9.1,9.1h-53.4c-5,0-9.1-4.1-9.1-9.1v0
		C465.5,284.5,469.6,280.4,474.6,280.4z"/>
	<path style="fill:#FFFFFF;" d="M474.6,318.2H528c5,0,9.1,4.1,9.1,9.1v0c0,5-4.1,9.1-9.1,9.1h-53.4c-5,0-9.1-4.1-9.1-9.1v0
		C465.5,322.2,469.6,318.2,474.6,318.2z"/>
	<path style="fill:#FFFFFF;" d="M474.6,355.9H528c5,0,9.1,4.1,9.1,9.1v0c0,5-4.1,9.1-9.1,9.1h-53.4c-5,0-9.1-4.1-9.1-9.1v0
		C465.5,360,469.6,355.9,474.6,355.9z"/>
	<path style="fill:#FFFFFF;" d="M474.6,393.6H528c5,0,9.1,4.1,9.1,9.1v0c0,5-4.1,9.1-9.1,9.1h-53.4c-5,0-9.1-4.1-9.1-9.1v0
		C465.5,397.7,469.6,393.6,474.6,393.6z"/>
	<path style="fill:#FFFFFF;" d="M474.6,431.4H528c5,0,9.1,4.1,9.1,9.1v0c0,5-4.1,9.1-9.1,9.1h-53.4c-5,0-9.1-4.1-9.1-9.1v0
		C465.5,435.4,469.6,431.4,474.6,431.4z"/>
</g>
<g>
	<path style="fill:#FCE0C2;" d="M600.7,216.5c-11.7,0-21.1,9.5-21.1,21.1s9.5,21.1,21.1,21.1c11.7,0,21.1-9.5,21.1-21.1
		S612.4,216.5,600.7,216.5L600.7,216.5z M600.7,252.8c-8.4,0-15.1-6.8-15.1-15.2s6.8-15.1,15.2-15.1c8.4,0,15.1,6.8,15.1,15.2
		S609.1,252.8,600.7,252.8L600.7,252.8z"/>
	<path style="fill:#FCE0C2;" d="M600.7,230.2L600.7,230.2c2.2,0,3.9,1.8,3.9,3.9v8.3c0,2.2-1.8,3.9-3.9,3.9l0,0
		c-2.2,0-3.9-1.8-3.9-3.9v-8.3C596.8,232,598.5,230.2,600.7,230.2z"/>
	<path style="fill:#FCE0C2;" d="M600.7,444.7c-11.7,0-21.1,9.5-21.1,21.1s9.5,21.1,21.1,21.1c11.7,0,21.1-9.5,21.1-21.1
		S612.4,444.7,600.7,444.7L600.7,444.7z M600.7,481c-8.4,0-15.1-6.8-15.1-15.2s6.8-15.1,15.2-15.1c8.4,0,15.1,6.8,15.1,15.1
		C615.9,474.2,609.1,481,600.7,481C600.8,481,600.7,481,600.7,481L600.7,481z"/>
	<path style="fill:#FCE0C2;" d="M600.7,458.4L600.7,458.4c2.2,0,3.9,1.8,3.9,3.9v8.3c0,2.2-1.8,3.9-3.9,3.9l0,0
		c-2.2,0-3.9-1.8-3.9-3.9v-8.3C596.8,460.1,598.5,458.4,600.7,458.4z"/>
	<path style="fill:#FCE0C2;" d="M873.5,226.8h83.8c5,0,9.1,4.1,9.1,9.1v0c0,5-4.1,9.1-9.1,9.1h-83.8c-5,0-9.1-4.1-9.1-9.1v0
		C864.4,230.9,868.5,226.8,873.5,226.8z"/>
	<path style="fill:#FCE0C2;" d="M873.5,254.3h57.3c5,0,9.1,4.1,9.1,9.1v0c0,5-4.1,9.1-9.1,9.1h-57.3c-5,0-9.1-4.1-9.1-9.1v0
		C864.4,258.4,868.5,254.3,873.5,254.3z"/>
	<path style="fill:#FCE0C2;" d="M836.2,218c-11.7,0-21.1,9.5-21.1,21.1s9.5,21.1,21.1,21.1c11.7,0,21.1-9.5,21.1-21.1
		S847.8,218,836.2,218L836.2,218z M836.2,254.3c-8.4,0-15.1-6.8-15.1-15.2s6.8-15.1,15.2-15.1c8.4,0,15.1,6.8,15.1,15.2
		C851.3,247.5,844.6,254.3,836.2,254.3C836.2,254.3,836.2,254.3,836.2,254.3L836.2,254.3z"/>
	<path style="fill:#FCE0C2;" d="M836.1,231.7L836.1,231.7c2.2,0,3.9,1.8,3.9,3.9v8.3c0,2.2-1.8,3.9-3.9,3.9l0,0
		c-2.2,0-3.9-1.8-3.9-3.9v-8.3C832.2,233.5,834,231.7,836.1,231.7z"/>
</g>
<path style="fill:#FEF0E1;" d="M839.9,336.6h142.5v144H839.9V336.6z"/>
<path style="fill:#F8AE5F;" d="M861,405.1h24.5v47.8H861V405.1z"/>
<path style="fill:#FBD1A4;" d="M898.4,352.5h24.5v100.4h-24.5V352.5z"/>
<path style="fill:#F9BC7C;" d="M935.8,388.7h24.5v64.3h-24.5V388.7z"/>
<path style="fill:#F69F41;" d="M845.3,460.5h131.9v8.8H845.3V460.5z"/>
<path style="fill:#C21D47;" d="M450.2,218h113.2v39.7H450.2V218z"/>
<path style="fill:#FFFFFF;" d="M465.5,244.1v-0.7l0,0c0-0.2,0-0.3,0.1-0.5c0.1-0.5,0.3-1,0.5-1.4c0.3-0.6,0.8-1.1,1.3-1.5
	c0.5-0.4,1-0.7,1.6-0.9c0.4-0.1,0.7-0.2,1.1-0.3c0.3,0,0.6-0.1,0.9-0.1c0.4,0,0.8,0,1.1,0.1c0.2,0,0.4,0.1,0.7,0.1l0.7,0.1v-0.5
	c0-0.1,0-0.3,0-0.4c0-0.3,0.1-0.5,0.2-0.8c0.1-0.5,0.4-1,0.6-1.5c0.3-0.5,0.6-0.9,1-1.2c0.3-0.2,0.5-0.4,0.8-0.6
	c0.3-0.1,0.6-0.3,0.9-0.4c0.3-0.1,0.7-0.1,1-0.2c0.3,0,0.6,0,0.9,0c0.4,0,0.8,0.1,1.1,0.2l0.9,0.3c0,0,0,0,0-0.1
	c0-0.2,0.1-0.5,0.1-0.7c0.1-0.6,0.3-1.2,0.6-1.8c0.2-0.4,0.5-0.9,0.7-1.3c0.3-0.4,0.6-0.7,0.9-1.1c0.2-0.2,0.5-0.5,0.8-0.7
	c0.3-0.2,0.6-0.4,0.9-0.6c0.4-0.3,0.9-0.6,1.4-0.8l1.3-0.4c0.4-0.1,0.8-0.2,1.3-0.2c0.4,0,0.7-0.1,1.1-0.1c0.2,0,0.4,0,0.6,0
	c0.3,0,0.5,0,0.8,0.1s0.7,0.1,1,0.2c0.6,0.2,1.3,0.5,1.8,0.8c0.5,0.3,1,0.7,1.4,1.1c0.3,0.3,0.6,0.6,0.8,0.9c0.4,0.5,0.7,1,1,1.5
	c0.2,0.3,0.3,0.6,0.4,0.9l0.5,1.5c0.1,0.5,0.2,1.1,0.3,1.6c0,0,0,0.1,0,0.1l-1.3,1.4l-0.7,0.8l-0.7,0.8l-0.6,0.7
	c-0.1,0.1-0.1,0.1-0.1,0.2l-0.2,0.4l-1.7,4.8c0,0,0,0.1-0.1,0.1l-0.5,0.5c-0.4,0.3-0.9,0.6-1.3,0.8c-0.2,0.1-0.5,0.2-0.8,0.2
	c-0.3,0-0.6-0.2-0.9-0.3c-0.3-0.2-0.6-0.4-0.9-0.7l-0.6-0.6l-0.9-1c-0.1-0.2-0.3-0.3-0.5-0.4c-0.2-0.2-0.5-0.4-0.8-0.6
	c-0.5-0.3-1-0.4-1.6-0.3c-0.3,0-0.5,0.1-0.8,0.2c-0.4,0.2-0.7,0.4-1,0.6l-0.9,0.9l-0.9,0.9l-0.7,0.6c-0.3,0.2-0.6,0.4-0.9,0.5
	c-0.3,0.1-0.7,0.1-1.1,0c-0.3-0.1-0.6-0.3-0.8-0.5l-0.7-0.7l-0.8-0.8c-0.2-0.2-0.5-0.4-0.8-0.5c-0.3-0.1-0.7-0.2-1-0.2
	c-0.4,0.1-0.7,0.2-1,0.4c-0.4,0.2-0.7,0.5-1,0.8l-0.9,0.9c-0.1,0.1-0.1,0.3,0,0.4c0,0,0,0,0,0c0.1,0.1,0.3,0.1,0.4,0c0,0,0,0,0,0
	l0.1-0.1l1-0.9c0.3-0.3,0.6-0.5,1-0.7c0.3-0.2,0.7-0.2,1,0c0.3,0.1,0.6,0.4,0.8,0.6l1.2,1.2c0.2,0.2,0.5,0.4,0.8,0.6
	c0.3,0.2,0.5,0.3,0.8,0.3c0.2,0,0.4,0,0.7,0c0.4-0.1,0.7-0.2,1-0.4c0.3-0.2,0.5-0.3,0.7-0.5l0.7-0.7l0.8-0.9c0.3-0.4,0.7-0.7,1-1
	c0.3-0.3,0.7-0.4,1.1-0.5c0.3,0,0.6,0,0.9,0.2c0.4,0.2,0.8,0.5,1.1,0.8l0.6,0.6l0.9,1c0.2,0.2,0.4,0.4,0.6,0.6
	c0.2,0.2,0.4,0.3,0.6,0.4c0.3,0.2,0.7,0.3,1.1,0.4c0.2,0,0.4,0,0.6,0c0.4-0.1,0.7-0.2,1-0.4c0.5-0.3,1-0.6,1.4-1
	c0.1-0.1,0.1-0.1,0.2-0.2l1.5-0.7l1.5-0.7l0.8-0.4l1.5-0.7c0.1,0,0.1-0.1,0.2-0.2l2.1-2.4l0.6-0.7l0.2-0.3l0.3-0.3l0.3,0.8
	c0.2,0.4,0.3,0.8,0.4,1.2c0.1,0.3,0.1,0.7,0.1,1c0,0,0,0.1,0,0.1v0.8c0,0.3-0.1,0.7-0.1,1c-0.1,0.6-0.3,1.1-0.5,1.6l-0.4,0.8
	c-0.2,0.4-0.5,0.8-0.8,1.1c-0.8,0.9-1.8,1.5-2.9,1.9c-0.4,0.2-0.9,0.3-1.4,0.3c-0.3,0-0.7,0.1-1,0.1h-25.6c-0.3,0-0.7-0.1-1-0.1
	c-0.5-0.1-1-0.2-1.4-0.5c-0.4-0.2-0.7-0.4-1.1-0.7c-0.3-0.3-0.7-0.6-0.9-1c-0.3-0.4-0.5-0.8-0.7-1.3c-0.2-0.4-0.2-0.8-0.3-1.2
	C465.6,244.3,465.5,244.2,465.5,244.1L465.5,244.1z M498.8,241.7l-2,0.9l-0.3-0.3l-0.8-0.7l-0.2-0.2c0,0,0-0.1,0-0.1l0.5-1.4
	l0.2-0.6c0.2,0,0.3,0,0.5-0.1c0.1-0.1,0.2-0.2,0.3-0.3l0.2-0.2l0.6-0.6l2-2.3c0,0,0,0,0.1,0l0.3,0.1l-0.2,0.2l-0.4,0.4l-0.8,0.9
	l-0.5,0.5l-0.8,0.9c-0.1,0.1-0.2,0.3-0.3,0.4c-0.1,0.2-0.1,0.4-0.1,0.7c0.1,0.5,0.4,0.8,0.9,0.9c0.2,0,0.3,0,0.5-0.1
	c0.2-0.1,0.4-0.2,0.5-0.4l0.2-0.2l0.6-0.6l0.6-0.7l0.5-0.5l0.6-0.7l0.3-0.3l0.2,0.3l0,0l-0.2,0.3l-0.8,0.9l-0.5,0.6l-1.3,1.4
	c-0.1,0.1-0.2,0.2-0.2,0.3C498.8,241.2,498.7,241.4,498.8,241.7L498.8,241.7z"/>
<linearGradient id="SVGID_1_" gradientUnits="userSpaceOnUse" x1="620.12" y1="810.4253" x2="815.57" y2="810.4253" gradientTransform="matrix(1 0 0 -1 0 1086)">
	<stop  offset="0.13" style="stop-color:#C32045"/>
	<stop  offset="0.81" style="stop-color:#FBB800"/>
</linearGradient>
<path style="fill:url(#SVGID_1_);" d="M803.3,291.3c-0.1-1.5-0.3-3-0.6-4.5c-0.4-1.8-0.9-3.6-1.6-5.3l-1.5-3.2l-1.3,1.4l-1,1.2
	l-2.8,3l-3.1,3.4l-3,3.3l-3.1,3.4c-0.2,0.3-0.5,0.5-0.8,0.7l-6.6,3.1l-3.5,1.6l-13,6.1c-0.3,0.2-0.6,0.5-0.9,0.8
	c-1.9,1.7-3.9,3.1-6.1,4.4c-1.3,0.9-2.8,1.5-4.4,1.8c-0.9,0.1-1.8,0.1-2.7,0.1c-1.6-0.1-3.2-0.7-4.6-1.6c-0.9-0.5-1.8-1.1-2.6-1.8
	c-1-0.8-1.9-1.6-2.7-2.5l-3.8-4.1l-2.6-2.7c-1.4-1.4-3.1-2.6-4.9-3.5c-1.2-0.6-2.6-0.9-4-0.8c-1.8,0.2-3.5,0.9-4.9,2
	c-1.6,1.2-3.1,2.6-4.5,4.1l-3.6,3.9l-2.9,2.9c-0.9,0.9-1.9,1.6-3,2.3c-1.3,0.8-2.7,1.4-4.2,1.6c-0.9,0.1-1.9,0.2-2.8,0.1
	c-1.3-0.1-2.5-0.6-3.6-1.3c-1.2-0.7-2.3-1.6-3.3-2.6l-2.7-2.7l-2.5-2.6c-1-1.1-2.3-1.9-3.6-2.6c-1.4-0.6-3-0.5-4.4,0.2
	c-1.6,0.7-3,1.7-4.4,2.9l-4.3,4.1c-0.2,0.2-0.3,0.4-0.5,0.5c-0.5,0.5-1.3,0.5-1.8,0c0,0,0,0,0,0c-0.5-0.4-0.6-1.1-0.2-1.7
	c0,0,0-0.1,0.1-0.1l4-4c1.3-1.2,2.6-2.3,4.1-3.2c1.3-0.9,2.8-1.5,4.3-1.8c1.5-0.2,3,0,4.4,0.7c1.3,0.5,2.4,1.3,3.4,2.3l3.6,3.6
	l3,3.1c1,1,2.1,1.7,3.3,2.3c1.5,0.6,3.1,0.6,4.6,0c1.4-0.5,2.7-1.2,3.8-2.2l3-2.8l3.7-4l3.8-3.7c1.2-1.1,2.6-2.1,4.1-2.8
	c1-0.5,2.1-0.8,3.2-1c2.4-0.3,4.8,0.1,6.9,1.3c1.2,0.7,2.3,1.5,3.4,2.4l2.1,2l3.9,4.2l2.5,2.6c1.2,1.2,2.5,2.2,3.9,3.1
	c1.2,0.7,2.5,1.2,3.9,1.4c1.2,0.1,2.3-0.2,3.3-0.7c2.1-0.9,4-2.1,5.8-3.5c0.8-0.6,1.6-1.3,2.4-2c0.1-0.1,0.2-0.3,0.3-0.5l1.9-5.4
	l3.2-9.1l2.2-6.1l0.7-1.8c0.2-0.3,0.4-0.7,0.7-0.9l2.7-3l3.1-3.4l3-3.3l3-3.3c0.9-1,1.7-2,2.6-2.9c0.1-0.1,0.1-0.2,0.1-0.3l-1.4-6.8
	c-0.6-2.3-1.3-4.2-2.1-6.3c-0.5-1.4-1.1-2.7-1.8-4c-1.2-2.3-2.6-4.5-4.2-6.5c-1.1-1.4-2.3-2.8-3.6-4c-1.8-1.7-3.8-3.2-6-4.5
	c-2.4-1.5-5.1-2.6-7.8-3.4c-1.5-0.4-3-0.7-4.5-1c-1.1-0.2-2.3-0.3-3.5-0.4c-0.9-0.1-1.9-0.2-2.8-0.1l-4.6,0.3
	c-1.8,0.1-3.6,0.5-5.4,1l-5.8,1.9c-2.2,0.8-4.2,1.9-6.2,3.2c-1.3,0.8-2.5,1.7-3.7,2.7c-1.1,0.9-2.2,1.9-3.3,2.9
	c-1.4,1.4-2.7,3-3.9,4.6c-1.2,1.7-2.2,3.5-3.1,5.4c-1.2,2.4-2.1,5-2.7,7.7l-0.6,3c0,0.1-0.1,0.2-0.1,0.2l-3.9-1.5
	c-1.5-0.5-3.1-0.9-4.8-1c-1.3-0.1-2.7-0.2-4-0.1c-1.5,0.1-2.9,0.4-4.3,0.7c-1.3,0.4-2.6,0.9-3.8,1.5c-1.3,0.6-2.5,1.4-3.6,2.4
	c-1.8,1.5-3.3,3.2-4.5,5.2c-1.3,2-2.2,4.2-2.8,6.5l-0.7,3.4c-0.1,0.6-0.1,1.3-0.2,1.9c0,0.8-0.1,1.5-0.1,2.3l-2.9-0.5l-2.8-0.4
	l-4.8-0.2c-1.3,0-2.7,0.2-4,0.4c-1.6,0.2-3.3,0.6-4.8,1.2c-2.5,0.9-4.8,2.1-6.8,3.7c-2.3,1.8-4.1,4.1-5.5,6.6c-1,1.9-1.7,3.9-2.1,6
	c-0.1,0.7-0.2,1.5-0.3,2.2c0,0.1,0,0.1-0.1,0.2v3l0.2,1.1c0.2,1.8,0.6,3.6,1.3,5.3c0.8,2,1.8,3.8,3,5.6c1.2,1.6,2.5,3.1,4,4.4
	c1.4,1.2,2.9,2.3,4.6,3.1c1.9,1,4,1.6,6.1,2c1.5,0.2,3,0.4,4.5,0.6l3.7,0.2h6.7c33.2,0,66.4,0,99.7-0.1c1.4-0.1,2.8-0.2,4.2-0.4
	c2-0.3,3.9-0.7,5.8-1.4c4.7-1.8,8.8-4.6,12.2-8.3c1.4-1.5,2.6-3,3.6-4.8l1.8-3.3c1.1-2.2,1.9-4.6,2.3-7c0.3-1.5,0.5-3,0.6-4.5
	c0,0,0-0.1,0.1-0.2v-3.3C803.3,291.5,803.3,291.4,803.3,291.3L803.3,291.3z"/>
<linearGradient id="SVGID_2_" gradientUnits="userSpaceOnUse" x1="620.12" y1="803.838" x2="815.57" y2="803.838" gradientTransform="matrix(1 0 0 -1 0 1086)">
	<stop  offset="0.13" style="stop-color:#C32045"/>
	<stop  offset="0.81" style="stop-color:#FBB800"/>
</linearGradient>
<path style="fill:url(#SVGID_2_);" d="M779.5,273.3l-3,3.4l-2.9,3.1l-0.9,1.1c-0.4,0.5-0.9,0.9-1.4,1.4c-0.7,0.4-1.5,0.5-2.3,0.3
	l-1.1,3.2l-2.4,6.8c0,0.1,0,0.3,0.1,0.4c0.3,0.3,0.6,0.5,0.8,0.8l5.5,4.9l9.8-4.6c-0.4-0.9-0.2-2,0.3-2.8c0.3-0.5,0.7-0.9,1.1-1.3
	l2.7-3l3.5-3.9l2.7-3l3.9-4.3c0.4-0.4,0.8-0.9,1.1-1.3c0-0.1,0-0.2,0-0.2l-1-1.3l-1.2,1.4l-3,3.3l-2.3,2.5l-3.1,3.4l-2.9,3.1l-1,1.1
	c-0.6,0.8-1.4,1.4-2.3,1.8c-0.8,0.3-1.6,0.4-2.5,0.4c-1.1-0.1-2.1-0.5-2.9-1.2c-0.8-0.8-1.4-1.8-1.5-2.9c-0.2-1.1-0.1-2.2,0.4-3.2
	c0.4-0.7,0.9-1.4,1.5-2l3.9-4.3l2.2-2.3l3.8-4.2l2-2.1l1-1.2l-1.4-0.8c-0.1,0-0.2,0-0.3,0.1l-0.8,0.8l-3,3.4L779.5,273.3z"/>
<linearGradient id="SVGID_3_" gradientUnits="userSpaceOnUse" x1="648.36" y1="729.9729" x2="792.19" y2="729.9729" gradientTransform="matrix(1 0 0 -1 0 1086)">
	<stop  offset="0.31" style="stop-color:#C21D47"/>
	<stop  offset="0.71" style="stop-color:#FBB800"/>
</linearGradient>
<path style="fill:url(#SVGID_3_);" d="M803.2,343.7c-0.1-0.9-0.8-1.5-1.7-1.4c-0.9,0.1-1.5,0.8-1.5,1.7l0,0c0,1.7,0,3.4,0,5.1v0.4
	l-2.5-0.2c-1.2-0.2-2.5-0.1-3.7,0.2c-1.8,0.4-3.4,1.6-4.2,3.3c-0.7,1.4-1.1,2.9-1.1,4.4c-0.1,1.8-0.1,3.7,0.1,5.5
	c0.2,1.7,0.8,3.3,1.8,4.6c0.9,1.1,2.1,1.9,3.5,2.1l1.2,0.2h2.3l1.2-0.2l3.5-0.6c0.6-0.1,1.1-0.7,1-1.3
	C803.2,359.8,803.2,351.7,803.2,343.7L803.2,343.7z M800,366.5l-2.1,0.3c-0.7,0.1-1.4,0.1-2.1,0.1c-0.8,0-1.6-0.2-2.4-0.6
	c-0.8-0.6-1.3-1.4-1.5-2.4c-0.2-0.8-0.3-1.7-0.3-2.6c-0.1-1-0.1-1.9-0.1-2.9c0-1.3,0.2-2.5,0.5-3.7c0.4-1.3,1.6-2.2,3-2.3
	c1.6-0.1,3.3,0,4.9,0.2L800,366.5z"/>
<linearGradient id="SVGID_4_" gradientUnits="userSpaceOnUse" x1="648.36" y1="730.03" x2="792.19" y2="730.03" gradientTransform="matrix(1 0 0 -1 0 1086)">
	<stop  offset="0.31" style="stop-color:#C21D47"/>
	<stop  offset="0.71" style="stop-color:#FBB800"/>
</linearGradient>
<path style="fill:url(#SVGID_4_);" d="M652.5,356.8l-6-3.9c-1.1-0.6-2-1.3-2.9-2.2c-0.8-0.8-1.2-2.1-0.9-3.2
	c0.2-0.9,0.9-1.6,1.8-1.8c1.1-0.4,2.3-0.5,3.5-0.5l2.8,0.1l2.8,0.1c0.6,0,1.1-0.5,1.2-1.1c0.2-0.6-0.1-1.3-0.7-1.7
	c-0.4-0.2-0.9-0.3-1.4-0.3l-4-0.3c-0.9,0-1.7,0.1-2.6,0.1c-1.4,0.1-2.8,0.5-4,1.2c-1.2,0.6-2.1,1.7-2.5,2.9
	c-0.2,0.8-0.3,1.6-0.3,2.5c0,0.8,0.2,1.6,0.5,2.3c0.7,1.3,1.7,2.5,3,3.3l5,3.2c1.3,0.7,2.5,1.6,3.6,2.7c0.2,0.3,0.4,0.6,0.6,0.9
	c0.3,0.9,0.3,1.8,0,2.7c-0.2,0.8-0.7,1.5-1.4,1.9c-0.9,0.5-1.9,0.8-3,0.8c-1.3,0-2.6,0-3.9-0.1c-0.7,0-1.4-0.1-2.2-0.2
	c-0.6-0.2-1.3,0.1-1.7,0.6c-0.4,0.7-0.3,2.1,0.8,2.3s2.3,0.3,3.4,0.4l0.5,0.1h3.1c0.1,0,0.1-0.1,0.2-0.1c1.4,0,2.8-0.4,4-1
	c1.5-0.7,2.7-2.1,3.1-3.8c0.4-1.3,0.5-2.7,0.2-4.1C654.9,359.2,653.9,357.8,652.5,356.8L652.5,356.8z"/>
<linearGradient id="SVGID_5_" gradientUnits="userSpaceOnUse" x1="648.36" y1="729.9275" x2="792.19" y2="729.9275" gradientTransform="matrix(1 0 0 -1 0 1086)">
	<stop  offset="0.31" style="stop-color:#C21D47"/>
	<stop  offset="0.71" style="stop-color:#FBB800"/>
</linearGradient>
<path style="fill:url(#SVGID_5_);" d="M687.1,353.5c-0.3-0.9-0.8-1.7-1.5-2.4c-1.3-1.1-2.9-1.8-4.6-1.8c-1.5-0.1-3.1,0.1-4.6,0.4
	V344c0.1-0.8-0.4-1.5-1.1-1.6c-0.1,0-0.1,0-0.2,0c-0.8-0.2-1.6,0.2-1.8,1c0,0.1-0.1,0.3-0.1,0.5c0,8.1,0,16.2,0,24.3
	c-0.1,0.8,0.4,1.5,1.1,1.7h1c0.7-0.3,1.1-1,1-1.8v-14.9c0-0.4,0.1-0.6,0.5-0.6l2.2-0.3c0.5-0.1,1-0.1,1.5-0.1c0.8,0,1.6,0.2,2.3,0.5
	c0.8,0.5,1.3,1.3,1.5,2.1c0.1,0.5,0.2,1,0.2,1.5c0,3.8,0,7.6,0,11.4c-0.1,0.8,0.3,1.6,1,2h1c0.7-0.3,1.1-1,1.1-1.7v-11.6
	C687.5,355.5,687.4,354.4,687.1,353.5L687.1,353.5z"/>
<linearGradient id="SVGID_6_" gradientUnits="userSpaceOnUse" x1="648.36" y1="726.4524" x2="792.19" y2="726.4524" gradientTransform="matrix(1 0 0 -1 0 1086)">
	<stop  offset="0.31" style="stop-color:#C21D47"/>
	<stop  offset="0.71" style="stop-color:#FBB800"/>
</linearGradient>
<path style="fill:url(#SVGID_6_);" d="M768,355.2c-0.3-1.4-0.9-2.8-1.9-3.8c-1.3-1.3-3-2.1-4.8-2.1c-0.9,0-1.8,0-2.7,0.2
	c-1.8,0.3-3.4,1.3-4.5,2.8c-1,1.5-1.5,3.2-1.5,5v3.7c-0.1,1.6,0.2,3.1,0.8,4.5c0.8,2,2.4,3.5,4.5,4c0.5,0.1,1.1,0.2,1.6,0.3h1.9
	c0.1,0,0.2-0.1,0.2-0.1c1-0.1,2-0.3,2.9-0.8c1.2-0.7,2.2-1.7,2.8-3c0.6-1.4,1-2.9,1-4.4V358C768.3,357.1,768.2,356.1,768,355.2
	L768,355.2z M764.5,364.5c-0.5,1.3-1.8,2.2-3.2,2.2c-0.9,0.1-1.8,0.1-2.6-0.2c-1.2-0.3-2.1-1.2-2.4-2.4c-0.4-1-0.6-2.1-0.6-3.2v-3.5
	c0-1.3,0.4-2.6,1.1-3.8c0.6-0.8,1.5-1.4,2.5-1.5c0.9-0.1,1.7-0.1,2.6,0.1c1.2,0.2,2.1,1,2.6,2.1c0.4,0.9,0.6,1.9,0.7,2.9l0.1,3.8
	C765.2,362.3,765,363.5,764.5,364.5L764.5,364.5z"/>
<linearGradient id="SVGID_7_" gradientUnits="userSpaceOnUse" x1="648.36" y1="730.0804" x2="792.19" y2="730.0804" gradientTransform="matrix(1 0 0 -1 0 1086)">
	<stop  offset="0.31" style="stop-color:#C21D47"/>
	<stop  offset="0.71" style="stop-color:#FBB800"/>
</linearGradient>
<path style="fill:url(#SVGID_7_);" d="M731.5,348c0.8-1.7,2.5-2.7,4.3-2.8c1.4-0.1,2.8,0,4.3,0.1h0.2l2.4,0.2c0.2,0,0.4-0.1,0.6-0.1
	c0.5-0.3,0.8-0.9,0.7-1.5c0-0.6-0.4-1.1-1-1.3c-0.4-0.1-0.8-0.1-1.2-0.2l-4.2-0.3c-1.1,0-2.2,0.1-3.3,0.2c-1.4,0.2-2.7,0.8-3.8,1.8
	c-1.2,1.1-2.1,2.5-2.5,4c-0.5,1.6-0.8,3.3-0.8,5l0.1,6.1c0,0.9,0.1,1.7,0.2,2.6c0.2,1.6,0.9,3.2,1.8,4.5c1.1,1.6,2.7,2.7,4.6,3.1
	l1.6,0.3h3.2c0,0,0-0.1,0.1-0.1l3.4-0.3c0.9,0.1,1.7-0.6,1.8-1.5c0-0.1,0-0.3,0-0.4c-0.1-0.7-0.7-1.2-1.4-1.2l-2.5,0.2h-4.8
	c-1.8-0.2-3.3-1.4-4-3.1c-0.6-1.2-0.9-2.5-0.9-3.9l0.1-7.8C730.4,350.5,730.8,349.2,731.5,348L731.5,348z"/>
<linearGradient id="SVGID_8_" gradientUnits="userSpaceOnUse" x1="648.36" y1="726.3883" x2="792.19" y2="726.3883" gradientTransform="matrix(1 0 0 -1 0 1086)">
	<stop  offset="0.31" style="stop-color:#C21D47"/>
	<stop  offset="0.71" style="stop-color:#FBB800"/>
</linearGradient>
<path style="fill:url(#SVGID_8_);" d="M783.6,349.5c-0.6,0.2-1,0.8-1,1.5c0,4.7,0,9.5,0,14.2c0,0.2,0,0.4-0.3,0.5l-2.2,0.7
	c-0.9,0.3-1.9,0.4-2.9,0.3c-0.5,0-0.9-0.2-1.3-0.4c-1.2-0.7-1.8-1.9-1.7-3.2v-11.9c0-0.3,0-0.6-0.2-0.9c-0.3-0.7-1-1.1-1.8-0.9
	c-0.7,0.2-1.2,0.8-1.2,1.6v10.7c0,1.2,0.1,2.4,0.4,3.6c0.4,1.3,1.2,2.5,2.3,3.3c1.1,0.8,2.4,1.2,3.8,1.2c0.1,0,0.2,0,0.3,0.1h0.3
	l0.4-0.1l2.1-0.3c0,0,1.5-0.4,2.2-0.6c0.5,0.8,1.5,1,2.3,0.6c0.6-0.3,0.9-1,0.8-1.6c0-5.5,0-11,0-16.5c0-0.5-0.1-1-0.4-1.4
	C784.9,349.5,784.2,349.3,783.6,349.5L783.6,349.5z"/>
<linearGradient id="SVGID_9_" gradientUnits="userSpaceOnUse" x1="648.36" y1="726.3874" x2="792.19" y2="726.3874" gradientTransform="matrix(1 0 0 -1 0 1086)">
	<stop  offset="0.31" style="stop-color:#C21D47"/>
	<stop  offset="0.71" style="stop-color:#FBB800"/>
</linearGradient>
<path style="fill:url(#SVGID_9_);" d="M705.2,350.2c-0.4-0.8-1.4-1-2.2-0.6c-0.5,0.3-0.8,0.8-0.8,1.4v14c0,0.5-0.1,0.7-0.6,0.9
	c-1.5,0.6-3.1,0.9-4.7,0.9c-0.4,0-0.8-0.1-1.2-0.3c-1.2-0.6-2-1.9-1.9-3.3v-11.6c0-0.3,0-0.5-0.1-0.8c-0.1-0.9-0.9-1.5-1.8-1.3
	c-0.8,0.1-1.4,0.9-1.3,1.7v6.5l0.1,5.7c0.1,0.8,0.2,1.6,0.5,2.3c0.4,1.2,1.2,2.3,2.3,3c1,0.6,2.2,1,3.4,1c0.1,0,0.3,0,0.4,0.1h0.3
	l0.4-0.1l2.1-0.3c0,0,1.3-0.4,2-0.6c0.1,0,0.3,0,0.3,0.1c0.4,0.6,1.2,0.8,1.9,0.6c0.7-0.3,1.1-1,1-1.7c0-5.5,0-11.1,0-16.6
	C705.4,350.9,705.4,350.5,705.2,350.2L705.2,350.2z"/>
<linearGradient id="SVGID_10_" gradientUnits="userSpaceOnUse" x1="648.36" y1="726.4484" x2="792.19" y2="726.4484" gradientTransform="matrix(1 0 0 -1 0 1086)">
	<stop  offset="0.31" style="stop-color:#C21D47"/>
	<stop  offset="0.71" style="stop-color:#FBB800"/>
</linearGradient>
<path style="fill:url(#SVGID_10_);" d="M664.7,352.3c0.9,0,1.8,0,2.6,0.1c0.3,0,0.6,0.1,0.9,0.1c0.5,0.1,1.1,0.1,1.6,0.1
	c0.6-0.1,1.1-0.7,1-1.6c-0.1-0.7-0.6-1.2-1.3-1.3l-3.4-0.3c-1,0-1.9,0-2.9,0.2c-2.1,0.4-3.9,1.8-4.7,3.7c-0.7,1.4-1,2.9-1,4.5
	c-0.1,1.8,0,3.7,0.2,5.5c0.3,2,1.2,3.8,2.7,5.1c0.7,0.6,1.5,1,2.4,1.3l1.5,0.3h2c0,0,0.1-0.1,0.2-0.1l3-0.3c0.7,0,1.3-0.5,1.4-1.2
	c0.2-0.7-0.2-1.5-0.9-1.7c-0.2-0.1-0.3-0.1-0.5-0.1l-2.4,0.2h-2.6c-1.1,0-2-0.6-2.6-1.5c-0.7-1.1-1-2.3-1-3.6v-3.9
	c0-0.7,0.1-1.5,0.2-2.2C661.6,353.3,662.7,352.5,664.7,352.3L664.7,352.3z"/>
<linearGradient id="SVGID_11_" gradientUnits="userSpaceOnUse" x1="648.36" y1="729.9507" x2="792.19" y2="729.9507" gradientTransform="matrix(1 0 0 -1 0 1086)">
	<stop  offset="0.31" style="stop-color:#C21D47"/>
	<stop  offset="0.71" style="stop-color:#FBB800"/>
</linearGradient>
<path style="fill:url(#SVGID_11_);" d="M748.2,342.4c-0.8-0.2-1.6,0.2-1.8,1c0,0.2-0.1,0.3-0.1,0.5c0,8.1,0,16.1,0,24.2
	c-0.1,0.8,0.4,1.5,1,1.8h1c0.7-0.3,1.1-1,1.1-1.7c0-8,0-16.1,0-24.1C749.5,343,749.2,342.6,748.2,342.4L748.2,342.4z"/>
<linearGradient id="SVGID_12_" gradientUnits="userSpaceOnUse" x1="648.36" y1="729.9299" x2="792.19" y2="729.9299" gradientTransform="matrix(1 0 0 -1 0 1086)">
	<stop  offset="0.31" style="stop-color:#C21D47"/>
	<stop  offset="0.71" style="stop-color:#FBB800"/>
</linearGradient>
<path style="fill:url(#SVGID_12_);" d="M709.8,342.5c-0.5,0.3-0.8,0.8-0.8,1.4c0,8.1,0,16.1,0,24.2c-0.1,0.7,0.3,1.4,1,1.7h1
	c0.6-0.2,1-0.8,1-1.4c0-8.2,0-16.4,0-24.7c0-0.4-0.2-0.8-0.5-1.1C710.9,342.3,710.3,342.2,709.8,342.5L709.8,342.5z"/>
<linearGradient id="SVGID_13_" gradientUnits="userSpaceOnUse" x1="648.36" y1="726.8366" x2="792.19" y2="726.8366" gradientTransform="matrix(1 0 0 -1 0 1086)">
	<stop  offset="0.31" style="stop-color:#C21D47"/>
	<stop  offset="0.71" style="stop-color:#FBB800"/>
</linearGradient>
<path style="fill:url(#SVGID_13_);" d="M723.3,357.6c-2.2,0-4.5,0-6.7,0c-0.5,0-1,0.2-1.3,0.6c-0.4,0.5-0.4,1.2-0.1,1.8
	c0.3,0.5,0.9,0.8,1.5,0.8h6.9c0.4,0,0.7-0.2,1-0.4c0.6-0.6,0.6-1.6,0-2.2C724.2,357.8,723.8,357.6,723.3,357.6L723.3,357.6z"/>
<linearGradient id="SVGID_14_" gradientUnits="userSpaceOnUse" x1="1092.7227" y1="383.3742" x2="1183.1427" y2="190.5442" gradientTransform="matrix(1 0 0 -1 0 1086)">
	<stop  offset="0" style="stop-color:#C1E5EF"/>
	<stop  offset="1" style="stop-color:#5591A8"/>
</linearGradient>
<path style="fill:url(#SVGID_14_);" d="M987.3,641.3h224.6c3.2,0,5.8,2.6,5.8,5.8v147.3H987.5c-1,0-6.1-4.9-6.1-5.9V647.2
	C981.4,643.9,984,641.3,987.3,641.3L987.3,641.3z"/>
<linearGradient id="SVGID_15_" gradientUnits="userSpaceOnUse" x1="1252.78" y1="299.815" x2="981.12" y2="299.815" gradientTransform="matrix(1 0 0 -1 0 1086)">
	<stop  offset="0" style="stop-color:#C1E5EF"/>
	<stop  offset="1" style="stop-color:#5591A8"/>
</linearGradient>
<path style="fill:url(#SVGID_15_);" d="M981.1,782.4h271.7v7.6H981.1V782.4z"/>
<path style="fill:#5591A8;" d="M981.1,790h271.7c0,2.4-2,4.4-4.4,4.4l0,0H985.5C983.1,794.4,981.1,792.4,981.1,790L981.1,790z
	 M1167.7,782.4c-0.3,2.2-2.1,3.8-4.3,3.8h-35.9c-2.2,0-4.1-1.6-4.3-3.8H1167.7z"/>
<path style="fill:#FFFFFF;" d="M990.6,649.3h217.9V775H990.6V649.3z"/>
<path style="opacity:0.14;fill:#201E1D;enable-background:new    ;" d="M1022.6,658h141c6.3,0,11.4,5.1,11.4,11.4v90.7
	c0,6.3-5.1,11.4-11.4,11.4h-141c-6.3,0-11.4-5.1-11.4-11.4v-90.7C1011.2,663.1,1016.3,658,1022.6,658z"/>
<path style="fill:#FFFFFF;" d="M1024.1,660.4h136.1c5.9,0,10.7,4.8,10.7,10.7v83.5c0,5.9-4.8,10.7-10.7,10.7h-136.1
	c-5.9,0-10.7-4.8-10.7-10.7v-83.5C1013.4,665.2,1018.2,660.4,1024.1,660.4z"/>
<path style="fill:#C21D47;" d="M1170.9,674.3v-3.3c0-5.9-4.8-10.7-10.7-10.7h-136.1c-5.9,0-10.7,4.8-10.7,10.7l0,0v3.3H1170.9z"/>
<path style="opacity:0.15;fill:#201E1D;enable-background:new    ;" d="M1171,678.7l-157.6-0.2v-8l157.6,0.2V678.7z"/>
<g style="opacity:0.8;">
	<circle style="fill:#F69F41;" cx="1096.2" cy="722.4" r="26"/>
	<circle style="fill:#F8B66E;" cx="1096.2" cy="722.4" r="23.4"/>
	<path style="opacity:0.35;fill:#FFFFFF;enable-background:new    ;" d="M1096.1,745.8V699c-12.9,0.3-23.2,11-23,23.9
		C1073.4,735.5,1083.5,745.6,1096.1,745.8L1096.1,745.8z"/>
	<g>
		<path style="fill:#F69F41;" d="M1097.3,746.8h-2.3v-49.3h2.3L1097.3,746.8z"/>
		<path style="fill:#F69F41;" d="M1071.3,723.5v-2.3h49.3v2.3H1071.3z"/>
		<path style="fill:#F69F41;" d="M1095.9,698c4.1,0,7.8,2.7,10.6,7.5c5.5,10.9,5.5,23.7,0,34.6c-2.8,4.8-6.6,7.5-10.6,7.5
			s-7.8-2.7-10.6-7.5c-5.5-10.9-5.5-23.7,0-34.6C1088.1,700.7,1091.8,698,1095.9,698z M1095.9,745.2c3.2,0,6.3-2.3,8.6-6.3
			c5.1-10.1,5.1-22.1,0-32.3c-2.3-4.1-5.4-6.3-8.6-6.3s-6.3,2.3-8.6,6.3c-5.1,10.1-5.1,22.1,0,32.3
			C1089.7,743,1092.7,745.2,1095.9,745.2L1095.9,745.2z"/>
		<path style="fill:#F69F41;" d="M1074.8,734.8h42.5v2.3h-42.5V734.8z M1074.8,707.4h42.5v2.3h-42.5V707.4z"/>
	</g>
</g>
<path style="fill:#FEF0E1;" d="M1020.5,696.2h31.3v60.6h-31.3V696.2z"/>
<path style="fill:#FCE0C2;" d="M1072.4,687.9h14.8c1.4,0,2.5,1.1,2.5,2.5l0,0c0,1.4-1.1,2.5-2.5,2.5h-14.8c-1.4,0-2.5-1.1-2.5-2.5
	l0,0C1069.9,689,1071,687.9,1072.4,687.9z"/>
<g>
	<path style="fill:#FFFFFF;" d="M1027.3,703.1h14.8c1.4,0,2.5,1.1,2.5,2.5l0,0c0,1.4-1.1,2.5-2.5,2.5h-14.8c-1.4,0-2.5-1.1-2.5-2.5
		l0,0C1024.8,704.2,1025.9,703.1,1027.3,703.1z"/>
	<path style="fill:#FFFFFF;" d="M1027.3,713.5h14.8c1.4,0,2.5,1.1,2.5,2.5l0,0c0,1.4-1.1,2.5-2.5,2.5h-14.8c-1.4,0-2.5-1.1-2.5-2.5
		l0,0C1024.8,714.6,1025.9,713.5,1027.3,713.5z"/>
	<path style="fill:#FFFFFF;" d="M1027.3,723.9h14.8c1.4,0,2.5,1.1,2.5,2.5l0,0c0,1.4-1.1,2.5-2.5,2.5h-14.8c-1.4,0-2.5-1.1-2.5-2.5
		l0,0C1024.8,725,1025.9,723.9,1027.3,723.9z"/>
	<path style="fill:#FFFFFF;" d="M1027.3,734.3h14.8c1.4,0,2.5,1.1,2.5,2.5l0,0c0,1.4-1.1,2.5-2.5,2.5h-14.8c-1.4,0-2.5-1.1-2.5-2.5
		l0,0C1024.8,735.4,1025.9,734.3,1027.3,734.3z"/>
	<path style="fill:#FFFFFF;" d="M1027.3,744.7h14.8c1.4,0,2.5,1.1,2.5,2.5l0,0c0,1.4-1.1,2.5-2.5,2.5h-14.8c-1.4,0-2.5-1.1-2.5-2.5
		l0,0C1024.8,745.9,1025.9,744.7,1027.3,744.7z"/>
</g>
<g>
	<g>
		<path id="a" style="fill:#FCE0C2;" d="M1062.1,685.4c-3.2,0-5.8,2.6-5.8,5.8s2.6,5.8,5.8,5.8c3.2,0,5.8-2.6,5.8-5.8l0,0
			C1067.9,688.1,1065.3,685.4,1062.1,685.4z M1062.1,695.4c-2.3,0-4.2-1.9-4.2-4.2s1.9-4.2,4.2-4.2c2.3,0,4.2,1.9,4.2,4.2
			C1066.3,693.6,1064.4,695.4,1062.1,695.4C1062.1,695.5,1062.1,695.5,1062.1,695.4L1062.1,695.4z"/>
	</g>
	<path style="fill:#FCE0C2;" d="M1062.1,689.2L1062.1,689.2c0.6,0,1.1,0.5,1.1,1.1v2.3c0,0.6-0.5,1.1-1.1,1.1h0
		c-0.6,0-1.1-0.5-1.1-1.1v-2.3C1061,689.7,1061.5,689.2,1062.1,689.2z"/>
	<path style="fill:#FCE0C2;" d="M1072.4,750.8h14.8c1.4,0,2.5,1.1,2.5,2.5l0,0c0,1.4-1.1,2.5-2.5,2.5h-14.8c-1.4,0-2.5-1.1-2.5-2.5
		l0,0C1069.9,752,1071,750.8,1072.4,750.8z"/>
	<g>
		<path id="b" style="fill:#FCE0C2;" d="M1062.1,748.4c-3.2,0-5.8,2.6-5.8,5.8s2.6,5.8,5.8,5.8c3.2,0,5.8-2.6,5.8-5.8l0,0
			C1067.9,751,1065.3,748.4,1062.1,748.4z M1062.1,758.4c-2.3,0-4.2-1.9-4.2-4.2s1.9-4.2,4.2-4.2c2.3,0,4.2,1.9,4.2,4.2
			C1066.3,756.5,1064.4,758.4,1062.1,758.4C1062.1,758.4,1062.1,758.4,1062.1,758.4L1062.1,758.4z"/>
	</g>
	<path style="fill:#FCE0C2;" d="M1062.1,752.2L1062.1,752.2c0.6,0,1.1,0.5,1.1,1.1v2.3c0,0.6-0.5,1.1-1.1,1.1h0
		c-0.6,0-1.1-0.5-1.1-1.1v-2.3C1061,752.7,1061.5,752.2,1062.1,752.2z"/>
	<path style="fill:#FCE0C2;" d="M1137.4,688.3h23.1c1.4,0,2.5,1.1,2.5,2.5l0,0c0,1.4-1.1,2.5-2.5,2.5h-23.1c-1.4,0-2.5-1.1-2.5-2.5
		l0,0C1134.9,689.4,1136,688.3,1137.4,688.3z"/>
	<path style="fill:#FCE0C2;" d="M1137.4,695.9h15.8c1.4,0,2.5,1.1,2.5,2.5l0,0c0,1.4-1.1,2.5-2.5,2.5h-15.8c-1.4,0-2.5-1.1-2.5-2.5
		l0,0C1134.9,697,1136,695.9,1137.4,695.9z"/>
	<g>
		<path id="b_1_" style="fill:#FCE0C2;" d="M1127.1,685.9c-3.2,0-5.8,2.6-5.8,5.8s2.6,5.8,5.8,5.8c3.2,0,5.8-2.6,5.8-5.8l0,0
			C1132.9,688.5,1130.3,685.9,1127.1,685.9z M1127.1,695.9c-2.3,0-4.2-1.9-4.2-4.2s1.9-4.2,4.2-4.2c2.3,0,4.2,1.9,4.2,4.2
			C1131.3,694,1129.4,695.9,1127.1,695.9C1127.1,695.9,1127.1,695.9,1127.1,695.9L1127.1,695.9z"/>
	</g>
	<path style="fill:#FCE0C2;" d="M1127.1,689.6L1127.1,689.6c0.6,0,1.1,0.5,1.1,1.1v2.3c0,0.6-0.5,1.1-1.1,1.1h0
		c-0.6,0-1.1-0.5-1.1-1.1v-2.3C1126,690.1,1126.5,689.6,1127.1,689.6z"/>
</g>
<path style="fill:#FEF0E1;" d="M1128.1,718.6h39.3v39.8h-39.3V718.6z"/>
<path style="fill:#F8AE5F;" d="M1134,737.5h6.8v13.2h-6.8V737.5z"/>
<path style="fill:#FBD1A4;" d="M1144.3,723h6.8v27.7h-6.8V723z"/>
<path style="fill:#F9BC7C;" d="M1154.6,733h6.8v17.7h-6.8V733z"/>
<path style="fill:#F69F41;" d="M1129.6,752.8h36.4v2.4h-36.4V752.8z"/>
<path style="fill:#C21D47;" d="M1020.6,685.9h31.3v11h-31.3L1020.6,685.9z"/>
<g>
	<path style="fill:#FFFFFF;" d="M1024.8,693v-0.3c0-0.1,0.1-0.3,0.1-0.4c0.1-0.2,0.2-0.3,0.3-0.4c0.1-0.1,0.3-0.2,0.4-0.2
		c0.1,0,0.2-0.1,0.3-0.1h0.9v-0.2c0,0,0-0.1,0-0.1V691c0-0.1,0.1-0.3,0.2-0.4c0.1-0.1,0.2-0.2,0.3-0.3c0.1-0.1,0.1-0.1,0.2-0.2
		l0.2-0.1h0.5c0.1,0,0.2,0,0.3,0.1l0.3,0.1V690c0-0.2,0.1-0.3,0.2-0.5c0.1-0.1,0.1-0.2,0.2-0.3c0.1-0.1,0.2-0.2,0.3-0.3l0.2-0.2
		l0.2-0.2c0.1-0.1,0.3-0.2,0.4-0.2l0.4-0.1c0.1,0,0.2-0.1,0.3-0.1h0.7l0.3,0.1c0.2,0.1,0.3,0.1,0.5,0.2c0.1,0.1,0.3,0.2,0.4,0.3
		c0.1,0.1,0.2,0.2,0.2,0.3c0.1,0.1,0.2,0.3,0.3,0.4c0,0.1,0.1,0.2,0.1,0.3c0,0.1,0.1,0.3,0.1,0.4l0.1,0.4l0,0l-0.2,0.2l-0.4,0.4
		l-0.2,0.2l-0.2,0.2v0.2l-0.1,0.4l-0.2,0.6l-0.1,0.3l-0.2,0.1c-0.1,0.1-0.2,0.2-0.4,0.2c-0.1,0-0.1,0-0.2,0c-0.1,0-0.2,0-0.3-0.1
		c-0.1-0.1-0.2-0.1-0.3-0.2l-0.2-0.2l-0.3-0.3l-0.1-0.1c-0.1-0.1-0.1-0.1-0.2-0.2c-0.1-0.1-0.3-0.1-0.4-0.1c-0.1,0-0.1,0-0.2,0.1
		c-0.1,0-0.2,0.1-0.3,0.2l-0.2,0.2l-0.2,0.3l-0.2,0.2c-0.1,0.1-0.2,0.1-0.3,0.1c-0.1,0-0.2,0-0.3,0c-0.1,0-0.1-0.1-0.2-0.1l-0.2-0.2
		l-0.2-0.2c-0.1-0.1-0.1-0.1-0.2-0.2c-0.1,0-0.2,0-0.3,0c-0.1,0-0.2,0.1-0.3,0.1c-0.1,0.1-0.2,0.1-0.3,0.2l-0.3,0.3c0,0,0,0.1,0,0.1
		s0.1,0,0.1,0l0,0l0.3-0.3c0.1-0.1,0.2-0.1,0.3-0.2c0.1,0,0.2,0,0.3,0c0.1,0,0.2,0.1,0.2,0.2l0.2,0.2l0.2,0.2
		c0.1,0.1,0.1,0.1,0.2,0.2c0.1,0,0.1,0.1,0.2,0.1h0.2c0.1,0,0.2-0.1,0.3-0.1c0.1,0,0.1-0.1,0.2-0.2l0.2-0.2l0.2-0.3
		c0.1-0.1,0.2-0.2,0.3-0.3c0.1-0.1,0.2-0.1,0.3-0.1c0.1,0,0.2,0,0.3,0c0.1,0.1,0.2,0.1,0.3,0.2l0.2,0.2l0.2,0.3l0.2,0.2l0.2,0.1
		c0.1,0.1,0.2,0.1,0.3,0.1h0.2c0.1,0,0.2-0.1,0.3-0.1c0.1-0.1,0.3-0.2,0.4-0.3h0.1l0.2-0.1l0.2-0.1l0.4-0.2l0.2-0.1l0.4-0.2h0.1
		l0.2-0.2l0.2-0.2l0.2-0.2l0.2-0.2l0.1-0.1l0.1-0.1l0.1,0.2c0,0.1,0.1,0.2,0.1,0.3c0,0.1,0,0.2,0,0.3v0.2c0,0.1,0,0.2,0,0.3
		c0,0.2-0.1,0.3-0.2,0.5l-0.1,0.2c-0.1,0.1-0.1,0.2-0.2,0.3c-0.2,0.2-0.5,0.4-0.8,0.5c-0.1,0-0.2,0.1-0.4,0.1h-7.6
		c-0.1,0-0.3-0.1-0.4-0.1c-0.1-0.1-0.2-0.1-0.3-0.2c-0.1-0.1-0.2-0.2-0.3-0.3c-0.1-0.1-0.1-0.2-0.2-0.4
		C1024.8,693.3,1024.8,693.2,1024.8,693L1024.8,693z"/>
	<g>
		<path id="c" style="fill:#FFFFFF;" d="M1034,692.4l-0.6,0.3l-0.1-0.1l-0.2-0.2l0,0l0.1-0.4l0.1-0.2c0,0,0.1,0,0.1,0l0.1-0.1
			l0.1-0.1l0.2-0.2l0.5-0.6h0.1l-0.1,0.1l-0.3,0.4l-0.1,0.1l-0.2,0.3c0,0-0.1,0.1-0.1,0.1c0,0.1,0,0.1,0,0.2c0,0.1,0,0.1,0.1,0.2
			c0,0,0.1,0.1,0.2,0.1c0,0,0.1,0,0.1,0c0.1,0,0.1-0.1,0.1-0.1l0.1-0.1l0.2-0.2l0.2-0.2l0.1-0.1l0.2-0.2l0.1-0.1l0.1,0.1l-0.1,0.1
			l-0.2,0.2l-0.2,0.2l-0.2,0.2l-0.2,0.2l-0.1,0.1C1034,692.3,1034,692.3,1034,692.4L1034,692.4z"/>
	</g>
</g>
<path style="opacity:6.000000e-02;fill:#201E1D;enable-background:new    ;" d="M995.2,652.6V772l207.7-119.4H995.2z"/>
<path style="fill:#DB7F00;" d="M887.1,1052.6h-18.3V816.3h18.3V1052.6z M1050.4,1052.6h-18.3V816.3h18.3V1052.6z"/>
<path style="fill:#DE8914;" d="M1269.3,821.6H868.1v-0.8c0-14.6,11.8-26.4,26.4-26.4h348.5c14.6,0,26.4,11.8,26.4,26.4V821.6z"/>
<path style="fill:#FAC352;" d="M1052.2,821.6H868.1v-0.8c0-14.6,11.8-26.4,26.4-26.4h131.4c14.8,0,26.8,12,26.8,26.8
	C1052.6,821.4,1052.5,821.6,1052.2,821.6C1052.2,821.6,1052.2,821.6,1052.2,821.6L1052.2,821.6z"/>
<path style="fill:#AE3A58;" d="M890.5,951c20.8-9.9,50.6,10,66.6,44.5s12.1,70.5-8.7,80.5s-50.6-10-66.6-44.5S869.7,961,890.5,951z
	 M896.8,1023.5c12,25.9,32.9,41.5,46.8,34.9s15.3-33,3.3-58.8S914,958,900.1,964.7S884.8,997.6,896.8,1023.5L896.8,1023.5z"/>
<path style="fill:#9F173B;" d="M837.2,1085.6l78.1,1c7.5,0,13.6-6.1,13.6-13.6c0-0.1,0-0.2,0-0.2l-0.4-93.5
	c-0.1-29.4-23.6-53.7-52.2-54.1h-1.5c-28.6-0.3-51.8,23.4-51.7,52.8l0.4,93.5C823.5,1079.1,829.6,1085.3,837.2,1085.6L837.2,1085.6z
	"/>
<path style="fill:#AE3A58;" d="M876.7,1070.7l35.4,0.4c4.1,0,7.4-3.3,7.4-7.4c0,0,0-0.1,0-0.1l-0.3-64.5
	c-0.1-13.4-10.8-24.5-23.8-24.6h-3c-13-0.2-23.6,10.7-23.5,24.1l0.3,64.5C869.2,1067.2,872.6,1070.6,876.7,1070.7L876.7,1070.7z"/>
<path style="fill:#9F173B;" d="M881.3,996.7l29.7,0.9c1.6,0,2.9-1.2,2.9-2.8c0,0,0,0,0-0.1c0-1.6-1.2-3-2.8-3l-29.7-0.9
	c-1.6,0-2.9,1.2-2.9,2.8c0,0,0,0,0,0.1C878.4,995.3,879.7,996.6,881.3,996.7z"/>
<path style="fill:#AE3A58;" d="M839.4,1026h0.3c6,0.1,10.9-4.7,11-10.7c0-0.1,0-0.1,0-0.2l0.4-34.2c0.1-6.1-4.6-11.2-10.8-11.5H840
	c-6-0.1-10.9,4.7-11,10.7c0,0.1,0,0.1,0,0.2l-0.4,34.2C828.5,1020.6,833.3,1025.7,839.4,1026L839.4,1026z"/>
<linearGradient id="SVGID_16_" gradientUnits="userSpaceOnUse" x1="1247.567" y1="389.3925" x2="1237.464" y2="472.7466" gradientTransform="matrix(1 0 0 -1 0 1086)">
	<stop  offset="0.12" style="stop-color:#FFD8CA"/>
	<stop  offset="0.66" style="stop-color:#FFA183"/>
</linearGradient>
<path style="fill:url(#SVGID_16_);" d="M1245.2,678.8c0,0-22.4-23.2-23.6-34l-4.9-42.2l38.8-4.8l4.9,42.2
	C1261.5,650.8,1245.2,678.8,1245.2,678.8z"/>
<path style="fill:none;stroke:#19719D;stroke-width:53.1;stroke-linecap:round;stroke-miterlimit:10;" d="M1191,1045.6
	c-11.8-22.3-106.8-157.8,56-157.1"/>
<path style="fill:#66A0BE;" d="M1211.6,1027.8l20.8,26.2l-48.8,30.4l-17.6-30.1L1211.6,1027.8L1211.6,1027.8z"/>
<path style="fill:none;stroke:#006192;stroke-width:53.1;stroke-linecap:round;stroke-miterlimit:10;" d="M1114.8,1043.6
	c-9.3-23.5-87.4-161.9,72.6-152.1"/>
<path style="fill:#66A0BE;" d="M1137.2,1028.3l17.7,28.3l-51.9,24.8l-14.2-31.8L1137.2,1028.3L1137.2,1028.3z"/>
<path style="fill:#006192;" d="M1196.9,919.4h70.4c20.1-0.1,36.9-15.5,38.7-35.5l1.6-15.7h-151l1.6,15.7
	C1160.1,903.9,1176.8,919.3,1196.9,919.4L1196.9,919.4z"/>
<linearGradient id="SVGID_17_" gradientUnits="userSpaceOnUse" x1="1244.903" y1="355.37" x2="1244.903" y2="732.1" gradientTransform="matrix(1 0 0 -1 0 1086)">
	<stop  offset="0" style="stop-color:#68AA61"/>
	<stop  offset="0.1" style="stop-color:#7CB576"/>
	<stop  offset="0.41" style="stop-color:#B4D5B0"/>
	<stop  offset="0.67" style="stop-color:#DDECDB"/>
	<stop  offset="0.88" style="stop-color:#F6FAF5"/>
	<stop  offset="1" style="stop-color:#FFFFFF"/>
</linearGradient>
<path style="fill:url(#SVGID_17_);" d="M1307.7,882.1l-2.3-182.9c-0.6-47.6-10.1-51.3-36.2-55.4c-40.7-6.4-73.3,3.9-73.3,3.9
	c-47.3,78.3,48.1,109.3-12.4,217.8L1307.7,882.1z"/>
<path style="fill:#68AA61;" d="M1304.2,672.2l1.1,23.4l-109.5-46.7c0-4.1,3.3-7.4,7.4-7.4l0,0h64.2
	C1287.3,642,1304.3,651.6,1304.2,672.2L1304.2,672.2z"/>
<g>
	<path style="fill:#FFBFAB;" d="M1091,744.9l-36.1,16.8c-4,1.9-8.9,0.1-10.8-3.9l0,0c-1.9-4-0.1-8.9,3.9-10.8l36.1-16.8
		c4-1.9,8.9-0.1,10.8,3.9l0,0C1096.8,738.2,1095,743.1,1091,744.9z"/>
	<path style="fill:#FFBFAB;" d="M1103.6,755.1l-35.4,18.2c-4,2-8.9,0.5-10.9-3.5l0,0c-2-4-0.5-8.9,3.5-10.9l35.4-18.2
		c4-2,8.9-0.5,10.9,3.5l0,0C1109.1,748.2,1107.6,753.1,1103.6,755.1z"/>
	<circle style="fill:#FFBFAB;" cx="1097.3" cy="751.4" r="24.4"/>
</g>
<path style="fill:none;stroke:#68AA61;stroke-width:47.2;stroke-linecap:round;stroke-miterlimit:10;" d="M1224.8,675.8
	c1.3,21.8,12.5,119.5-90.7,88.6"/>
<path style="fill:#A6CDA2;" d="M1096.7,777.8l16-46l26.1,8.8l-15.7,46.5L1096.7,777.8L1096.7,777.8z"/>
<linearGradient id="SVGID_18_" gradientUnits="userSpaceOnUse" x1="1227.7339" y1="593.1751" x2="1250.6399" y2="418.7371" gradientTransform="matrix(1 0 0 -1 0 1086)">
	<stop  offset="1.000000e-02" style="stop-color:#FFE9E1"/>
	<stop  offset="0.97" style="stop-color:#FFA082"/>
</linearGradient>
<path style="fill:url(#SVGID_18_);" d="M1193.7,594.4l-7.5-57.8c-3.2-25.4,14.7-48.6,40-51.9l1.1-0.1c25.4-3.2,48.6,14.7,51.9,40
	l7.5,57.8c2.9,22.5-67.3,31.5-67.3,31.5C1201.5,612.7,1195.2,605.5,1193.7,594.4L1193.7,594.4z"/>
<path style="fill:#CE8E27;" d="M1184.8,495.2c-26.8,68.5,44.5,52.8,44.5,52.8l-4.5-31.1c10.3,20.6,27.4,31.3,57.1,35.1
	c-3.1-35.8,2.2-54.5-6.4-65.6C1238.5,444.3,1191.8,476.2,1184.8,495.2L1184.8,495.2z"/>
<path style="fill:#D7A34E;" d="M1222,651.3l-15.1-112.4c-4.3-33.4,11.2-63.1,34.6-66.1l1.5-0.2c23.3-3,46,21.8,50.3,55.1l13.1,105.8
	L1222,651.3z"/>
<path style="fill:#FFCBBA;" d="M1215.7,557.5L1215.7,557.5c3.6-0.4,6.9,2.3,7.2,5.9l2.3,22c0.4,3.6-2.3,6.9-5.9,7.2h0
	c-3.6,0.4-6.9-2.3-7.2-5.9l-2.3-22C1209.5,561.1,1212.1,557.8,1215.7,557.5z"/>
<g>
	<path style="fill:#DB7F00;" d="M1317.5,932.8h-13.6V824.1h13.6V932.8z M1317.5,1077.4h-13.6V938.7h13.6V1077.4z M1254.8,932.8
		h-13.6V824.1h13.6V932.8z M1254.8,1077.5h-13.6V938.8h13.6V1077.5z M1179.8,1077.5h-13.6V938.8h13.6V1077.5z"/>
	<path style="fill:#DB7F00;" d="M1326.7,841.1h-116.3c-10.4,0-18.8-8.4-18.8-18.8v-78.1c0-10.4,8.4-18.8,18.8-18.8h116.3
		c10.4,0,18.8,8.4,18.8,18.8v78.1C1345.5,832.7,1337.1,841.1,1326.7,841.1z"/>
</g>
<path style="fill:#F9BC3D;" d="M1327.4,841.1h-106.3c-10,0-18.1-8.1-18.1-18v-79.5c0-10,8.1-18,18.1-18h106.3c10,0,18.1,8.1,18.1,18
	v79.5C1345.4,833,1337.4,841.1,1327.4,841.1z"/>
<path style="fill:#DB7F00;" d="M1305.1,946.7h-144.6c-8.7,0-15.8-7.1-15.8-15.8v0c0-8.7,7.1-15.8,15.8-15.8h144.6
	c8.7,0,15.8,7.1,15.8,15.8v0C1320.9,939.7,1313.8,946.7,1305.1,946.7z"/>
<path style="fill:#F9BC3D;" d="M1144.6,930.1c0.4-8.4,7.4-15,15.8-15.1H1305c8.4,0,15.4,6.6,15.8,15.1H1144.6z"/>
<linearGradient id="SVGID_19_" gradientUnits="userSpaceOnUse" x1="318.5233" y1="382.2285" x2="228.1033" y2="189.3885" gradientTransform="matrix(1 0 0 -1 0 1086)">
	<stop  offset="0" style="stop-color:#C1E5EF"/>
	<stop  offset="1" style="stop-color:#5591A8"/>
</linearGradient>
<path style="fill:url(#SVGID_19_);" d="M422.9,641.9H198.2c-3.2,0-5.8,2.6-5.9,5.8V795h236.3V647.8
	C428.7,644.6,426.1,641.9,422.9,641.9L422.9,641.9z"/>
<linearGradient id="SVGID_20_" gradientUnits="userSpaceOnUse" x1="157.35" y1="299.18" x2="429" y2="299.18" gradientTransform="matrix(1 0 0 -1 0 1086)">
	<stop  offset="0" style="stop-color:#C1E5EF"/>
	<stop  offset="1" style="stop-color:#5591A8"/>
</linearGradient>
<path style="fill:url(#SVGID_20_);" d="M157.4,783H429v7.6H157.4V783z"/>
<path style="fill:#5591A8;" d="M429,790.6H157.4c0,2.4,2,4.4,4.4,4.4h262.8C427,795,429,793.1,429,790.6L429,790.6z M242.4,783
	c0.3,2.2,2.1,3.8,4.4,3.8h35.9c2.2,0,4.1-1.6,4.3-3.8H242.4z"/>
<path style="fill:#FFFFFF;" d="M201.6,650h217.9v125.7H201.6V650z"/>
<path style="opacity:0.14;fill:#201E1D;enable-background:new    ;" d="M240,658.6h141c6.3,0,11.4,5.1,11.4,11.4v90.7
	c0,6.3-5.1,11.4-11.4,11.4H240c-6.3,0-11.4-5.1-11.4-11.4V670C228.6,663.7,233.7,658.6,240,658.6z"/>
<path style="fill:#FFFFFF;" d="M241.6,661h136.1c5.9,0,10.7,4.8,10.7,10.7v83.5c0,5.9-4.8,10.7-10.7,10.7H241.6
	c-5.9,0-10.7-4.8-10.7-10.7v-83.5C230.9,665.8,235.7,661,241.6,661z"/>
<path style="fill:#C21D47;" d="M388.4,675v-3.3c0-5.9-4.8-10.7-10.7-10.7h0H241.6c-5.9,0-10.7,4.8-10.7,10.7l0,0v3.3H388.4z"/>
<path style="opacity:0.15;fill:#201E1D;enable-background:new    ;" d="M388.4,679.3l-157.6-0.2v-8l157.6,0.2V679.3L388.4,679.3z"/>
<g style="opacity:0.8;">
	<circle style="fill:#F69F41;" cx="313.6" cy="723" r="26"/>
	<circle style="fill:#F8B66E;" cx="313.6" cy="723" r="23.4"/>
	<path style="opacity:0.35;fill:#FFFFFF;enable-background:new    ;" d="M313.5,746.5v-46.9c-12.9,0.3-23.2,11-23,23.9
		C290.8,736.1,301,746.2,313.5,746.5L313.5,746.5z"/>
	<g>
		<path style="fill:#F69F41;" d="M314.8,747.5h-2.3v-49.4h2.3V747.5z"/>
		<path style="fill:#F69F41;" d="M288.7,724.2v-2.3h49.4v2.3H288.7z"/>
		<path style="fill:#F69F41;" d="M313.4,698.6c4.1,0,7.8,2.7,10.6,7.5c5.5,10.9,5.5,23.7,0,34.6c-2.8,4.8-6.5,7.5-10.6,7.5
			s-7.8-2.7-10.6-7.5c-5.5-10.9-5.5-23.7,0-34.6C305.5,701.3,309.3,698.6,313.4,698.6z M313.4,745.8c3.2,0,6.3-2.3,8.6-6.3
			c5.1-10.1,5.1-22.1,0-32.3c-2.4-4.1-5.4-6.3-8.6-6.3s-6.3,2.3-8.6,6.3c-5.1,10.1-5.1,22.1,0,32.3
			C307.1,743.6,310.1,745.8,313.4,745.8z"/>
		<path style="fill:#F69F41;" d="M292.2,735.5h42.5v2.3h-42.5V735.5z M292.2,708.1h42.5v2.3h-42.5V708.1z"/>
	</g>
</g>
<path style="fill:#FEF0E1;" d="M237.9,696.8h31.4v60.6h-31.4V696.8z"/>
<path style="fill:#FCE0C2;" d="M289.9,688.5h14.8c1.4,0,2.5,1.1,2.5,2.5l0,0c0,1.4-1.1,2.5-2.5,2.5h-14.8c-1.4,0-2.5-1.1-2.5-2.5
	l0,0C287.4,689.6,288.5,688.5,289.9,688.5z"/>
<g>
	<path style="fill:#FFFFFF;" d="M244.7,703.7h14.7c1.4,0,2.5,1.1,2.5,2.5l0,0c0,1.4-1.1,2.5-2.5,2.5h-14.7c-1.4,0-2.5-1.1-2.5-2.5
		l0,0C242.2,704.8,243.4,703.7,244.7,703.7z"/>
	<path style="fill:#FFFFFF;" d="M244.7,714.1h14.7c1.4,0,2.5,1.1,2.5,2.5l0,0c0,1.4-1.1,2.5-2.5,2.5h-14.7c-1.4,0-2.5-1.1-2.5-2.5
		l0,0C242.2,715.2,243.4,714.1,244.7,714.1z"/>
	<path style="fill:#FFFFFF;" d="M244.7,724.5h14.7c1.4,0,2.5,1.1,2.5,2.5l0,0c0,1.4-1.1,2.5-2.5,2.5h-14.7c-1.4,0-2.5-1.1-2.5-2.5
		l0,0C242.2,725.7,243.4,724.5,244.7,724.5z"/>
	<path style="fill:#FFFFFF;" d="M244.7,735h14.7c1.4,0,2.5,1.1,2.5,2.5l0,0c0,1.4-1.1,2.5-2.5,2.5h-14.7c-1.4,0-2.5-1.1-2.5-2.5l0,0
		C242.2,736.1,243.4,735,244.7,735z"/>
	<path style="fill:#FFFFFF;" d="M244.7,745.4h14.7c1.4,0,2.5,1.1,2.5,2.5l0,0c0,1.4-1.1,2.5-2.5,2.5h-14.7c-1.4,0-2.5-1.1-2.5-2.5
		l0,0C242.2,746.5,243.4,745.4,244.7,745.4z"/>
</g>
<g>
	<g>
		<path id="b_2_" style="fill:#FCE0C2;" d="M279.6,686.1c-3.2,0-5.8,2.6-5.8,5.8s2.6,5.8,5.8,5.8c3.2,0,5.8-2.6,5.8-5.8l0,0
			C285.4,688.7,282.8,686.1,279.6,686.1z M279.6,696.1c-2.3,0-4.2-1.9-4.2-4.2s1.9-4.2,4.2-4.2c2.3,0,4.2,1.9,4.2,4.2
			C283.8,694.2,281.9,696.1,279.6,696.1C279.6,696.1,279.6,696.1,279.6,696.1L279.6,696.1z"/>
	</g>
	<path style="fill:#FCE0C2;" d="M279.6,689.8L279.6,689.8c0.6,0,1.1,0.5,1.1,1.1v2.3c0,0.6-0.5,1.1-1.1,1.1h0
		c-0.6,0-1.1-0.5-1.1-1.1v-2.3C278.5,690.3,279,689.8,279.6,689.8z"/>
	<path style="fill:#FCE0C2;" d="M289.9,751.5h14.8c1.4,0,2.5,1.1,2.5,2.5l0,0c0,1.4-1.1,2.5-2.5,2.5h-14.8c-1.4,0-2.5-1.1-2.5-2.5
		l0,0C287.4,752.6,288.5,751.5,289.9,751.5z"/>
	<path style="fill:#FCE0C2;" d="M279.6,749c-3.2,0-5.8,2.6-5.8,5.8c0,3.2,2.6,5.8,5.8,5.8c3.2,0,5.8-2.6,5.8-5.8
		S282.8,749,279.6,749L279.6,749z M279.6,759c-2.3,0-4.2-1.9-4.2-4.2c0-2.3,1.9-4.2,4.2-4.2c2.3,0,4.2,1.9,4.2,4.2l0,0
		C283.8,757.1,281.9,759,279.6,759C279.6,759.1,279.6,759.1,279.6,759L279.6,759z"/>
	<path style="fill:#FCE0C2;" d="M279.6,752.8L279.6,752.8c0.6,0,1.1,0.5,1.1,1.1v2.3c0,0.6-0.5,1.1-1.1,1.1h0
		c-0.6,0-1.1-0.5-1.1-1.1v-2.3C278.5,753.3,279,752.8,279.6,752.8z"/>
	<path style="fill:#FCE0C2;" d="M354.9,688.9H378c1.4,0,2.5,1.1,2.5,2.5l0,0c0,1.4-1.1,2.5-2.5,2.5h-23.1c-1.4,0-2.5-1.1-2.5-2.5
		l0,0C352.4,690,353.5,688.9,354.9,688.9z"/>
	<path style="fill:#FCE0C2;" d="M354.9,696.5h15.8c1.4,0,2.5,1.1,2.5,2.5l0,0c0,1.4-1.1,2.5-2.5,2.5h-15.8c-1.4,0-2.5-1.1-2.5-2.5
		l0,0C352.4,697.6,353.5,696.5,354.9,696.5z"/>
	<g>
		<path id="a_1_" style="fill:#FCE0C2;" d="M344.5,686.5c-3.2,0-5.8,2.6-5.8,5.8s2.6,5.8,5.8,5.8c3.2,0,5.8-2.6,5.8-5.8l0,0
			C350.4,689.1,347.8,686.5,344.5,686.5z M344.5,696.5c-2.3,0-4.2-1.9-4.2-4.2s1.9-4.2,4.2-4.2c2.3,0,4.2,1.9,4.2,4.2
			C348.7,694.6,346.9,696.5,344.5,696.5C344.6,696.5,344.6,696.5,344.5,696.5L344.5,696.5z"/>
	</g>
	<path style="fill:#FCE0C2;" d="M344.5,690.3L344.5,690.3c0.6,0,1.1,0.5,1.1,1.1v2.3c0,0.6-0.5,1.1-1.1,1.1h0
		c-0.6,0-1.1-0.5-1.1-1.1v-2.3C343.5,690.7,343.9,690.3,344.5,690.3z"/>
</g>
<path style="fill:#FEF0E1;" d="M345.6,719.2h39.3V759h-39.3V719.2z"/>
<path style="fill:#F8AE5F;" d="M351.4,738.1h6.8v13.2h-6.8V738.1z"/>
<path style="fill:#FBD1A4;" d="M361.7,723.6h6.8v27.7h-6.8V723.6z"/>
<path style="fill:#F9BC7C;" d="M372,733.6h6.8v17.7H372V733.6z"/>
<path style="fill:#F69F41;" d="M347.1,753.4h36.4v2.4h-36.4V753.4z"/>
<path style="fill:#C21D47;" d="M238,686.5h31.3v11H238L238,686.5z"/>
<g>
	<path style="fill:#FFFFFF;" d="M242.3,693.7v-0.3c0-0.1,0.1-0.3,0.1-0.4c0.1-0.2,0.2-0.3,0.4-0.4c0.1-0.1,0.3-0.2,0.4-0.2
		c0.1,0,0.2-0.1,0.3-0.1h0.9V692c0,0,0-0.1,0-0.1v-0.2c0-0.1,0.1-0.3,0.2-0.4c0.1-0.1,0.2-0.2,0.4-0.3c0.1-0.1,0.1-0.1,0.2-0.2
		l0.2-0.1h0.5c0.1,0,0.2,0,0.3,0.1l0.3,0.1v-0.2c0-0.2,0.1-0.3,0.2-0.5c0.1-0.1,0.1-0.2,0.2-0.3c0.1-0.1,0.2-0.2,0.3-0.3l0.2-0.2
		l0.2-0.2c0.1-0.1,0.3-0.2,0.4-0.2l0.4-0.1c0.1,0,0.2-0.1,0.3-0.1h0.7l0.3,0.1c0.2,0.1,0.3,0.1,0.5,0.2c0.1,0.1,0.3,0.2,0.4,0.3
		c0.1,0.1,0.2,0.2,0.2,0.3c0.1,0.1,0.2,0.3,0.3,0.4c0,0.1,0.1,0.2,0.1,0.3c0,0.1,0.1,0.3,0.1,0.4l0.1,0.4l0,0l-0.2,0.2l-0.4,0.4
		l-0.2,0.2l-0.2,0.2v0.2l-0.1,0.4l-0.2,0.6l-0.1,0.3l-0.1,0.1c-0.1,0.1-0.2,0.2-0.4,0.2c-0.1,0-0.1,0-0.2,0c-0.1,0-0.2,0-0.3-0.1
		c-0.1-0.1-0.2-0.1-0.3-0.2l-0.2-0.2l-0.3-0.3l-0.1-0.1c-0.1-0.1-0.1-0.1-0.2-0.2c-0.1-0.1-0.3-0.1-0.4-0.1c-0.1,0-0.1,0-0.2,0.1
		c-0.1,0-0.2,0.1-0.3,0.2l-0.2,0.2l-0.2,0.3l-0.2,0.2c-0.1,0.1-0.2,0.1-0.3,0.1c-0.1,0-0.2,0-0.3,0c-0.1,0-0.1-0.1-0.2-0.1l-0.2-0.2
		l-0.2-0.2c-0.1-0.1-0.1-0.1-0.2-0.2c-0.1,0-0.2,0-0.3,0c-0.1,0-0.2,0.1-0.3,0.1c-0.1,0.1-0.2,0.1-0.3,0.2l-0.3,0.3c0,0,0,0.1,0,0.1
		s0.1,0,0.1,0l0.3-0.3c0.1-0.1,0.2-0.1,0.3-0.2c0.1,0,0.2,0,0.3,0c0.1,0,0.2,0.1,0.2,0.2l0.2,0.2l0.2,0.2c0.1,0.1,0.1,0.1,0.2,0.2
		c0.1,0,0.1,0.1,0.2,0.1h0.2c0.1,0,0.2-0.1,0.3-0.1c0.1,0,0.1-0.1,0.2-0.2l0.2-0.2l0.2-0.3c0.1-0.1,0.2-0.2,0.3-0.3
		c0.1-0.1,0.2-0.1,0.3-0.1c0.1,0,0.2,0,0.3,0c0.1,0.1,0.2,0.1,0.3,0.2l0.2,0.2l0.2,0.3l0.2,0.2l0.2,0.1c0.1,0.1,0.2,0.1,0.3,0.1h0.2
		c0.1,0,0.2-0.1,0.3-0.1c0.1-0.1,0.3-0.2,0.4-0.3h0.1l0.2-0.1l0.2-0.1l0.4-0.2l0.2-0.1l0.4-0.2h0.1l0.2-0.2l0.2-0.2l0.2-0.2l0.2-0.2
		l0.1-0.1l0.1-0.1l0.1,0.2c0,0.1,0.1,0.2,0.1,0.3c0,0.1,0,0.2,0,0.3v0.2c0,0.1,0,0.2,0,0.3c0,0.2-0.1,0.3-0.1,0.5l-0.1,0.2
		c-0.1,0.1-0.1,0.2-0.2,0.3c-0.2,0.2-0.5,0.4-0.8,0.5c-0.1,0-0.2,0.1-0.4,0.1h-7.6c-0.1,0-0.3-0.1-0.4-0.1c-0.1-0.1-0.2-0.1-0.3-0.2
		c-0.1-0.1-0.2-0.2-0.3-0.3c-0.1-0.1-0.1-0.2-0.2-0.4c0-0.1-0.1-0.2-0.1-0.3L242.3,693.7z"/>
	<g>
		<path id="c_1_" style="fill:#FFFFFF;" d="M251.4,693l-0.6,0.3l-0.1-0.1l-0.2-0.2l0,0l0.1-0.4l0.1-0.2c0,0,0.1,0,0.1,0l0.1-0.1
			l0.1-0.1l0.2-0.2l0.5-0.6h0.1l-0.1,0.1l-0.3,0.4l-0.1,0.1l-0.2,0.3c0,0-0.1,0.1-0.1,0.1c0,0.1,0,0.1,0,0.2c0,0.1,0,0.1,0.1,0.2
			c0,0,0.1,0.1,0.2,0.1c0,0,0.1,0,0.1,0c0.1,0,0.1-0.1,0.1-0.1l0.1-0.1l0.2-0.2l0.2-0.2l0.1-0.1l0.2-0.2l0.1-0.1l0.1,0.1l-0.1,0.1
			l-0.2,0.2l-0.2,0.2l-0.2,0.2l-0.2,0.2l-0.1,0.1C251.4,692.9,251.4,692.9,251.4,693L251.4,693z"/>
	</g>
</g>
<path style="opacity:6.000000e-02;fill:#201E1D;enable-background:new    ;" d="M206.7,654v119.4L414.3,654H206.7z"/>
<g>
	<path style="fill:#DB7F00;" d="M457.8,816.3h18.3v236.3h-18.3V816.3z M294.4,816.3h18.3v236.3h-18.3V816.3z"/>
	<path style="fill:#DB7F00;" d="M101.9,794.4h348.5c14.6,0,26.4,11.8,26.4,26.4v0.8l0,0H75.5l0,0v-0.8
		C75.5,806.2,87.3,794.4,101.9,794.4L101.9,794.4z"/>
</g>
<path style="fill:#F9BC3D;" d="M319,794.4h131.4c14.6,0,26.4,11.8,26.4,26.4v0.8l0,0H292.6c-0.2,0-0.4-0.2-0.4-0.4l0,0
	C292.2,806.4,304.2,794.4,319,794.4z"/>
<path style="fill:#8EBCD1;" d="M439,957.7c-19.7-9.7-48.3,8.9-64,41.6c-15.7,32.7-12.4,67.1,7.3,76.8s48.3-8.9,64-41.6
	S458.7,967.4,439,957.7z M432.2,1026.7c-11.7,24.5-31.9,39.1-45,32.7s-14.2-31.6-2.5-56.1s31.9-39.1,45-32.7
	S443.9,1002.2,432.2,1026.7L432.2,1026.7z"/>
<path style="fill:#5B9EBD;" d="M488.2,1086.6h-74.4c-7.2-0.1-12.9-6-12.8-13.2c0-0.1,0-0.1,0-0.2l1.5-89.1
	c0.5-28,23.1-50.9,50.3-50.9h1.5c27.2,0,49.1,22.9,48.6,50.9l-1.5,89.1C501.4,1080.5,495.5,1086.4,488.2,1086.6L488.2,1086.6z"/>
<path style="fill:#8EBCD1;" d="M450.8,1071.9H417c-3.9,0-7-3.2-7-7.2c0,0,0-0.1,0-0.1l1-61.5c0.2-12.8,10.5-23.2,22.9-23.2h2.9
	c12.4,0,22.4,10.4,22.1,23.2l-1,61.5C457.9,1068.6,454.7,1071.8,450.8,1071.9L450.8,1071.9z"/>
<path style="fill:#5B9EBD;" d="M447.3,1001.3l-28.3,0.5c-1.5,0-2.7-1.2-2.8-2.7c0,0,0,0,0-0.1c0-1.5,1.2-2.8,2.8-2.9l28.3-0.5
	c1.5,0,2.7,1.2,2.8,2.7c0,0,0,0,0,0.1C450.1,1000,448.8,1001.3,447.3,1001.3z"/>
<path style="fill:#8EBCD1;" d="M486.8,1029.7h-0.3c-5.7,0-10.3-4.6-10.4-10.3c0-0.1,0-0.1,0-0.2v-32.6c0-5.8,4.6-10.6,10.4-10.8h0.3
	c5.7,0,10.3,4.6,10.4,10.3c0,0.1,0,0.1,0,0.2v32.6C497.3,1024.7,492.7,1029.5,486.8,1029.7z"/>
<linearGradient id="SVGID_21_" gradientUnits="userSpaceOnUse" x1="94.56" y1="428.97" x2="94.56" y2="473.38" gradientTransform="matrix(1 0 0 -1 0 1086)">
	<stop  offset="0" style="stop-color:#FFEDE6"/>
	<stop  offset="0.97" style="stop-color:#FF9676"/>
</linearGradient>
<path style="fill:url(#SVGID_21_);" d="M94.6,694.1c0,0-28.4-32-28.4-47.7v-32.8H123v32.8C123,662.1,94.6,694.1,94.6,694.1z"/>
<path style="fill:none;stroke:#19719D;stroke-width:53.1;stroke-linecap:round;stroke-miterlimit:10;" d="M134.9,1043.6
	c9.3-23.5,88.5-168.7-73.2-149.9"/>
<g>
	<path id="d" style="fill:#66A0BE;" d="M112.5,1028.3l-17.7,28.3l51.9,24.8l14.2-31.8L112.5,1028.3z"/>
</g>
<path style="fill:none;stroke:#006192;stroke-width:53.1;stroke-linecap:round;stroke-miterlimit:10;" d="M222.2,1043.6
	c9.3-23.5,87.4-161.9-72.6-152.1"/>
<g>
	<path id="d_1_" style="fill:#66A0BE;" d="M199.8,1028.3l-17.7,28.3l51.9,24.8l14.2-31.8L199.8,1028.3z"/>
</g>
<path style="fill:#006192;" d="M139.5,919.4H68.1c-20.3,0-37.3-15.4-39.3-35.5l-1.6-15.7h153.1l-1.6,15.7
	C176.8,904.1,159.8,919.4,139.5,919.4L139.5,919.4z"/>
<linearGradient id="SVGID_22_" gradientUnits="userSpaceOnUse" x1="94.8381" y1="337.6155" x2="96.4421" y2="177.2155" gradientTransform="matrix(1 0 0 -1 0 1086)">
	<stop  offset="0" style="stop-color:#FB3847"/>
	<stop  offset="1" style="stop-color:#86283C"/>
</linearGradient>
<path style="fill:url(#SVGID_22_);" d="M153,653.8l-34.9-14.3l-52,0.6L34.7,655c-13.5,6.7-21.8,21.8-20.7,37.9l13.4,176.9l141-1.6
	l6.1-177.7C175,674.6,166.4,660.1,153,653.8L153,653.8z"/>
<path style="fill:#86283C;" d="M129.9,645.5l0.1-1.5c0-6.7-3.9-12.1-8.7-12.1H68.6c-4.8,0-8.7,5.5-8.7,12.1c0,0.5,0,1,0.1,1.5H129.9
	z"/>
<g>
	<path style="fill:#FFBFAB;" d="M294,741.3l36.1,16.8c4,1.9,5.8,6.7,3.9,10.8l0,0c-1.9,4-6.7,5.8-10.8,3.9L287.1,756
		c-4-1.9-5.8-6.7-3.9-10.8l0,0C285.1,741.2,289.9,739.4,294,741.3z"/>
	<path style="fill:#FFBFAB;" d="M281.9,751.8l35.4,18.2c4,2,5.5,6.9,3.5,10.9l0,0c-2,4-6.9,5.5-10.9,3.5l-35.4-18.2
		c-4-2-5.5-6.9-3.5-10.9l0,0C273.1,751.3,277.9,749.8,281.9,751.8z"/>
	<circle style="fill:#FFBFAB;" cx="280.8" cy="762.4" r="24.4"/>
</g>
<path style="fill:none;stroke:#FB3847;stroke-width:47.2;stroke-linecap:round;stroke-miterlimit:10;" d="M153.2,686.8
	c-1.3,21.8-12.5,119.5,90.7,88.6"/>
<path style="fill:#86283C;" d="M281.3,788.8l-16-46l-26.1,8.8l15.7,46.5L281.3,788.8L281.3,788.8z"/>
<linearGradient id="SVGID_23_" gradientUnits="userSpaceOnUse" x1="60.6577" y1="664.789" x2="125.9237" y2="360.214" gradientTransform="matrix(1 0 0 -1 0 1086)">
	<stop  offset="0" style="stop-color:#FFEDE6"/>
	<stop  offset="0.97" style="stop-color:#FF9676"/>
</linearGradient>
<path style="fill:url(#SVGID_23_);" d="M32.8,491.4c-6.2,1.3-10.2,7.4-8.9,13.7c0,0,0,0,0,0l17.6,83.4c5.2,24.6,29.3,40.3,53.9,35.1
	l15.8-3.3c24.6-5.2,40.4-29.3,35.2-53.9l-17.3-82.5c-1.4-6.7-8-11-14.7-9.6c0,0,0,0,0,0L32.8,491.4z"/>
<path style="fill:#923D50;" d="M117.3,473.7l-84.5,17.7c-6.2,1.3-10.2,7.4-8.9,13.7c0,0,0,0,0,0L41.5,588c1,5,2.9,9.8,5.5,14.2
	l46.1-9.7c14.7-3.1,24.1-17.5,21.1-32.3l-2.9-13.8l20.4-3.8L117.3,473.7z"/>
<path style="fill:#86283C;" d="M101.9,458.5l-59,13.7c-8.7,2-14.1,10.7-12.1,19.4c0,0,0,0,0,0c-5.7,1.7-9.1,7.6-7.8,13.4l2.6,8.3
	l103.9-24.1l-3.9-16.8C123.3,462.3,112.2,456.1,101.9,458.5L101.9,458.5z"/>
<path style="fill:#FFB69F;" d="M122.3,570.8l-0.8,0.1c-3,0.5-6-1.8-6.7-5.2L110,543c-0.7-3.4,1.1-6.6,4.1-7.1l0.8-0.1
	c3-0.5,6,1.8,6.7,5.2l4.8,22.9C127.1,567.1,125.2,570.3,122.3,570.8L122.3,570.8z"/>
<path style="fill:#86283C;" d="M84.2,462.8l53.1-12.5l-7.5,38.9L84.2,462.8z"/>
<g>
	<path style="fill:#DB7F00;" d="M28,824.1h13.6v108.7H28V824.1z M28,938.7h13.6v138.7H28V938.7z M90.7,824.1h13.6v108.7H90.6
		L90.7,824.1z M90.7,938.8h13.6v138.7H90.6L90.7,938.8z M165.7,938.8h13.6v138.7h-13.6V938.8z"/>
	<path style="fill:#DB7F00;" d="M18.8,725.5h116.3c10.4,0,18.8,8.4,18.8,18.8v78.1c0,10.4-8.4,18.8-18.8,18.8H18.8
		C8.4,841.1,0,832.7,0,822.4v-78.1C0,733.9,8.4,725.5,18.8,725.5z"/>
</g>
<path style="fill:#F9BC3D;" d="M18,725.5h106.3c10,0,18.1,8.1,18.1,18v79.5c0,10-8.1,18-18.1,18H18c-10,0-18-8.1-18-18v-79.5
	C0,733.6,8.1,725.5,18,725.5z"/>
<path style="fill:#DB7F00;" d="M40.4,915.1H185c8.7,0,15.8,7.1,15.8,15.8v0c0,8.7-7.1,15.8-15.8,15.8H40.4
	c-8.7,0-15.8-7.1-15.8-15.8v0C24.6,922.2,31.7,915.1,40.4,915.1z"/>
<path style="fill:#F9BC3D;" d="M200.8,930.1c-0.4-8.4-7.4-15-15.8-15.1H40.4c-8.4,0-15.4,6.6-15.8,15.1H200.8z"/>
<path style="fill:none;stroke:#268BAA;stroke-width:30.42;stroke-linecap:round;stroke-linejoin:round;" d="M502.6,619.5
	c-29.5-49.6-12-117.8,24.6-146.5"/>
<path style="fill:#FFDED3;" d="M505.7,669.4l16.4-19.6c0.4-0.5,0.7-1.1,0.9-1.7c2.8-2.3,4.7-5.5,5.5-9c2.4-9.8-3.9-20.3-14-23.3
	s-20.2,2.6-22.6,12.4c-1.2,5.2-0.2,10.7,2.9,15l-6,6.5c-1.7,1.9-1,5.4,1.6,7.7c2.5,2.2,5.8,2.7,7.6,1.1l-2.1,2.5
	c-1.8,2.2-1.1,5.8,1.6,8.1C500.2,671.5,503.9,671.6,505.7,669.4L505.7,669.4z"/>
<path style="fill:#201E1D;" d="M532.6,375.2c3.2,35.1,17.3,65.6,47.2,65.1c25.8-0.4,41.8-29,46.2-63.9c6.9-54.7-20.9-64-46.7-64.3
	S528.1,325.7,532.6,375.2L532.6,375.2z"/>
<path style="fill:#3A3938;" d="M623.8,339.8c8.8,19.3-0.3,63.1-6.5,86.1l-9.1-40L623.8,339.8z"/>
<path style="fill:#201E1D;" d="M537.1,337.8c-3.5,12.2-6.6,27.3-9.2,46.4l9.6-20.9L537.1,337.8z"/>
<path style="fill:#006192;" d="M635.5,692.4c3.9-24.3-3.8-52-9.8-60.7l-100.9-0.9c-14.3,22.7-11.5,38.1-9.3,60.7L635.5,692.4z"/>
<linearGradient id="SVGID_24_" gradientUnits="userSpaceOnUse" x1="574.83" y1="576.71" x2="574.83" y2="469.25" gradientTransform="matrix(1 0 0 -1 0 1086)">
	<stop  offset="1.000000e-02" style="stop-color:#268BAA"/>
	<stop  offset="0.42" style="stop-color:#00779B"/>
</linearGradient>
<path style="fill:url(#SVGID_24_);" d="M626.6,632.3c-27-55.1-3.9-121.6,8.1-169.4c-26.7-29-100.4-19.5-119.7,0
	c16.7,57.6,32.2,114.7,8.1,168.5L626.6,632.3z"/>
<path style="fill:#FDD66E;" d="M565.8,985.3c2.9,0,5.2-2.3,5.2-5.2l-22.4-17.5c-34.3,7.3-42.8,16.9-40.7,22.7H565.8z"/>
<path style="fill:#FBB800;" d="M548.7,962.5c-6.8,1.4-13.5,3.2-20,5.4v17.3h37.1c2.9,0,5.2-2.3,5.2-5.2L548.7,962.5z"/>
<path style="fill:#FFFFFF;" d="M509.1,979.5c-1.4,2.1-1.7,4-1.1,5.7h57.9c2.9,0,5.2-2.3,5.2-5.2v-0.5L509.1,979.5z"/>
<linearGradient id="SVGID_25_" gradientUnits="userSpaceOnUse" x1="543.0551" y1="191.57" x2="543.0551" y2="406.85" gradientTransform="matrix(1 0 0 -1 0 1086)">
	<stop  offset="0" style="stop-color:#3381A8"/>
	<stop  offset="0.79" style="stop-color:#006192"/>
</linearGradient>
<path style="fill:url(#SVGID_25_);" d="M571.1,969.3V688.3h-56l33.3,274.1L571.1,969.3L571.1,969.3z"/>
<path style="fill:#66A0BE;" d="M546,945.6l2.3,16.8l22.8,17.8V964L546,945.6L546,945.6z"/>
<path style="fill:#FDD66E;" d="M585.4,985.3c-2.9,0-5.2-2.3-5.2-5.2l22.4-17.5c34.3,7.3,42.8,16.9,40.7,22.7H585.4z"/>
<path style="fill:#FBB800;" d="M602.6,962.5c6.8,1.4,13.5,3.2,20,5.4v17.3h-37.1c-2.9,0-5.2-2.3-5.2-5.2L602.6,962.5z"/>
<path style="fill:#FFFFFF;" d="M642.2,979.5c1.4,2.1,1.7,4,1.1,5.7h-57.9c-2.9,0-5.2-2.3-5.2-5.2v-0.5L642.2,979.5z"/>
<linearGradient id="SVGID_26_" gradientUnits="userSpaceOnUse" x1="608.22" y1="190.26" x2="608.22" y2="405.55" gradientTransform="matrix(1 0 0 -1 0 1086)">
	<stop  offset="0" style="stop-color:#3381A8"/>
	<stop  offset="0.79" style="stop-color:#006192"/>
</linearGradient>
<path style="fill:url(#SVGID_26_);" d="M580.2,969.3V688.3h56L603,962.4L580.2,969.3L580.2,969.3z"/>
<path style="fill:#66A0BE;" d="M605.3,945.6l-2.3,16.8l-22.8,17.8V964L605.3,945.6L605.3,945.6z"/>
<path style="fill:#298CAB;" d="M576.5,488.1c0,0-15.9-33.9-15.8-42L561,410h32l-0.2,36.1C592.7,454.2,576.5,488.1,576.5,488.1
	L576.5,488.1z"/>
<path style="fill:none;stroke:#268BAA;stroke-width:30.42;stroke-linecap:round;stroke-linejoin:round;" d="M624.8,471.4
	c43.8,37.6,89.5,5.7,105.7-32.5"/>
<g>
	<path style="fill:#FFC9B8;" d="M751.2,426.6l-7.3,20l-28.6-10.3l7.3-20c2.8-7.9,11.6-12,19.5-9.2
		C749.9,409.9,754,418.7,751.2,426.6z"/>
	<path style="fill:#FFC9B8;" d="M723.2,413.5l11.5-31.9c0.9-2.5,3.7-3.9,6.3-2.9l0.4,0.1c2.5,0.9,3.9,3.7,2.9,6.3L732.9,417
		c-0.9,2.5-3.7,3.9-6.3,2.9l-0.4-0.1C723.6,418.9,722.3,416.1,723.2,413.5z"/>
</g>
<g>
	<path style="fill:#FFE0D6;" d="M732.7,417.7l7-19.3c0.8-2.1,3.1-3.2,5.2-2.4l2,0.7c2.1,0.8,3.2,3.1,2.4,5.2l-7,19.3
		c-0.8,2.1-3.1,3.2-5.2,2.4l-2-0.7C733,422.2,731.9,419.8,732.7,417.7z"/>
	<path style="fill:#FFE0D6;" d="M757.5,408.7l-8,21.3c-0.8,2.1-3.1,3.2-5.2,2.4l-2-0.7c-2.1-0.8-3.2-3.1-2.4-5.2l7-19.3
		c0.8-2.1,3.1-3.2,5.2-2.4l2,0.7C756.2,406.3,758.3,406.6,757.5,408.7z"/>
</g>
<path style="fill:#FFC9B8;" d="M719.3,423.9l-3.1-21.1c-0.4-2.9,1.6-5.6,4.4-6l0,0c2.9-0.4,5.6,1.6,6,4.4l3.1,21.1
	c0.4,2.9-1.6,5.6-4.4,6l0,0C722.5,428.7,719.8,426.8,719.3,423.9z"/>
<g>
	<path style="fill:#FF9676;" d="M613.5,399.4L613.5,399.4c-2.2-0.6-3.4-2.8-2.9-4.9l3.6-13.4c0.6-2.2,2.8-3.4,4.9-2.9h0
		c2.2,0.6,3.4,2.8,2.9,4.9l-3.6,13.4C617.9,398.7,615.7,400,613.5,399.4z"/>
	<path style="fill:#FF9676;" d="M539.4,378.1L539.4,378.1c2.2-0.6,4.4,0.7,4.9,2.9l3.6,13.4c0.6,2.2-0.7,4.4-2.9,4.9v0
		c-2.2,0.6-4.4-0.7-4.9-2.9l-3.6-13.4C536,380.9,537.3,378.7,539.4,378.1z"/>
</g>
<linearGradient id="SVGID_27_" gradientUnits="userSpaceOnUse" x1="579" y1="722.88" x2="579" y2="627.68" gradientTransform="matrix(1 0 0 -1 0 1086)">
	<stop  offset="0" style="stop-color:#FFD8CA"/>
	<stop  offset="0.97" style="stop-color:#FF9676"/>
</linearGradient>
<path style="fill:url(#SVGID_27_);" d="M543,373.6c0,31.8,16.1,57.6,36,57.6s36-25.8,36-57.6s-16.1-46.2-36-46.2
	S543,341.8,543,373.6z"/>
<path style="fill:#A81B5B;" d="M572.4,375.6c4.6-2.3,9.7-2.1,15.3,0c1.2,0,2.1-1,2.1-2.1c0-1.2-1-2.1-2.1-2.1
	c-5.5-2-10.7-2.2-15.3,0c-1.2,0-2.1,1-2.1,2.1C570.3,374.7,571.2,375.6,572.4,375.6z"/>
<g>
	<circle style="fill:#A9DFF9;stroke:#A81B5B;stroke-width:3.26;" cx="600.2" cy="375.6" r="16.6"/>
	<circle style="fill:#A9DFF9;stroke:#A81B5B;stroke-width:3.26;" cx="558.7" cy="375.6" r="16.6"/>
</g>
<path style="fill:#86283C;" d="M561.9,405v0.3c0,6.6,7.6,11.9,17,11.9s17-5.3,17-11.9V405H561.9z"/>
<linearGradient id="SVGID_28_" gradientUnits="userSpaceOnUse" x1="569.9399" y1="671.2278" x2="591.1299" y2="671.2278" gradientTransform="matrix(1 0 0 -1 0 1086)">
	<stop  offset="0" style="stop-color:#FB3847"/>
	<stop  offset="1" style="stop-color:#86283C"/>
</linearGradient>
<path style="fill:url(#SVGID_28_);" d="M581.2,412.5c-3,0.3-5.9,0.9-8.7,1.9c-0.9,0.3-1.7,0.6-2.5,1c2.8,1.2,5.9,1.8,9,1.8
	c4.3,0.1,8.6-1.2,12.2-3.6C587.9,412.5,584.5,412.1,581.2,412.5z"/>
<g>
	<g>
		<path id="e" style="fill:#006192;" d="M590.4,378.4c-0.1-0.4-0.2-0.8-0.2-1.2c0-2.8,2.7-5.1,6.1-5.1s6.1,2.3,6.1,5.1
			c0,0.4-0.1,0.8-0.2,1.2H590.4z"/>
	</g>
	<g>
		<path id="e_1_" style="fill:#006192;" d="M556.5,378.4c-0.1-0.4-0.2-0.8-0.2-1.2c0-2.8,2.7-5.1,6.1-5.1s6.1,2.3,6.1,5.1
			c0,0.4-0.1,0.8-0.2,1.2H556.5z"/>
	</g>
</g>
<path style="fill:#201E1D;" d="M581.2,305.2c3.9,4.4-3,17.2-15.4,28.6s-25,18.2-28.9,13.8s1.7-19.5,14.1-30.9
	S577.3,300.8,581.2,305.2L581.2,305.2z"/>
<path style="fill:#3A3938;" d="M568,305.3c11.7-7.8,35.1,0.5,47.3,17s12.6,36.2,0.9,44c-23-0.4-40.7-28.9-40.7-28.9l5.2,21.5
	c-2.9-2.5-5.5-5.4-7.8-8.5C560.7,334,556.3,313.1,568,305.3L568,305.3z"/>
<path style="opacity:0.4;fill:#F9DABB;enable-background:new    ;" d="M572.2,43.1l-116.7,75.2H980L749.2,41.6
	C749.2,41.6,572.2,43.1,572.2,43.1z"/>
<path style="fill:#EAEAEA;" d="M605.9,0h135.4c20.9,0,37.9,17,37.9,37.9c0,0,0,0,0,0v17.8l0,0H568l0,0V37.9C568,17,584.9,0,605.9,0z
	"/>
</svg>
