<svg enable-background="new 0 0 315.1 40.1" viewBox="0 0 315.1 40.1" xmlns="http://www.w3.org/2000/svg"><g><g fill="#126dc4"><path d="m18.8 33.1c0 .4-.3.7-.7.7h-3.3c-.4 0-.7-.3-.7-.7v-10.1h-9.4v10.1c0 .4-.3.7-.7.7h-3.3c-.4 0-.7-.3-.7-.7v-23.2c0-.4.3-.6.7-.6h3.3c.4 0 .7.3.7.6v9.1h9.6v-9.1c0-.4.3-.6.7-.6h3.3c.4 0 .7.3.7.6v23.2zm22.1-16.2c0 5.8-4.4 7.7-9.5 7.7-.9 0-2.2-.1-2.9-.1v8.6c0 .4-.3.7-.6.7h-3.3c-.4 0-.7-.3-.7-.7v-22.7c0-.7.4-.9 1.1-1 1.7-.3 4.1-.4 6.5-.4 5.1 0 9.5 1.8 9.5 7.6zm-4.6 0v-.3c0-2.8-1.7-3.8-5-3.8-.7 0-2.3.1-2.9.1v7.9c.5 0 2.4.1 2.9.1 3.6 0 5-1.3 5-4zm13 16.2c0 .4-.3.7-.7.7h-3.3c-.4 0-.7-.3-.7-.7v-23.2c0-.4.3-.6.7-.6h3.3c.4 0 .7.3.7.6z"/><path d="m162.8 27.4c0 3.2-1.6 6.6-8.2 6.6-2.3 0-4-.2-5.5-.5-.6-.1-.6-.2-.6-.6v-1.3c0-.4.3-.5.6-.5h.1c1.5.1 3.9.2 5.4.2 4 0 5-1.6 5-3.9 0-1.6-1-2.6-4-4.4l-3.2-1.9c-3-1.8-4.6-3.5-4.6-6.2 0-4 2.9-5.8 7.9-5.8 1.9 0 4.5.2 5.7.4.3.1.6.2.6.6v1.4c0 .3-.2.5-.6.5h-.1c-1.9-.1-3.8-.2-5.7-.2-3.4 0-4.9.7-4.9 3.1 0 1.6 1.1 2.5 3.6 4l3 1.8c4.1 2.3 5.5 4.1 5.5 6.7zm15.5 5.6c0 .4-.1.6-.7.7-1.4.2-2.7.4-4.1.4-4.5 0-7-3.2-7-8v-2.6c0-4.9 2.5-8 7-8 1.5 0 3 .2 4.1.4.5.1.7.3.7.7v1.2c0 .3-.3.5-.6.5h-.1c-1.4-.2-2.7-.2-4.1-.2-2.6 0-4.1 1.7-4.1 5.5v2.4c0 3.7 1.5 5.5 4.1 5.5 1.6 0 2.6-.1 4.1-.2h.1c.3 0 .6.2.6.5zm17.6.2c0 .4-.3.7-.7.7h-1.6c-.4 0-.7-.3-.7-.7v-10.9c0-3.3-1.4-4.3-3.5-4.3-1 0-3.1.3-4.6.9v14.3c0 .3-.3.7-.7.7h-1.6c-.3 0-.6-.3-.6-.7v-23.5c0-.4.3-.7.6-.7h1.6c.4 0 .6.3.6.7v6.8c1.6-.7 3.6-1 5-1 3.5 0 5.9 2 5.9 6.9zm18.4 0c0 .4-.3.7-.6.7h-1.6c-.4 0-.6-.3-.6-.7v-.6c-1.8 1-3.3 1.5-5.2 1.5-4 0-5.7-2.5-5.7-6.9v-10.9c0-.4.3-.7.7-.7h1.6c.4 0 .7.3.7.7v10.9c0 3.3 1.1 4.4 3.6 4.4 1.4 0 2.9-.5 4.5-1.3v-14c0-.3.3-.7.7-.7h1.6c.3 0 .6.3.6.7zm7.8 0c0 .3-.2.7-.6.7h-1.7c-.3 0-.6-.3-.6-.7v-23.6c0-.3.2-.6.6-.6h1.7c.3 0 .6.3.6.6zm12.2-8.4c0 .3-.3.6-.6.6h-6.6c-.4 0-.6-.2-.6-.6v-1.3c0-.3.3-.6.6-.6h6.6c.4 0 .6.2.6.6zm19 8.2c0 .4-.3.6-.7.7-1.4.3-2.7.4-5.5.4-4.1 0-8.7-2.2-8.7-10.2v-4.6c0-8.1 4.7-10.2 8.7-10.2 2.1 0 4.1.3 5.5.5.3 0 .5.1.5.4v1.7c0 .2-.1.4-.4.4h-.1c-1.2-.1-3.6-.3-5.5-.3-3.2 0-5.7 1.9-5.7 7.5v4.6c0 5.5 2.5 7.5 5.7 7.5 1.9 0 4.3-.2 5.4-.3h.1c.4 0 .5.2.5.5zm6.9.2c0 .3-.2.7-.6.7h-1.7c-.3 0-.6-.3-.6-.7v-23.6c0-.3.2-.6.6-.6h1.7c.3 0 .6.3.6.6zm18.9-7.2c0 4.9-2.5 8.1-7.4 8.1s-7.3-3.2-7.3-8.1v-2.5c0-4.9 2.5-8.1 7.3-8.1 4.9 0 7.4 3.2 7.4 8.1zm-2.9 0v-2.5c0-3.4-1.4-5.5-4.5-5.5s-4.4 2.1-4.4 5.5v2.5c0 3.4 1.3 5.5 4.4 5.5s4.5-2.1 4.5-5.5zm20.8 7.2c0 .4-.3.7-.6.7h-1.6c-.4 0-.6-.3-.6-.7v-.6c-1.8 1-3.3 1.5-5.2 1.5-4 0-5.7-2.5-5.7-6.9v-10.9c0-.4.3-.7.7-.7h1.6c.4 0 .7.3.7.7v10.9c0 3.3 1.1 4.4 3.6 4.4 1.4 0 2.9-.5 4.5-1.3v-14c0-.3.3-.7.7-.7h1.6c.3 0 .6.3.6.7v16.9zm18.1-.5c0 .4-.1.7-.7.8-2 .4-4 .6-6.1.6-4.9 0-7.2-3.2-7.2-8.2v-2.4c0-5.2 2.4-8.1 7.2-8.1 1 0 2.6.1 3.9.3v-6.1c0-.3.3-.6.6-.6h1.7c.3 0 .6.3.6.6zm-2.9-1.4v-13.1c-1.1-.2-2.8-.2-3.9-.2-3.2 0-4.3 2-4.3 5.5v2.4c0 3.6 1 5.6 4.3 5.6 1.2 0 2.8-.1 3.9-.2z"/></g><g transform="translate(71 10)"><path clip-rule="evenodd" d="m39.5-10c-.2 0-.4 0-.6 0-8.6.3-17.1 5.3-18.4 13.4-8.4-3.3-16.2 1.1-16.2 8.6-15.3-3-19.4 10.6-13.4 15.1 4.2 3.6 9.6 2.9 16.5 2.9h45.5c8.5 0 15.4-5.7 15.4-12.8 0-3.5-1.8-6.8-4.7-9.1l-9 8.9c-.2.2-.7.6-1.1.6l-10.1 4.1c-.2.1-.5.2-.7.1-1.2 1.1-3.9 2.2-4.6 2.3-2.7.4-4.3-1.3-6.1-3.1-1.1-1.2-2.3-2.4-3.7-2.9-.4-.2-.9-.3-1.3-.3-1.9 0-3.5 1.6-4.9 3.1-.5.6-1.1 1.1-1.6 1.5-1.5 1.2-3 1.8-4.5 1.7-1.7-.1-2.9-1.3-3.9-2.3l-.2-.2c-1.1-1.2-2.3-2.5-4.1-1.8-.9.3-1.7 1-2.2 1.5-.1.1-.3.3-.4.4-.3.4-.6.7-1.1.9-.3.1-.7.1-1 0-.2-.1-.4-.4-.4-.6-.1-.6.4-.9.8-1.3.1-.1.1-.1.2-.2l.4-.3c1-.9 2.1-1.8 3.5-2.2 1.9-.5 3.5.4 4.5 1.3.3.3.6.6 1 1 .9 1 1.8 2 3.1 2.1 1.9.2 3.5-1.4 4.6-2.6l.1-.1c1.3-1.3 2.5-2.5 4.2-3.2 1.6-.6 3.4-.4 5 .6 1 .6 1.9 1.5 2.7 2.3.5.5 1 1.1 1.6 1.6 1.7 1.5 3.3 1.7 5.1.8.2-.1.5-.3.8-.6.3-.2.6-.5.9-.7-.1-.3 0-.6.1-.9l4.1-10c.1-.4.4-.8.6-1.1l9.8-9.8c-3.4-6-9.7-8.7-16-8.7zm9.3 19.3c-.5.5-1.2.8-2 .7l-1.8 5.2 2.8 2.8 5.2-1.8c-.1-.7.2-1.5.7-2l7.7-7.7c-.6-.3-1.2-.6-1.9-.9l-7.2 7.2c-.5.5-1.1.8-1.7 1-.5.1-.9 0-1.2-.3-.4-.5-.1-1.7.9-2.7l7.5-7.5c-.2-.7-.4-1.5-.7-2.2z" fill="#126dc4" fill-rule="evenodd"/></g></g></svg>
