<svg viewBox="0 0 334.79 74.11" xmlns="http://www.w3.org/2000/svg"><g fill="#78aae5"><ellipse cx="68.2" cy="10.83" rx=".69" ry=".72"/><ellipse cx="70.28" cy="10.83" rx=".69" ry=".72"/><ellipse cx="72.24" cy="13.25" rx=".69" ry=".72"/><ellipse cx="74.32" cy="13.25" rx=".69" ry=".72"/><ellipse cx="76.39" cy="13.25" rx=".69" ry=".72"/><ellipse cx="68.09" cy="13.25" rx=".69" ry=".72"/><ellipse cx="70.17" cy="13.25" rx=".69" ry=".72"/><ellipse cx="72.24" cy="15.4" rx=".69" ry=".72"/><ellipse cx="74.32" cy="15.4" rx=".69" ry=".72"/><ellipse cx="76.39" cy="15.4" rx=".69" ry=".72"/><ellipse cx="78.47" cy="15.4" rx=".69" ry=".72"/><ellipse cx="66.02" cy="15.4" rx=".69" ry=".72"/><ellipse cx="68.09" cy="15.4" rx=".69" ry=".72"/><ellipse cx="70.17" cy="15.4" rx=".69" ry=".72"/><ellipse cx="72.24" cy="17.55" rx=".69" ry=".72"/><ellipse cx="74.32" cy="17.55" rx=".69" ry=".72"/><ellipse cx="76.39" cy="17.55" rx=".69" ry=".72"/><ellipse cx="78.47" cy="17.55" rx=".69" ry=".72"/><ellipse cx="80.54" cy="17.55" rx=".69" ry=".72"/><ellipse cx="63.94" cy="17.55" rx=".69" ry=".72"/><ellipse cx="66.02" cy="17.55" rx=".69" ry=".72"/><ellipse cx="68.09" cy="17.55" rx=".69" ry=".72"/><ellipse cx="70.17" cy="17.55" rx=".69" ry=".72"/><ellipse cx="72.24" cy="19.7" rx=".69" ry=".72"/><ellipse cx="74.32" cy="19.7" rx=".69" ry=".72"/><ellipse cx="76.39" cy="19.7" rx=".69" ry=".72"/><ellipse cx="78.47" cy="19.7" rx=".69" ry=".72"/><ellipse cx="80.54" cy="19.7" rx=".69" ry=".72"/><ellipse cx="82.62" cy="19.7" rx=".69" ry=".72"/><ellipse cx="61.87" cy="19.7" rx=".69" ry=".72"/><ellipse cx="63.94" cy="19.7" rx=".69" ry=".72"/><ellipse cx="66.02" cy="19.7" rx=".69" ry=".72"/><ellipse cx="68.09" cy="19.7" rx=".69" ry=".72"/><ellipse cx="70.17" cy="19.7" rx=".69" ry=".72"/><ellipse cx="72.24" cy="21.85" rx=".69" ry=".72"/><ellipse cx="74.32" cy="21.85" rx=".69" ry=".72"/><ellipse cx="76.39" cy="21.85" rx=".69" ry=".72"/><ellipse cx="78.47" cy="21.85" rx=".69" ry=".72"/><ellipse cx="80.54" cy="21.85" rx=".69" ry=".72"/><ellipse cx="82.62" cy="21.85" rx=".69" ry=".72"/><ellipse cx="59.79" cy="21.85" rx=".69" ry=".72"/><ellipse cx="61.87" cy="21.85" rx=".69" ry=".72"/><ellipse cx="63.94" cy="21.85" rx=".69" ry=".72"/><ellipse cx="66.02" cy="21.85" rx=".69" ry=".72"/><ellipse cx="68.09" cy="21.85" rx=".69" ry=".72"/><ellipse cx="70.17" cy="21.85" rx=".69" ry=".72"/><ellipse cx="84.69" cy="21.85" rx=".69" ry=".72"/><ellipse cx="72.24" cy="24" rx=".69" ry=".72"/><ellipse cx="74.32" cy="24" rx=".69" ry=".72"/><ellipse cx="76.39" cy="24" rx=".69" ry=".72"/><ellipse cx="78.47" cy="24" rx=".69" ry=".72"/><ellipse cx="80.54" cy="24" rx=".69" ry=".72"/><ellipse cx="82.62" cy="24" rx=".69" ry=".72"/><ellipse cx="61.87" cy="24" rx=".69" ry=".72"/><ellipse cx="63.94" cy="24" rx=".69" ry=".72"/><ellipse cx="84.69" cy="24" rx=".69" ry=".72"/><ellipse cx="72.24" cy="26.15" rx=".69" ry=".72"/><ellipse cx="74.32" cy="26.15" rx=".69" ry=".72"/><ellipse cx="76.39" cy="26.15" rx=".69" ry=".72"/><ellipse cx="78.47" cy="26.15" rx=".69" ry=".72"/><ellipse cx="80.54" cy="26.15" rx=".69" ry=".72"/><ellipse cx="82.62" cy="26.15" rx=".69" ry=".72"/><ellipse cx="84.69" cy="26.15" rx=".69" ry=".72"/><ellipse cx="72.24" cy="28.3" rx=".69" ry=".72"/><ellipse cx="74.32" cy="28.3" rx=".69" ry=".72"/><ellipse cx="76.39" cy="28.3" rx=".69" ry=".72"/><ellipse cx="78.47" cy="28.3" rx=".69" ry=".72"/><ellipse cx="80.54" cy="28.3" rx=".69" ry=".72"/><ellipse cx="82.62" cy="28.3" rx=".69" ry=".72"/><ellipse cx="84.69" cy="28.3" rx=".69" ry=".72"/><ellipse cx="86.77" cy="28.3" rx=".69" ry=".72"/><ellipse cx="72.24" cy="30.45" rx=".69" ry=".72"/><ellipse cx="74.32" cy="30.45" rx=".69" ry=".72"/><ellipse cx="76.39" cy="30.45" rx=".69" ry=".72"/><ellipse cx="78.47" cy="30.45" rx=".69" ry=".72"/><ellipse cx="80.54" cy="30.45" rx=".69" ry=".72"/><ellipse cx="82.62" cy="30.45" rx=".69" ry=".72"/><ellipse cx="84.69" cy="30.45" rx=".69" ry=".72"/><ellipse cx="86.77" cy="30.45" rx=".69" ry=".72"/><ellipse cx="72.24" cy="32.6" rx=".69" ry=".72"/><ellipse cx="74.32" cy="32.6" rx=".69" ry=".72"/><ellipse cx="76.39" cy="32.6" rx=".69" ry=".72"/><ellipse cx="78.47" cy="32.6" rx=".69" ry=".72"/><ellipse cx="80.54" cy="32.6" rx=".69" ry=".72"/><ellipse cx="82.62" cy="32.6" rx=".69" ry=".72"/><ellipse cx="84.69" cy="32.6" rx=".69" ry=".72"/><ellipse cx="86.77" cy="32.6" rx=".69" ry=".72"/><ellipse cx="88.84" cy="32.6" rx=".69" ry=".72"/><ellipse cx="72.24" cy="34.75" rx=".69" ry=".72"/><ellipse cx="74.32" cy="34.75" rx=".69" ry=".72"/><ellipse cx="76.39" cy="34.75" rx=".69" ry=".72"/><ellipse cx="78.47" cy="34.75" rx=".69" ry=".72"/><ellipse cx="80.54" cy="34.75" rx=".69" ry=".72"/><ellipse cx="82.62" cy="34.75" rx=".69" ry=".72"/><ellipse cx="70.17" cy="34.75" rx=".69" ry=".72"/><ellipse cx="84.69" cy="34.75" rx=".69" ry=".72"/><ellipse cx="86.77" cy="34.75" rx=".69" ry=".72"/><ellipse cx="88.84" cy="34.75" rx=".69" ry=".72"/><ellipse cx="90.92" cy="34.75" rx=".69" ry=".72"/><ellipse cx="72.24" cy="36.9" rx=".69" ry=".72"/><ellipse cx="74.32" cy="36.9" rx=".69" ry=".72"/><ellipse cx="76.39" cy="36.9" rx=".69" ry=".72"/><ellipse cx="78.47" cy="36.9" rx=".69" ry=".72"/><ellipse cx="80.54" cy="36.9" rx=".69" ry=".72"/><ellipse cx="82.62" cy="36.9" rx=".69" ry=".72"/><ellipse cx="70.17" cy="36.9" rx=".69" ry=".72"/><ellipse cx="84.69" cy="36.9" rx=".69" ry=".72"/><ellipse cx="86.77" cy="36.9" rx=".69" ry=".72"/><ellipse cx="88.84" cy="36.9" rx=".69" ry=".72"/><ellipse cx="90.92" cy="36.9" rx=".69" ry=".72"/><ellipse cx="92.99" cy="36.9" rx=".69" ry=".72"/><ellipse cx="95.07" cy="36.9" rx=".69" ry=".72"/><ellipse cx="72.24" cy="39.05" rx=".69" ry=".72"/><ellipse cx="74.32" cy="39.05" rx=".69" ry=".72"/><ellipse cx="76.39" cy="39.05" rx=".69" ry=".72"/><ellipse cx="78.47" cy="39.05" rx=".69" ry=".72"/><ellipse cx="80.54" cy="39.05" rx=".69" ry=".72"/><ellipse cx="82.62" cy="39.05" rx=".69" ry=".72"/><ellipse cx="66.02" cy="39.05" rx=".69" ry=".72"/><ellipse cx="68.09" cy="39.05" rx=".69" ry=".72"/><ellipse cx="70.17" cy="39.05" rx=".69" ry=".72"/><ellipse cx="97.14" cy="39.05" rx=".69" ry=".72"/><ellipse cx="99.22" cy="39.05" rx=".69" ry=".72"/><ellipse cx="101.29" cy="39.05" rx=".69" ry=".72"/><ellipse cx="84.69" cy="39.05" rx=".69" ry=".72"/><ellipse cx="86.77" cy="39.05" rx=".69" ry=".72"/><ellipse cx="88.84" cy="39.05" rx=".69" ry=".72"/><ellipse cx="90.92" cy="39.05" rx=".69" ry=".72"/><ellipse cx="92.99" cy="39.05" rx=".69" ry=".72"/><ellipse cx="95.07" cy="39.05" rx=".69" ry=".72"/><ellipse cx="72.24" cy="41.2" rx=".69" ry=".72"/><ellipse cx="74.32" cy="41.2" rx=".69" ry=".72"/><ellipse cx="76.39" cy="41.2" rx=".69" ry=".72"/><ellipse cx="78.47" cy="41.2" rx=".69" ry=".72"/><ellipse cx="80.54" cy="41.2" rx=".69" ry=".72"/><ellipse cx="82.62" cy="41.2" rx=".69" ry=".72"/><ellipse cx="63.94" cy="41.2" rx=".69" ry=".72"/><ellipse cx="66.02" cy="41.2" rx=".69" ry=".72"/><ellipse cx="68.09" cy="41.2" rx=".69" ry=".72"/><ellipse cx="70.17" cy="41.2" rx=".69" ry=".72"/><ellipse cx="97.14" cy="41.2" rx=".69" ry=".72"/><ellipse cx="99.22" cy="41.2" rx=".69" ry=".72"/><ellipse cx="101.29" cy="41.2" rx=".69" ry=".72"/><ellipse cx="103.37" cy="41.2" rx=".69" ry=".72"/><ellipse cx="105.44" cy="41.2" rx=".69" ry=".72"/><ellipse cx="84.69" cy="41.2" rx=".69" ry=".72"/><ellipse cx="86.77" cy="41.2" rx=".69" ry=".72"/><ellipse cx="88.84" cy="41.2" rx=".69" ry=".72"/><ellipse cx="90.92" cy="41.2" rx=".69" ry=".72"/><ellipse cx="92.99" cy="41.2" rx=".69" ry=".72"/><ellipse cx="95.07" cy="41.2" rx=".69" ry=".72"/><ellipse cx="72.24" cy="43.35" rx=".69" ry=".72"/><ellipse cx="74.32" cy="43.35" rx=".69" ry=".72"/><ellipse cx="76.39" cy="43.35" rx=".69" ry=".72"/><ellipse cx="78.47" cy="43.35" rx=".69" ry=".72"/><ellipse cx="80.54" cy="43.35" rx=".69" ry=".72"/><ellipse cx="82.62" cy="43.35" rx=".69" ry=".72"/><ellipse cx="61.87" cy="43.35" rx=".69" ry=".72"/><ellipse cx="63.94" cy="43.35" rx=".69" ry=".72"/><ellipse cx="68.09" cy="43.35" rx=".69" ry=".72"/><ellipse cx="70.17" cy="43.35" rx=".69" ry=".72"/><ellipse cx="97.14" cy="43.35" rx=".69" ry=".72"/><ellipse cx="99.22" cy="43.35" rx=".69" ry=".72"/><ellipse cx="101.29" cy="43.35" rx=".69" ry=".72"/><ellipse cx="103.37" cy="43.35" rx=".69" ry=".72"/><ellipse cx="105.44" cy="43.35" rx=".69" ry=".72"/><ellipse cx="107.52" cy="43.35" rx=".69" ry=".72"/><ellipse cx="84.69" cy="43.35" rx=".69" ry=".72"/><ellipse cx="86.77" cy="43.35" rx=".69" ry=".72"/><ellipse cx="88.84" cy="43.35" rx=".69" ry=".72"/><ellipse cx="90.92" cy="43.35" rx=".69" ry=".72"/><ellipse cx="92.99" cy="43.35" rx=".69" ry=".72"/><ellipse cx="95.07" cy="43.35" rx=".69" ry=".72"/><ellipse cx="72.24" cy="45.5" rx=".69" ry=".72"/><ellipse cx="76.39" cy="45.5" rx=".69" ry=".72"/><ellipse cx="78.47" cy="45.5" rx=".69" ry=".72"/><ellipse cx="80.54" cy="45.5" rx=".69" ry=".72"/><ellipse cx="82.62" cy="45.5" rx=".69" ry=".72"/><ellipse cx="61.87" cy="45.5" rx=".69" ry=".72"/><ellipse cx="63.94" cy="45.5" rx=".69" ry=".72"/><ellipse cx="68.09" cy="45.5" rx=".69" ry=".72"/><ellipse cx="70.17" cy="45.5" rx=".69" ry=".72"/><ellipse cx="97.14" cy="45.5" rx=".69" ry=".72"/><ellipse cx="99.22" cy="45.5" rx=".69" ry=".72"/><ellipse cx="101.29" cy="45.5" rx=".69" ry=".72"/><ellipse cx="103.37" cy="45.5" rx=".69" ry=".72"/><ellipse cx="105.44" cy="45.5" rx=".69" ry=".72"/><ellipse cx="107.52" cy="45.5" rx=".69" ry=".72"/><ellipse cx="84.69" cy="45.5" rx=".69" ry=".72"/><ellipse cx="86.77" cy="45.5" rx=".69" ry=".72"/><ellipse cx="88.84" cy="45.5" rx=".69" ry=".72"/><ellipse cx="90.92" cy="45.5" rx=".69" ry=".72"/><ellipse cx="92.99" cy="45.5" rx=".69" ry=".72"/><ellipse cx="95.07" cy="45.5" rx=".69" ry=".72"/><ellipse cx="82.62" cy="47.65" rx=".69" ry=".72"/><ellipse cx="63.94" cy="47.65" rx=".69" ry=".72"/><ellipse cx="66.02" cy="47.65" rx=".69" ry=".72"/><ellipse cx="68.09" cy="47.65" rx=".69" ry=".72"/><ellipse cx="97.14" cy="47.65" rx=".69" ry=".72"/><ellipse cx="99.22" cy="47.65" rx=".69" ry=".72"/><ellipse cx="101.29" cy="47.65" rx=".69" ry=".72"/><ellipse cx="103.37" cy="47.65" rx=".69" ry=".72"/><ellipse cx="105.44" cy="47.65" rx=".69" ry=".72"/><ellipse cx="107.52" cy="47.65" rx=".69" ry=".72"/><ellipse cx="84.69" cy="47.65" rx=".69" ry=".72"/><ellipse cx="86.77" cy="47.65" rx=".69" ry=".72"/><ellipse cx="88.84" cy="47.65" rx=".69" ry=".72"/><ellipse cx="90.92" cy="47.65" rx=".69" ry=".72"/><ellipse cx="92.99" cy="47.65" rx=".69" ry=".72"/><ellipse cx="95.07" cy="47.65" rx=".69" ry=".72"/><ellipse cx="66.02" cy="49.8" rx=".69" ry=".72"/><ellipse cx="68.09" cy="49.8" rx=".69" ry=".72"/><ellipse cx="97.14" cy="49.8" rx=".69" ry=".72"/><ellipse cx="99.22" cy="49.8" rx=".69" ry=".72"/><ellipse cx="101.29" cy="49.8" rx=".69" ry=".72"/><ellipse cx="103.37" cy="49.8" rx=".69" ry=".72"/><ellipse cx="105.44" cy="49.8" rx=".69" ry=".72"/><ellipse cx="107.52" cy="49.8" rx=".69" ry=".72"/><ellipse cx="90.92" cy="49.8" rx=".69" ry=".72"/><ellipse cx="92.99" cy="49.8" rx=".69" ry=".72"/><ellipse cx="95.07" cy="49.8" rx=".69" ry=".72"/><ellipse cx="66.02" cy="51.95" rx=".69" ry=".72"/><ellipse cx="68.09" cy="51.95" rx=".69" ry=".72"/><ellipse cx="70.17" cy="51.95" rx=".69" ry=".72"/><ellipse cx="97.14" cy="51.95" rx=".69" ry=".72"/><ellipse cx="99.22" cy="51.95" rx=".69" ry=".72"/><ellipse cx="101.29" cy="51.95" rx=".69" ry=".72"/><ellipse cx="103.37" cy="51.95" rx=".69" ry=".72"/><ellipse cx="105.44" cy="51.95" rx=".69" ry=".72"/><ellipse cx="107.52" cy="51.95" rx=".69" ry=".72"/><ellipse cx="95.07" cy="51.95" rx=".69" ry=".72"/><ellipse cx="72.24" cy="54.1" rx=".69" ry=".72"/><ellipse cx="70.17" cy="54.1" rx=".69" ry=".72"/><ellipse cx="97.14" cy="54.1" rx=".69" ry=".72"/><ellipse cx="99.22" cy="54.1" rx=".69" ry=".72"/><ellipse cx="101.29" cy="54.1" rx=".69" ry=".72"/><ellipse cx="103.37" cy="54.1" rx=".69" ry=".72"/><ellipse cx="105.44" cy="54.1" rx=".69" ry=".72"/><ellipse cx="95.07" cy="54.1" rx=".69" ry=".72"/><ellipse cx="97.14" cy="56.25" rx=".69" ry=".72"/><ellipse cx="99.22" cy="56.25" rx=".69" ry=".72"/><ellipse cx="101.29" cy="56.25" rx=".69" ry=".72"/><ellipse cx="103.37" cy="56.25" rx=".69" ry=".72"/><ellipse cx="105.44" cy="56.25" rx=".69" ry=".72"/><ellipse cx="99.22" cy="58.4" rx=".69" ry=".72"/><ellipse cx="101.29" cy="58.4" rx=".69" ry=".72"/><ellipse cx="103.37" cy="58.4" rx=".69" ry=".72"/><ellipse cx="105.44" cy="58.4" rx=".69" ry=".72"/><ellipse cx="107.52" cy="58.4" rx=".69" ry=".72"/><ellipse cx="99.22" cy="60.55" rx=".69" ry=".72"/><ellipse cx="101.29" cy="60.55" rx=".69" ry=".72"/><ellipse cx="105.44" cy="60.55" rx=".69" ry=".72"/><ellipse cx="107.52" cy="60.55" rx=".69" ry=".72"/><ellipse cx="109.45" cy="43.35" rx=".69" ry=".72"/><ellipse cx="111.53" cy="43.35" rx=".69" ry=".72"/><ellipse cx="111.53" cy="45.5" rx=".69" ry=".72"/><ellipse cx="113.6" cy="45.5" rx=".69" ry=".72"/><ellipse cx="111.53" cy="47.65" rx=".69" ry=".72"/><ellipse cx="113.6" cy="47.65" rx=".69" ry=".72"/><ellipse cx="111.53" cy="49.8" rx=".69" ry=".72"/><ellipse cx="113.6" cy="49.8" rx=".69" ry=".72"/><ellipse cx="115.68" cy="49.8" rx=".69" ry=".72"/><ellipse cx="111.53" cy="51.95" rx=".69" ry=".72"/><ellipse cx="113.6" cy="51.95" rx=".69" ry=".72"/><ellipse cx="115.68" cy="51.95" rx=".69" ry=".72"/><ellipse cx="111.53" cy="54.1" rx=".69" ry=".72"/><ellipse cx="113.6" cy="54.1" rx=".69" ry=".72"/><ellipse cx="115.68" cy="54.1" rx=".69" ry=".72"/><ellipse cx="117.75" cy="54.1" rx=".69" ry=".72"/><ellipse cx="113.6" cy="56.25" rx=".69" ry=".72"/><ellipse cx="115.68" cy="56.25" rx=".69" ry=".72"/><ellipse cx="117.75" cy="56.25" rx=".69" ry=".72"/><ellipse cx="115.68" cy="58.4" rx=".69" ry=".72"/><ellipse cx="117.75" cy="58.4" rx=".69" ry=".72"/><ellipse cx="119.83" cy="58.4" rx=".69" ry=".72"/><ellipse cx="117.75" cy="60.55" rx=".69" ry=".72"/><ellipse cx="99.22" cy="62.7" rx=".69" ry=".72"/><ellipse cx="101.29" cy="62.7" rx=".69" ry=".72"/><ellipse cx="105.44" cy="62.7" rx=".69" ry=".72"/><ellipse cx="107.52" cy="62.7" rx=".69" ry=".72"/><ellipse cx="97.14" cy="64.85" rx=".69" ry=".72"/><ellipse cx="99.22" cy="64.85" rx=".69" ry=".72"/><ellipse cx="105.44" cy="64.85" rx=".69" ry=".72"/><ellipse cx="107.52" cy="64.85" rx=".69" ry=".72"/><ellipse cx="97.14" cy="66.99" rx=".69" ry=".72"/><ellipse cx="105.44" cy="66.99" rx=".69" ry=".72"/><ellipse cx="107.52" cy="66.99" rx=".69" ry=".72"/><ellipse cx="95.07" cy="66.99" rx=".69" ry=".72"/><ellipse cx="105.44" cy="69.14" rx=".69" ry=".72"/><ellipse cx="107.52" cy="69.14" rx=".69" ry=".72"/><ellipse cx="92.99" cy="69.14" rx=".69" ry=".72"/><ellipse cx="95.07" cy="69.14" rx=".69" ry=".72"/><ellipse cx="103.37" cy="71.29" rx=".69" ry=".72"/><ellipse cx="105.44" cy="71.29" rx=".69" ry=".72"/><ellipse cx="92.99" cy="71.29" rx=".69" ry=".72"/><ellipse cx="103.37" cy="73.4" rx=".69" ry=".72"/><ellipse cx="105.44" cy="73.4" rx=".69" ry=".72"/><ellipse cx="90.92" cy="73.4" rx=".69" ry=".72"/><ellipse cx="92.99" cy="73.4" rx=".69" ry=".72"/><ellipse cx="95.07" cy="71.29" rx=".69" ry=".72"/></g><path d="m123.47 34.82a.87.87 0 0 1 -.64.27h-2a1 1 0 0 1 -1-.51l-9.73-18.49q-.03-.09-.1-.09s0 0 0 .09v18.4a.61.61 0 0 1 -.16.42.52.52 0 0 1 -.41.18h-1.63a1.16 1.16 0 0 1 -.41-.07c-.1 0-.16-.14-.16-.31v-22.15a.83.83 0 0 1 .27-.63 1 1 0 0 1 .65-.25h1.73a1.89 1.89 0 0 1 .88.14 1.29 1.29 0 0 1 .41.49l9.67 18.4.06.09s0 0 0-.09v-18.43a.64.64 0 0 1 .15-.43.55.55 0 0 1 .41-.17h1.67a.53.53 0 0 1 .41.17.6.6 0 0 1 .16.43v21.89a.89.89 0 0 1 -.23.65z"/><path d="m131 14.36a.59.59 0 0 1 -.19.44.58.58 0 0 1 -.44.19h-1.6a.58.58 0 0 1 -.44-.19.59.59 0 0 1 -.19-.44v-2.52a.65.65 0 0 1 .63-.63h1.6a.65.65 0 0 1 .63.63zm-.06 20.1a.61.61 0 0 1 -.19.44.63.63 0 0 1 -.44.19h-1.51a.61.61 0 0 1 -.44-.19.61.61 0 0 1 -.19-.44v-16.07a.59.59 0 0 1 .19-.44.58.58 0 0 1 .44-.19h1.51a.65.65 0 0 1 .63.63z"/><path d="m148.34 26.61c0 .46-.2.7-.6.7h-10.55v.44a5.7 5.7 0 0 0 1.1 4 4.31 4.31 0 0 0 3.28 1.17q1.38 0 2.94-.09c1-.07 1.93-.15 2.66-.26h.16a.71.71 0 0 1 .35.1.38.38 0 0 1 .16.35v1.07a.81.81 0 0 1 -.13.48.71.71 0 0 1 -.5.24c-.91.17-1.8.3-2.7.39a26.46 26.46 0 0 1 -2.94.15 9.8 9.8 0 0 1 -2.65-.37 5.86 5.86 0 0 1 -2.28-1.22 6.28 6.28 0 0 1 -1.64-2.36 9.4 9.4 0 0 1 -.61-3.65v-2.84a7.78 7.78 0 0 1 1.79-5.39 6.67 6.67 0 0 1 5.2-2 8 8 0 0 1 3 .52 5.74 5.74 0 0 1 2.16 1.48 6.25 6.25 0 0 1 1.31 2.33 10 10 0 0 1 .44 3zm-2.8-1.7a5.62 5.62 0 0 0 -1-3.81 3.94 3.94 0 0 0 -3.1-1.13 4 4 0 0 0 -3.13 1.19 5.44 5.44 0 0 0 -1.09 3.75v.28h8.35z"/><path d="m164.31 34.05a.9.9 0 0 1 -.11.48c-.07.12-.26.2-.55.24a27.87 27.87 0 0 1 -2.91.41c-1 .08-1.92.13-2.89.13a7.69 7.69 0 0 1 -3-.56 5.53 5.53 0 0 1 -2.14-1.55 6.52 6.52 0 0 1 -1.26-2.46 11.56 11.56 0 0 1 -.41-3.21v-2.27a8.55 8.55 0 0 1 1.7-5.72 6.4 6.4 0 0 1 5.16-2c.49 0 1.07 0 1.75.08s1.33.13 1.94.23v-5.85a.58.58 0 0 1 .6-.6h1.6a.53.53 0 0 1 .41.17.6.6 0 0 1 .16.43zm-2.77-13.86a10.78 10.78 0 0 0 -1.86-.19h-1.83a4.9 4.9 0 0 0 -1.95.34 3 3 0 0 0 -1.26 1 4.54 4.54 0 0 0 -.64 1.66 11.69 11.69 0 0 0 -.2 2.25v2.27a7.36 7.36 0 0 0 .88 4 3.5 3.5 0 0 0 3.21 1.39c.55 0 1.16 0 1.85-.06l1.84-.13z"/><path d="m181.38 26.61c0 .46-.2.7-.6.7h-10.55v.44a5.7 5.7 0 0 0 1.1 4 4.31 4.31 0 0 0 3.28 1.17c.92 0 1.91 0 2.95-.09s1.92-.15 2.66-.26h.16a.67.67 0 0 1 .34.1.36.36 0 0 1 .16.35v1.07a.74.74 0 0 1 -.13.48.71.71 0 0 1 -.5.24c-.9.17-1.8.3-2.69.39a26.78 26.78 0 0 1 -2.95.15 9.91 9.91 0 0 1 -2.65-.37 5.86 5.86 0 0 1 -2.28-1.22 6.28 6.28 0 0 1 -1.61-2.32 9.4 9.4 0 0 1 -.61-3.65v-2.88a7.73 7.73 0 0 1 1.8-5.39 6.64 6.64 0 0 1 5.19-2 8 8 0 0 1 3 .52 5.82 5.82 0 0 1 2.16 1.48 6.38 6.38 0 0 1 1.3 2.33 9.71 9.71 0 0 1 .44 3zm-2.8-1.7a5.68 5.68 0 0 0 -1-3.81 4.78 4.78 0 0 0 -6.24.06 5.44 5.44 0 0 0 -1.09 3.75v.28h8.35z"/><path d="m191.71 19.93a7.49 7.49 0 0 0 -2.12.3 9.39 9.39 0 0 0 -2.22 1v13.2a.65.65 0 0 1 -.19.44.63.63 0 0 1 -.44.19h-1.55a.57.57 0 0 1 -.42-.19.63.63 0 0 1 -.17-.44v-16.04a.61.61 0 0 1 .17-.44.54.54 0 0 1 .42-.19h1.48a.56.56 0 0 1 .43.19.61.61 0 0 1 .17.44v.66a9 9 0 0 1 2.29-1.16 7.06 7.06 0 0 1 2.15-.35c.45 0 .67.19.67.57v1.29c0 .36-.22.53-.67.53z"/><path d="m205.76 30.74a4.67 4.67 0 0 1 -.42 2.06 3.67 3.67 0 0 1 -1.2 1.42 5.28 5.28 0 0 1 -1.86.82 9.93 9.93 0 0 1 -2.41.27h-1.05c-.41 0-.84 0-1.29-.08l-1.37-.14a7.06 7.06 0 0 1 -1.26-.24q-.66-.15-.66-.63v-1.12a.44.44 0 0 1 .15-.35.66.66 0 0 1 .41-.12h.13l1.24.12c.45 0 .91.08 1.37.11s.89.06 1.29.08.75 0 1 0a4.53 4.53 0 0 0 2.33-.48 1.86 1.86 0 0 0 .79-1.76 1.81 1.81 0 0 0 -.5-1.26 9.69 9.69 0 0 0 -1.86-1.36l-3.18-1.89a9 9 0 0 1 -2.33-1.93 3.87 3.87 0 0 1 -.88-2.57 4.1 4.1 0 0 1 .44-2 3.44 3.44 0 0 1 1.19-1.29 4.79 4.79 0 0 1 1.8-.68 12.33 12.33 0 0 1 2.27-.19c.88 0 1.73 0 2.56.11s1.61.17 2.35.3q.6.09.6.63v1a.47.47 0 0 1 -.54.53h-.09l-2.15-.1c-.91-.07-1.81-.1-2.69-.1a5.93 5.93 0 0 0 -2.13.32c-.53.21-.8.71-.8 1.51a1.68 1.68 0 0 0 .53 1.24 8.51 8.51 0 0 0 1.64 1.15l3.12 1.88a8.81 8.81 0 0 1 2.7 2.25 4.32 4.32 0 0 1 .76 2.49z"/><path d="m221 34.46a.65.65 0 0 1 -.19.44.63.63 0 0 1 -.44.19h-1.47a.61.61 0 0 1 -.44-.19.61.61 0 0 1 -.19-.44v-.7a14.52 14.52 0 0 1 -2.33 1.1 7.12 7.12 0 0 1 -2.52.45 7.75 7.75 0 0 1 -1.94-.24 4 4 0 0 1 -2.77-2.41 6.06 6.06 0 0 1 -.43-2.46v-.38a5.74 5.74 0 0 1 .4-2.22 3.62 3.62 0 0 1 1.32-1.6 6.28 6.28 0 0 1 2.35-1 17 17 0 0 1 3.55-.32h2.34v-1.22a4 4 0 0 0 -.76-2.77 3.51 3.51 0 0 0 -2.61-.79c-1 0-1.94 0-2.71.08s-1.48.11-2.11.17h-.16a.87.87 0 0 1 -.4-.09.43.43 0 0 1 -.17-.41v-1.1q0-.51.66-.6c.65-.11 1.36-.2 2.13-.28a24.21 24.21 0 0 1 2.76-.13q3.27 0 4.7 1.57a6.21 6.21 0 0 1 1.43 4.35zm-7.5-20.16a.54.54 0 0 1 -.19.42.6.6 0 0 1 -.44.17h-1.23a.61.61 0 0 1 -.44-.17.57.57 0 0 1 -.19-.42v-2.56a.65.65 0 0 1 .19-.44.63.63 0 0 1 .44-.19h1.23a.61.61 0 0 1 .44.19.61.61 0 0 1 .19.44zm4.73 12.41h-2.34a13.05 13.05 0 0 0 -2.36.17 4 4 0 0 0 -1.48.53 1.93 1.93 0 0 0 -.75.95 4 4 0 0 0 -.22 1.43v.38a2.75 2.75 0 0 0 .75 2.28 3.45 3.45 0 0 0 2.17.55 7 7 0 0 0 2.11-.32 11.45 11.45 0 0 0 2.15-.94zm.77-12.41a.54.54 0 0 1 -.19.42.6.6 0 0 1 -.44.17h-1.23a.63.63 0 0 1 -.44-.17.57.57 0 0 1 -.19-.42v-2.56a.65.65 0 0 1 .63-.63h1.23a.61.61 0 0 1 .44.19.61.61 0 0 1 .19.44z"/><path d="m235.28 34.74a.8.8 0 0 1 -.5.22 18.26 18.26 0 0 1 -1.82.25c-.68.06-1.39.1-2.12.1a6.93 6.93 0 0 1 -2.85-.56 5.82 5.82 0 0 1 -2.11-1.54 6.44 6.44 0 0 1 -1.31-2.41 10.66 10.66 0 0 1 -.44-3.15v-2.46a10.75 10.75 0 0 1 .44-3.15 6.72 6.72 0 0 1 1.29-2.41 5.85 5.85 0 0 1 2.14-1.54 7.06 7.06 0 0 1 2.87-.55c.73 0 1.44 0 2.12.09a18 18 0 0 1 1.82.26.87.87 0 0 1 .5.2.78.78 0 0 1 .12.49v1.13a.44.44 0 0 1 -.15.37.68.68 0 0 1 -.38.11h-.13q-1-.14-1.89-.18c-.56 0-1.24 0-2 0a3.54 3.54 0 0 0 -2.92 1.27 6.29 6.29 0 0 0 -1 4v2.46a6.34 6.34 0 0 0 1 4 3.51 3.51 0 0 0 2.93 1.28c.77 0 1.45 0 2-.05s1.2-.09 1.89-.17h.13a.68.68 0 0 1 .38.11.41.41 0 0 1 .15.36v1.14a.78.78 0 0 1 -.16.33z"/><path d="m251.44 34.9a.63.63 0 0 1 -.44.19h-1.51a.65.65 0 0 1 -.45-.19.64.64 0 0 1 -.18-.44v-10.37a4.46 4.46 0 0 0 -.92-3.24 3.38 3.38 0 0 0 -2.45-.88c-.26 0-.56 0-.9 0s-.72.09-1.12.16-.8.17-1.21.28a8.54 8.54 0 0 0 -1.12.4v13.65a.65.65 0 0 1 -.19.44.63.63 0 0 1 -.44.19h-1.51a.57.57 0 0 1 -.42-.19.63.63 0 0 1 -.17-.44v-22.46a.6.6 0 0 1 .17-.44.54.54 0 0 1 .42-.19h1.58a.56.56 0 0 1 .43.19.64.64 0 0 1 .17.44v6.49a10 10 0 0 1 2.47-.74 13.54 13.54 0 0 1 2.35-.24 6.77 6.77 0 0 1 2.3.38 4.66 4.66 0 0 1 1.79 1.16 5.21 5.21 0 0 1 1.17 2 9.59 9.59 0 0 1 .41 3v10.41a.61.61 0 0 1 -.23.44z"/><path d="m266.31 30.74a4.67 4.67 0 0 1 -.43 2.06 3.67 3.67 0 0 1 -1.2 1.42 5.28 5.28 0 0 1 -1.86.82 9.9 9.9 0 0 1 -2.4.27h-1.06c-.41 0-.84 0-1.29-.08l-1.37-.14a7.42 7.42 0 0 1 -1.26-.24q-.66-.15-.66-.63v-1.12a.44.44 0 0 1 .15-.35.69.69 0 0 1 .41-.12h.13l1.24.12c.46 0 .91.08 1.37.11s.9.06 1.3.08.74 0 1 0a4.58 4.58 0 0 0 2.33-.48 1.88 1.88 0 0 0 .78-1.76 1.77 1.77 0 0 0 -.5-1.26 9.69 9.69 0 0 0 -1.86-1.36l-3.13-1.85a9.15 9.15 0 0 1 -2.33-1.93 3.87 3.87 0 0 1 -.88-2.57 4.1 4.1 0 0 1 .44-2 3.44 3.44 0 0 1 1.19-1.29 4.79 4.79 0 0 1 1.8-.68 12.33 12.33 0 0 1 2.27-.19c.88 0 1.74 0 2.57.11s1.61.17 2.34.3q.6.09.6.63v1a.47.47 0 0 1 -.53.53h-.1l-2.2-.14c-.91-.07-1.81-.1-2.69-.1a6 6 0 0 0 -2.13.32c-.53.21-.8.71-.8 1.51a1.68 1.68 0 0 0 .53 1.24 8.51 8.51 0 0 0 1.64 1.15l3.12 1.88a8.69 8.69 0 0 1 2.71 2.27 4.33 4.33 0 0 1 .76 2.47z"/><path d="m272.64 14.36a.63.63 0 0 1 -.19.44.59.59 0 0 1 -.45.2h-1.6a.65.65 0 0 1 -.63-.63v-2.53a.58.58 0 0 1 .19-.44.59.59 0 0 1 .44-.19h1.6a.59.59 0 0 1 .44.19.61.61 0 0 1 .19.44zm-.07 20.1a.64.64 0 0 1 -.18.44.65.65 0 0 1 -.44.19h-1.52a.63.63 0 0 1 -.44-.19.65.65 0 0 1 -.19-.44v-16.07a.63.63 0 0 1 .2-.39.59.59 0 0 1 .44-.19h1.56a.61.61 0 0 1 .44.19.62.62 0 0 1 .18.44z"/><path d="m287.63 30.74a4.67 4.67 0 0 1 -.42 2.06 3.85 3.85 0 0 1 -1.2 1.42 5.45 5.45 0 0 1 -1.86.82 10 10 0 0 1 -2.41.27h-1.05c-.41 0-.84 0-1.3-.08l-1.39-.16a7.42 7.42 0 0 1 -1.26-.24q-.66-.15-.66-.63v-1.1a.42.42 0 0 1 .16-.35.65.65 0 0 1 .41-.12h.12l1.25.12c.45 0 .91.08 1.37.11s.89.06 1.29.08.75 0 1 0a4.53 4.53 0 0 0 2.33-.48 1.86 1.86 0 0 0 .79-1.76 1.81 1.81 0 0 0 -.5-1.26 9.69 9.69 0 0 0 -1.86-1.36l-3.18-1.89a9.21 9.21 0 0 1 -2.26-1.89 3.93 3.93 0 0 1 -.88-2.57 4.21 4.21 0 0 1 .44-2 3.55 3.55 0 0 1 1.2-1.29 4.66 4.66 0 0 1 1.8-.68 12.22 12.22 0 0 1 2.26-.19c.89 0 1.74 0 2.57.11s1.61.17 2.35.3q.6.09.6.63v1a.47.47 0 0 1 -.54.53h-.09l-2.21-.14c-.92-.07-1.81-.1-2.7-.1a5.87 5.87 0 0 0 -2.12.32c-.54.21-.81.71-.81 1.51a1.65 1.65 0 0 0 .54 1.24 8.2 8.2 0 0 0 1.64 1.15l3.12 1.88a8.63 8.63 0 0 1 2.7 2.27 4.26 4.26 0 0 1 .76 2.47z"/><path d="m301.36 34.74a.8.8 0 0 1 -.5.22 18 18 0 0 1 -1.81.25c-.68.06-1.39.1-2.13.1a6.93 6.93 0 0 1 -2.85-.56 5.91 5.91 0 0 1 -2.07-1.54 6.59 6.59 0 0 1 -1.31-2.41 10.66 10.66 0 0 1 -.44-3.15v-2.46a10.75 10.75 0 0 1 .44-3.15 6.89 6.89 0 0 1 1.3-2.41 5.77 5.77 0 0 1 2.11-1.54 7 7 0 0 1 2.86-.55q1.11 0 2.13.09a17.82 17.82 0 0 1 1.81.26.87.87 0 0 1 .5.2.72.72 0 0 1 .13.49v1.13a.42.42 0 0 1 -.16.37.66.66 0 0 1 -.38.11h-.12q-1-.14-1.89-.18c-.57 0-1.24 0-2 0a3.51 3.51 0 0 0 -2.98 1.23 6.29 6.29 0 0 0 -1 4v2.46a6.34 6.34 0 0 0 1 4 3.51 3.51 0 0 0 2.93 1.28c.78 0 1.45 0 2-.05s1.2-.09 1.89-.17h.18a.66.66 0 0 1 .38.11.39.39 0 0 1 .16.36v1.14a.71.71 0 0 1 -.18.37z"/><path d="m317.52 34.9a.61.61 0 0 1 -.44.19h-1.51a.63.63 0 0 1 -.44-.19.61.61 0 0 1 -.19-.44v-10.37a4.47 4.47 0 0 0 -.91-3.24 3.39 3.39 0 0 0 -2.46-.88c-.25 0-.55 0-.9 0s-.72.09-1.12.16-.8.17-1.21.28a9.1 9.1 0 0 0 -1.12.4v13.65a.61.61 0 0 1 -.19.44.61.61 0 0 1 -.44.19h-1.54a.59.59 0 0 1 -.43-.19.67.67 0 0 1 -.17-.44v-22.46a.64.64 0 0 1 .17-.44.56.56 0 0 1 .43-.19h1.57a.56.56 0 0 1 .43.19.64.64 0 0 1 .17.44v6.49a10.09 10.09 0 0 1 2.48-.74 13.44 13.44 0 0 1 2.34-.24 6.72 6.72 0 0 1 2.3.38 4.77 4.77 0 0 1 1.8 1.16 5.33 5.33 0 0 1 1.16 2 9.3 9.3 0 0 1 .41 3v10.41a.61.61 0 0 1 -.19.44z"/><path d="m334.79 26.61c0 .46-.2.7-.6.7h-10.56v.44q0 2.81 1.11 4a4.27 4.27 0 0 0 3.26 1.13c.93 0 1.91 0 2.95-.09s1.93-.15 2.66-.26h.16a.67.67 0 0 1 .34.1.36.36 0 0 1 .16.35v1.07a.81.81 0 0 1 -.12.48.76.76 0 0 1 -.51.24c-.9.17-1.8.3-2.69.39a26.65 26.65 0 0 1 -2.95.15 9.78 9.78 0 0 1 -2.64-.37 5.9 5.9 0 0 1 -2.29-1.22 6.26 6.26 0 0 1 -1.6-2.32 9.39 9.39 0 0 1 -.62-3.65v-2.84a7.73 7.73 0 0 1 1.8-5.39 6.67 6.67 0 0 1 5.2-2 8 8 0 0 1 3 .52 5.82 5.82 0 0 1 2.15 1.5 6.38 6.38 0 0 1 1.3 2.33 9.7 9.7 0 0 1 .45 3zm-2.79-1.7a5.68 5.68 0 0 0 -1-3.81 4 4 0 0 0 -3.1-1.13 4 4 0 0 0 -3.14 1.19 5.49 5.49 0 0 0 -1.09 3.75v.28h8.33z"/><path d="m155.63 60.63a6.54 6.54 0 0 1 -.74 3.27 5.59 5.59 0 0 1 -2 2.05 8.63 8.63 0 0 1 -2.96 1.05 19.83 19.83 0 0 1 -3.5.3c-1.05 0-2 0-2.9-.07a17.46 17.46 0 0 1 -2.24-.22 1.28 1.28 0 0 1 -.78-.31 1.17 1.17 0 0 1 -.25-.85v-21a1 1 0 0 1 1-1.17c.53-.06 1.24-.12 2.13-.17s1.85-.08 2.88-.08a22.25 22.25 0 0 1 3.56.28 9.36 9.36 0 0 1 2.93 1 5.35 5.35 0 0 1 2 1.86 5.46 5.46 0 0 1 .74 3v.43a5.19 5.19 0 0 1 -.88 3 5.3 5.3 0 0 1 -2.49 2 5 5 0 0 1 2.57 1.92 5.47 5.47 0 0 1 .93 3.18zm-3-11.09a3.36 3.36 0 0 0 -.46-1.84 3.14 3.14 0 0 0 -1.29-1.12 6.28 6.28 0 0 0 -2-.55 20.82 20.82 0 0 0 -2.62-.14h-1.64l-1.48.06v7.81h4.86a7.23 7.23 0 0 0 2.26-.3 3.66 3.66 0 0 0 1.43-.82 2.72 2.72 0 0 0 .74-1.19 4.82 4.82 0 0 0 .21-1.44zm.12 10.55a5.06 5.06 0 0 0 -.22-1.51 3.08 3.08 0 0 0 -.77-1.28 4.05 4.05 0 0 0 -1.47-.88 6.79 6.79 0 0 0 -2.3-.33h-4.85v8.66l1.63.08h1.65a16.24 16.24 0 0 0 2.63-.19 5.81 5.81 0 0 0 2-.66 3.25 3.25 0 0 0 1.26-1.29 4.49 4.49 0 0 0 .44-2.11z"/><path d="m162.9 46.36a.59.59 0 0 1 -.19.44.58.58 0 0 1 -.44.19h-1.6a.58.58 0 0 1 -.44-.19.59.59 0 0 1 -.19-.44v-2.52a.65.65 0 0 1 .63-.63h1.6a.65.65 0 0 1 .63.63zm-.06 20.1a.63.63 0 0 1 -.63.62h-1.51a.63.63 0 0 1 -.63-.62v-16.07a.59.59 0 0 1 .19-.44.58.58 0 0 1 .44-.19h1.51a.58.58 0 0 1 .44.19.59.59 0 0 1 .19.44z"/><path d="m170.81 66.9a.52.52 0 0 1 -.41.18h-1.64a.52.52 0 0 1 -.41-.18.71.71 0 0 1 -.15-.44v-22.46a.64.64 0 0 1 .15-.43.55.55 0 0 1 .41-.17h1.64a.55.55 0 0 1 .41.17.6.6 0 0 1 .19.43v22.46a.66.66 0 0 1 -.19.44z"/><path d="m188.7 66.05a.9.9 0 0 1 -.11.48c-.07.12-.26.2-.55.24a27.87 27.87 0 0 1 -2.91.41c-1 .08-1.92.13-2.89.13a7.69 7.69 0 0 1 -3.05-.56 5.53 5.53 0 0 1 -2.14-1.55 6.52 6.52 0 0 1 -1.26-2.46 11.56 11.56 0 0 1 -.41-3.21v-2.27a8.55 8.55 0 0 1 1.7-5.72 6.4 6.4 0 0 1 5.16-2c.49 0 1.07 0 1.75.08s1.33.13 1.94.23v-5.85a.58.58 0 0 1 .6-.6h1.6a.53.53 0 0 1 .41.17.6.6 0 0 1 .16.43zm-2.77-13.86a10.78 10.78 0 0 0 -1.86-.19h-1.83a4.9 4.9 0 0 0 -2 .34 3 3 0 0 0 -1.26 1 4.56 4.56 0 0 0 -.68 1.66 11.87 11.87 0 0 0 -.2 2.26v2.27a7.42 7.42 0 0 0 .88 4 3.52 3.52 0 0 0 3.21 1.38c.55 0 1.16 0 1.85-.06l1.84-.13z"/><path d="m206.45 66.9a.56.56 0 0 1 -.42.18h-1.58a.54.54 0 0 1 -.42-.18.64.64 0 0 1 -.18-.44v-.6a14.27 14.27 0 0 1 -2.45 1.08 8.46 8.46 0 0 1 -2.56.37 4.91 4.91 0 0 1 -4.17-1.71 7.82 7.82 0 0 1 -1.31-4.85v-10.36a.63.63 0 0 1 .19-.44.59.59 0 0 1 .44-.19h1.52a.61.61 0 0 1 .49.24.63.63 0 0 1 .19.44v10.31a8.06 8.06 0 0 0 .2 2 3.07 3.07 0 0 0 .61 1.25 2.43 2.43 0 0 0 1.07.68 5.43 5.43 0 0 0 1.56.2 6.75 6.75 0 0 0 2.08-.34 17.74 17.74 0 0 0 2.17-.89v-13.26a.63.63 0 0 1 .12-.39.59.59 0 0 1 .44-.19h1.56a.54.54 0 0 1 .42.19.61.61 0 0 1 .17.44v16.02a.63.63 0 0 1 -.14.44z"/><path d="m224.36 66.9a.62.62 0 0 1 -.44.18h-1.51a.61.61 0 0 1 -.63-.62v-10.37a8.07 8.07 0 0 0 -.21-2 3 3 0 0 0 -.63-1.27 2.31 2.31 0 0 0 -1.09-.68 5.08 5.08 0 0 0 -1.54-.21 6.82 6.82 0 0 0 -2.08.35 17.64 17.64 0 0 0 -2.17.88v13.3a.65.65 0 0 1 -.19.44.62.62 0 0 1 -.44.18h-1.55a.56.56 0 0 1 -.42-.18.63.63 0 0 1 -.17-.44v-16.07a.61.61 0 0 1 .17-.44.54.54 0 0 1 .42-.19h1.58a.56.56 0 0 1 .43.19.66.66 0 0 1 .17.44v.61a14.11 14.11 0 0 1 2.46-1.09 8.35 8.35 0 0 1 2.55-.36 4.93 4.93 0 0 1 4.17 1.7 7.82 7.82 0 0 1 1.31 4.85v10.36a.61.61 0 0 1 -.19.44z"/><path d="m243.54 51.27a.52.52 0 0 1 -.15.43 1.41 1.41 0 0 1 -.41.17l-1.14.22a3.59 3.59 0 0 1 .76 1.2 5.45 5.45 0 0 1 .31 2.05v.25a4.89 4.89 0 0 1 -1.67 4q-1.66 1.41-5.32 1.41a10.51 10.51 0 0 1 -2.11-.17 8 8 0 0 1 -1.54-.46 1.18 1.18 0 0 0 -.79 1.07.86.86 0 0 0 .22.64 1.86 1.86 0 0 0 .75.37l4.7 1.2c.77.19 1.53.4 2.25.63a8.84 8.84 0 0 1 1.94.87 4.23 4.23 0 0 1 1.35 1.27 3.28 3.28 0 0 1 .51 1.86v.25a4.3 4.3 0 0 1 -1.66 3.58q-1.65 1.31-5.53 1.31t-5.49-1.34a4.37 4.37 0 0 1 -1.75-3.67v-.29a4.63 4.63 0 0 1 .6-2.36 5.54 5.54 0 0 1 1.38-1.64l-.22-.09a2.23 2.23 0 0 1 -1.1-1 3.17 3.17 0 0 1 -.35-1.42 2.8 2.8 0 0 1 .32-1.26 2.32 2.32 0 0 1 1-1 4.5 4.5 0 0 1 -1.09-1.57 5.49 5.49 0 0 1 -.36-2.08v-.25a6.52 6.52 0 0 1 .33-2.05 4.53 4.53 0 0 1 1.13-1.8 5.92 5.92 0 0 1 2.14-1.26 10.49 10.49 0 0 1 3.39-.47h6.9a.7.7 0 0 1 .5.21.61.61 0 0 1 .22.48zm-3.12 17a1.56 1.56 0 0 0 -.86-1.42 13.11 13.11 0 0 0 -3-1l-3.56-.97a5.83 5.83 0 0 0 -1.12 1.29 3.7 3.7 0 0 0 -.42 1.92v.29a3 3 0 0 0 .22 1.19 2 2 0 0 0 .74.9 4.13 4.13 0 0 0 1.38.57 12.51 12.51 0 0 0 4.4 0 3.64 3.64 0 0 0 1.34-.53 1.91 1.91 0 0 0 .68-.85 3.51 3.51 0 0 0 .18-1.17zm-.25-12.91a4.46 4.46 0 0 0 -.17-1.36 2.3 2.3 0 0 0 -.66-1.07 3.45 3.45 0 0 0 -1.31-.71 7.2 7.2 0 0 0 -2.09-.26 6.86 6.86 0 0 0 -2.16.28 3.18 3.18 0 0 0 -1.29.74 2.48 2.48 0 0 0 -.63 1.07 4.54 4.54 0 0 0 -.17 1.28v.25a4.28 4.28 0 0 0 .15 1.1 2.45 2.45 0 0 0 .62 1 3.32 3.32 0 0 0 1.29.77 6.64 6.64 0 0 0 2.19.3 8.11 8.11 0 0 0 2.09-.23 3.17 3.17 0 0 0 1.31-.67 2.2 2.2 0 0 0 .66-1 4.15 4.15 0 0 0 .19-1.31z"/><path d="m258.16 62.74a4.54 4.54 0 0 1 -.43 2.06 3.67 3.67 0 0 1 -1.2 1.42 5.31 5.31 0 0 1 -1.85.82 10 10 0 0 1 -2.41.27h-1.06c-.41 0-.84 0-1.29-.08l-1.37-.14a7.42 7.42 0 0 1 -1.26-.24q-.66-.15-.66-.63v-1.12a.42.42 0 0 1 .16-.35.65.65 0 0 1 .41-.12h.12l1.25.12c.45 0 .9.08 1.37.11s.89.06 1.29.08.74 0 1 0a4.55 4.55 0 0 0 2.33-.48 1.89 1.89 0 0 0 .79-1.76 1.76 1.76 0 0 0 -.51-1.26 9.07 9.07 0 0 0 -1.84-1.32l-3.18-1.89a9.33 9.33 0 0 1 -2.33-1.93 3.87 3.87 0 0 1 -.88-2.57 4.21 4.21 0 0 1 .44-2 3.39 3.39 0 0 1 1.2-1.29 4.68 4.68 0 0 1 1.79-.68 12.33 12.33 0 0 1 2.27-.19c.88 0 1.74 0 2.57.11s1.61.17 2.34.3q.6.09.6.63v1a.47.47 0 0 1 -.53.53h-.1l-2.19-.14c-.91-.07-1.81-.1-2.69-.1a6 6 0 0 0 -2.13.32c-.53.21-.8.71-.8 1.51a1.65 1.65 0 0 0 .54 1.24 8.08 8.08 0 0 0 1.63 1.15l3.14 1.88a8.56 8.56 0 0 1 2.71 2.27 4.33 4.33 0 0 1 .76 2.47z"/><path d="m272.84 66.74a.87.87 0 0 1 -.51.22 15.53 15.53 0 0 1 -1.81.25c-.68.06-1.39.1-2.13.1a6.93 6.93 0 0 1 -2.85-.56 5.91 5.91 0 0 1 -2.11-1.54 6.57 6.57 0 0 1 -1.3-2.41 10.34 10.34 0 0 1 -.44-3.15v-2.46a10.43 10.43 0 0 1 .44-3.15 6.72 6.72 0 0 1 1.29-2.41 5.77 5.77 0 0 1 2.11-1.54 7 7 0 0 1 2.86-.55q1.11 0 2.13.09a17.82 17.82 0 0 1 1.81.26.94.94 0 0 1 .51.2.78.78 0 0 1 .12.49v1.13a.42.42 0 0 1 -.16.37.65.65 0 0 1 -.37.11h-.13q-1-.13-1.89-.18c-.57 0-1.24 0-2 0a3.51 3.51 0 0 0 -2.91 1.27 6.29 6.29 0 0 0 -1 3.95v2.46a6.27 6.27 0 0 0 1 4 3.5 3.5 0 0 0 2.92 1.28h2s1.2-.09 1.89-.17h.13a.65.65 0 0 1 .37.11.39.39 0 0 1 .16.36v1.14a.78.78 0 0 1 -.13.33z" fill="#78aae5"/><path d="m279.8 66.9a.52.52 0 0 1 -.41.18h-1.64a.52.52 0 0 1 -.41-.18.72.72 0 0 1 -.16-.44v-22.46a.65.65 0 0 1 .16-.43.55.55 0 0 1 .41-.17h1.64a.55.55 0 0 1 .41.17.64.64 0 0 1 .2.43v22.46a.71.71 0 0 1 -.2.44z" fill="#78aae5"/><path d="m298.38 59.62a10.38 10.38 0 0 1 -.44 3.15 6.64 6.64 0 0 1 -1.32 2.43 5.78 5.78 0 0 1 -2.21 1.55 7.83 7.83 0 0 1 -3.05.56 7.71 7.71 0 0 1 -3-.56 5.86 5.86 0 0 1 -2.19-1.55 6.64 6.64 0 0 1 -1.32-2.43 10.38 10.38 0 0 1 -.45-3.15v-2.39a10.33 10.33 0 0 1 .45-3.15 6.49 6.49 0 0 1 1.32-2.43 6 6 0 0 1 2.19-1.56 7.71 7.71 0 0 1 3-.55 7.83 7.83 0 0 1 3.05.55 5.91 5.91 0 0 1 2.21 1.56 6.49 6.49 0 0 1 1.32 2.43 10.34 10.34 0 0 1 .44 3.15zm-2.77-2.39a6.56 6.56 0 0 0 -1-3.85 3.7 3.7 0 0 0 -3.25-1.38 3.66 3.66 0 0 0 -3.21 1.4 6.44 6.44 0 0 0 -1 3.86v2.39a6.58 6.58 0 0 0 1 3.84 3.65 3.65 0 0 0 3.23 1.42 3.75 3.75 0 0 0 3.23-1.4 6.46 6.46 0 0 0 1-3.86z" fill="#78aae5"/><path d="m315.57 66.9a.58.58 0 0 1 -.43.18h-1.57a.58.58 0 0 1 -.43-.18.67.67 0 0 1 -.17-.44v-.6a14.34 14.34 0 0 1 -2.46 1.08 8.44 8.44 0 0 1 -2.55.37 4.94 4.94 0 0 1 -4.18-1.71 7.82 7.82 0 0 1 -1.3-4.85v-10.36a.59.59 0 0 1 .19-.44.58.58 0 0 1 .44-.19h1.51a.65.65 0 0 1 .63.63v10.36a8.57 8.57 0 0 0 .2 2 3.07 3.07 0 0 0 .63 1.28 2.49 2.49 0 0 0 1.07.68 5.53 5.53 0 0 0 1.56.2 6.7 6.7 0 0 0 2.08-.34 17.86 17.86 0 0 0 2.18-.89v-13.29a.59.59 0 0 1 .19-.44.58.58 0 0 1 .44-.19h1.54a.56.56 0 0 1 .43.19.66.66 0 0 1 .17.44v16.07a.67.67 0 0 1 -.17.44z" fill="#78aae5"/><path d="m333.16 66.05a.9.9 0 0 1 -.11.48.76.76 0 0 1 -.55.24 27.68 27.68 0 0 1 -2.92.41c-.95.08-1.91.13-2.88.13a7.65 7.65 0 0 1 -3.05-.56 5.56 5.56 0 0 1 -2.15-1.55 6.82 6.82 0 0 1 -1.26-2.46 12 12 0 0 1 -.41-3.21v-2.27a8.6 8.6 0 0 1 1.7-5.72 6.43 6.43 0 0 1 5.17-2c.48 0 1.07 0 1.75.08s1.33.13 1.94.23v-5.85a.57.57 0 0 1 .17-.43.59.59 0 0 1 .42-.17h1.61a.53.53 0 0 1 .41.17.6.6 0 0 1 .16.43zm-2.77-13.86a10.78 10.78 0 0 0 -1.86-.19h-1.83a4.83 4.83 0 0 0 -1.95.34 2.84 2.84 0 0 0 -1.26 1 4.39 4.39 0 0 0 -.68 1.66 11.11 11.11 0 0 0 -.2 2.26v2.27a7.42 7.42 0 0 0 .88 4 3.51 3.51 0 0 0 3.21 1.38c.55 0 1.16 0 1.84-.06l1.85-.13z" fill="#78aae5"/><path d="m79.82 67.41a4 4 0 0 1 -1.29.2h-62.53c-5.19 0-14.14-8.08-15-19.61-.5-6.92 7.2-16.31 16.17-19.66a6.48 6.48 0 0 0 4.07-4.57c1.28-5.34 4.56-14.48 12.76-19.43 7.66-4.6 17.73-4.45 30 .47a1 1 0 0 1 .56 1.31 1 1 0 0 1 -1.3.53c-11.65-4.65-21.12-4.86-28.2-.6-7.83 4.71-11.52 16.7-12.64 21.07a3.28 3.28 0 0 1 -1.93 2.22c-4.07 1.67-15 7-17.29 17.3a6.76 6.76 0 0 0 -.2 1.85c.42 9.9 8.65 17.12 13 17.12h62.77c.09 0 7.7-2.4 8.22-9.1a1 1 0 0 1 1-.9 1 1 0 0 1 1 1.1c-.59 7.29-6.99 10-9.17 10.7z" fill="#78aae5" stroke="#78aae5" stroke-miterlimit="10" stroke-width="2"/></svg>