<svg enable-background="new 0 0 334.8 74.1" viewBox="0 0 334.8 74.1" xmlns="http://www.w3.org/2000/svg"><g fill="#78aae5"><ellipse cx="68.2" cy="10.8" rx=".7" ry=".7"/><ellipse cx="70.3" cy="10.8" rx=".7" ry=".7"/><ellipse cx="72.2" cy="13.3" rx=".7" ry=".7"/><ellipse cx="74.3" cy="13.3" rx=".7" ry=".7"/><ellipse cx="76.4" cy="13.3" rx=".7" ry=".7"/><ellipse cx="68.1" cy="13.3" rx=".7" ry=".7"/><ellipse cx="70.2" cy="13.3" rx=".7" ry=".7"/><ellipse cx="72.2" cy="15.4" rx=".7" ry=".7"/><ellipse cx="74.3" cy="15.4" rx=".7" ry=".7"/><ellipse cx="76.4" cy="15.4" rx=".7" ry=".7"/><ellipse cx="78.5" cy="15.4" rx=".7" ry=".7"/><ellipse cx="66" cy="15.4" rx=".7" ry=".7"/><ellipse cx="68.1" cy="15.4" rx=".7" ry=".7"/><ellipse cx="70.2" cy="15.4" rx=".7" ry=".7"/><ellipse cx="72.2" cy="17.5" rx=".7" ry=".7"/><ellipse cx="74.3" cy="17.5" rx=".7" ry=".7"/><ellipse cx="76.4" cy="17.5" rx=".7" ry=".7"/><ellipse cx="78.5" cy="17.5" rx=".7" ry=".7"/><ellipse cx="80.5" cy="17.5" rx=".7" ry=".7"/><ellipse cx="63.9" cy="17.5" rx=".7" ry=".7"/><ellipse cx="66" cy="17.5" rx=".7" ry=".7"/><ellipse cx="68.1" cy="17.5" rx=".7" ry=".7"/><ellipse cx="70.2" cy="17.5" rx=".7" ry=".7"/><ellipse cx="72.2" cy="19.7" rx=".7" ry=".7"/><ellipse cx="74.3" cy="19.7" rx=".7" ry=".7"/><ellipse cx="76.4" cy="19.7" rx=".7" ry=".7"/><ellipse cx="78.5" cy="19.7" rx=".7" ry=".7"/><ellipse cx="80.5" cy="19.7" rx=".7" ry=".7"/><ellipse cx="82.6" cy="19.7" rx=".7" ry=".7"/><ellipse cx="61.9" cy="19.7" rx=".7" ry=".7"/><ellipse cx="63.9" cy="19.7" rx=".7" ry=".7"/><ellipse cx="66" cy="19.7" rx=".7" ry=".7"/><ellipse cx="68.1" cy="19.7" rx=".7" ry=".7"/><ellipse cx="70.2" cy="19.7" rx=".7" ry=".7"/><ellipse cx="72.2" cy="21.9" rx=".7" ry=".7"/><ellipse cx="74.3" cy="21.9" rx=".7" ry=".7"/><ellipse cx="76.4" cy="21.9" rx=".7" ry=".7"/><ellipse cx="78.5" cy="21.9" rx=".7" ry=".7"/><ellipse cx="80.5" cy="21.9" rx=".7" ry=".7"/><ellipse cx="82.6" cy="21.9" rx=".7" ry=".7"/><ellipse cx="59.8" cy="21.9" rx=".7" ry=".7"/><ellipse cx="61.9" cy="21.9" rx=".7" ry=".7"/><ellipse cx="63.9" cy="21.9" rx=".7" ry=".7"/><ellipse cx="66" cy="21.9" rx=".7" ry=".7"/><ellipse cx="68.1" cy="21.9" rx=".7" ry=".7"/><ellipse cx="70.2" cy="21.9" rx=".7" ry=".7"/><ellipse cx="84.7" cy="21.9" rx=".7" ry=".7"/><ellipse cx="72.2" cy="24" rx=".7" ry=".7"/><ellipse cx="74.3" cy="24" rx=".7" ry=".7"/><ellipse cx="76.4" cy="24" rx=".7" ry=".7"/><ellipse cx="78.5" cy="24" rx=".7" ry=".7"/><ellipse cx="80.5" cy="24" rx=".7" ry=".7"/><ellipse cx="82.6" cy="24" rx=".7" ry=".7"/><ellipse cx="61.9" cy="24" rx=".7" ry=".7"/><ellipse cx="63.9" cy="24" rx=".7" ry=".7"/><ellipse cx="84.7" cy="24" rx=".7" ry=".7"/><ellipse cx="72.2" cy="26.1" rx=".7" ry=".7"/><ellipse cx="74.3" cy="26.1" rx=".7" ry=".7"/><ellipse cx="76.4" cy="26.1" rx=".7" ry=".7"/><ellipse cx="78.5" cy="26.1" rx=".7" ry=".7"/><ellipse cx="80.5" cy="26.1" rx=".7" ry=".7"/><ellipse cx="82.6" cy="26.1" rx=".7" ry=".7"/><ellipse cx="84.7" cy="26.1" rx=".7" ry=".7"/><ellipse cx="72.2" cy="28.3" rx=".7" ry=".7"/><ellipse cx="74.3" cy="28.3" rx=".7" ry=".7"/><ellipse cx="76.4" cy="28.3" rx=".7" ry=".7"/><ellipse cx="78.5" cy="28.3" rx=".7" ry=".7"/><ellipse cx="80.5" cy="28.3" rx=".7" ry=".7"/><ellipse cx="82.6" cy="28.3" rx=".7" ry=".7"/><ellipse cx="84.7" cy="28.3" rx=".7" ry=".7"/><ellipse cx="86.8" cy="28.3" rx=".7" ry=".7"/><ellipse cx="72.2" cy="30.5" rx=".7" ry=".7"/><ellipse cx="74.3" cy="30.5" rx=".7" ry=".7"/><ellipse cx="76.4" cy="30.5" rx=".7" ry=".7"/><ellipse cx="78.5" cy="30.5" rx=".7" ry=".7"/><ellipse cx="80.5" cy="30.5" rx=".7" ry=".7"/><ellipse cx="82.6" cy="30.5" rx=".7" ry=".7"/><ellipse cx="84.7" cy="30.5" rx=".7" ry=".7"/><ellipse cx="86.8" cy="30.5" rx=".7" ry=".7"/><ellipse cx="72.2" cy="32.6" rx=".7" ry=".7"/><ellipse cx="74.3" cy="32.6" rx=".7" ry=".7"/><ellipse cx="76.4" cy="32.6" rx=".7" ry=".7"/><ellipse cx="78.5" cy="32.6" rx=".7" ry=".7"/><ellipse cx="80.5" cy="32.6" rx=".7" ry=".7"/><ellipse cx="82.6" cy="32.6" rx=".7" ry=".7"/><ellipse cx="84.7" cy="32.6" rx=".7" ry=".7"/><ellipse cx="86.8" cy="32.6" rx=".7" ry=".7"/><ellipse cx="88.8" cy="32.6" rx=".7" ry=".7"/><ellipse cx="72.2" cy="34.8" rx=".7" ry=".7"/><ellipse cx="74.3" cy="34.8" rx=".7" ry=".7"/><ellipse cx="76.4" cy="34.8" rx=".7" ry=".7"/><ellipse cx="78.5" cy="34.8" rx=".7" ry=".7"/><ellipse cx="80.5" cy="34.8" rx=".7" ry=".7"/><ellipse cx="82.6" cy="34.8" rx=".7" ry=".7"/><ellipse cx="70.2" cy="34.8" rx=".7" ry=".7"/><ellipse cx="84.7" cy="34.8" rx=".7" ry=".7"/><ellipse cx="86.8" cy="34.8" rx=".7" ry=".7"/><ellipse cx="88.8" cy="34.8" rx=".7" ry=".7"/><ellipse cx="90.9" cy="34.8" rx=".7" ry=".7"/><ellipse cx="72.2" cy="36.9" rx=".7" ry=".7"/><ellipse cx="74.3" cy="36.9" rx=".7" ry=".7"/><ellipse cx="76.4" cy="36.9" rx=".7" ry=".7"/><ellipse cx="78.5" cy="36.9" rx=".7" ry=".7"/><ellipse cx="80.5" cy="36.9" rx=".7" ry=".7"/><ellipse cx="82.6" cy="36.9" rx=".7" ry=".7"/><ellipse cx="70.2" cy="36.9" rx=".7" ry=".7"/><ellipse cx="84.7" cy="36.9" rx=".7" ry=".7"/><ellipse cx="86.8" cy="36.9" rx=".7" ry=".7"/><ellipse cx="88.8" cy="36.9" rx=".7" ry=".7"/><ellipse cx="90.9" cy="36.9" rx=".7" ry=".7"/><ellipse cx="93" cy="36.9" rx=".7" ry=".7"/><ellipse cx="95.1" cy="36.9" rx=".7" ry=".7"/><ellipse cx="72.2" cy="39" rx=".7" ry=".7"/><ellipse cx="74.3" cy="39" rx=".7" ry=".7"/><ellipse cx="76.4" cy="39" rx=".7" ry=".7"/><ellipse cx="78.5" cy="39" rx=".7" ry=".7"/><ellipse cx="80.5" cy="39" rx=".7" ry=".7"/><ellipse cx="82.6" cy="39" rx=".7" ry=".7"/><ellipse cx="66" cy="39" rx=".7" ry=".7"/><ellipse cx="68.1" cy="39" rx=".7" ry=".7"/><ellipse cx="70.2" cy="39" rx=".7" ry=".7"/><ellipse cx="97.1" cy="39" rx=".7" ry=".7"/><ellipse cx="99.2" cy="39" rx=".7" ry=".7"/><ellipse cx="101.3" cy="39" rx=".7" ry=".7"/><ellipse cx="84.7" cy="39" rx=".7" ry=".7"/><ellipse cx="86.8" cy="39" rx=".7" ry=".7"/><ellipse cx="88.8" cy="39" rx=".7" ry=".7"/><ellipse cx="90.9" cy="39" rx=".7" ry=".7"/><ellipse cx="93" cy="39" rx=".7" ry=".7"/><ellipse cx="95.1" cy="39" rx=".7" ry=".7"/><ellipse cx="72.2" cy="41.2" rx=".7" ry=".7"/><ellipse cx="74.3" cy="41.2" rx=".7" ry=".7"/><ellipse cx="76.4" cy="41.2" rx=".7" ry=".7"/><ellipse cx="78.5" cy="41.2" rx=".7" ry=".7"/><ellipse cx="80.5" cy="41.2" rx=".7" ry=".7"/><ellipse cx="82.6" cy="41.2" rx=".7" ry=".7"/><ellipse cx="63.9" cy="41.2" rx=".7" ry=".7"/><ellipse cx="66" cy="41.2" rx=".7" ry=".7"/><ellipse cx="68.1" cy="41.2" rx=".7" ry=".7"/><ellipse cx="70.2" cy="41.2" rx=".7" ry=".7"/><ellipse cx="97.1" cy="41.2" rx=".7" ry=".7"/><ellipse cx="99.2" cy="41.2" rx=".7" ry=".7"/><ellipse cx="101.3" cy="41.2" rx=".7" ry=".7"/><ellipse cx="103.4" cy="41.2" rx=".7" ry=".7"/><ellipse cx="105.4" cy="41.2" rx=".7" ry=".7"/><ellipse cx="84.7" cy="41.2" rx=".7" ry=".7"/><ellipse cx="86.8" cy="41.2" rx=".7" ry=".7"/><ellipse cx="88.8" cy="41.2" rx=".7" ry=".7"/><ellipse cx="90.9" cy="41.2" rx=".7" ry=".7"/><ellipse cx="93" cy="41.2" rx=".7" ry=".7"/><ellipse cx="95.1" cy="41.2" rx=".7" ry=".7"/><ellipse cx="72.2" cy="43.3" rx=".7" ry=".7"/><ellipse cx="74.3" cy="43.3" rx=".7" ry=".7"/><ellipse cx="76.4" cy="43.3" rx=".7" ry=".7"/><ellipse cx="78.5" cy="43.3" rx=".7" ry=".7"/><ellipse cx="80.5" cy="43.3" rx=".7" ry=".7"/><ellipse cx="82.6" cy="43.3" rx=".7" ry=".7"/><ellipse cx="61.9" cy="43.3" rx=".7" ry=".7"/><ellipse cx="63.9" cy="43.3" rx=".7" ry=".7"/><ellipse cx="68.1" cy="43.3" rx=".7" ry=".7"/><ellipse cx="70.2" cy="43.3" rx=".7" ry=".7"/><ellipse cx="97.1" cy="43.3" rx=".7" ry=".7"/><ellipse cx="99.2" cy="43.3" rx=".7" ry=".7"/><ellipse cx="101.3" cy="43.3" rx=".7" ry=".7"/><ellipse cx="103.4" cy="43.3" rx=".7" ry=".7"/><ellipse cx="105.4" cy="43.3" rx=".7" ry=".7"/><ellipse cx="107.5" cy="43.3" rx=".7" ry=".7"/><ellipse cx="84.7" cy="43.3" rx=".7" ry=".7"/><ellipse cx="86.8" cy="43.3" rx=".7" ry=".7"/><ellipse cx="88.8" cy="43.3" rx=".7" ry=".7"/><ellipse cx="90.9" cy="43.3" rx=".7" ry=".7"/><ellipse cx="93" cy="43.3" rx=".7" ry=".7"/><ellipse cx="95.1" cy="43.3" rx=".7" ry=".7"/><ellipse cx="72.2" cy="45.5" rx=".7" ry=".7"/><ellipse cx="76.4" cy="45.5" rx=".7" ry=".7"/><ellipse cx="78.5" cy="45.5" rx=".7" ry=".7"/><ellipse cx="80.5" cy="45.5" rx=".7" ry=".7"/><ellipse cx="82.6" cy="45.5" rx=".7" ry=".7"/><ellipse cx="61.9" cy="45.5" rx=".7" ry=".7"/><ellipse cx="63.9" cy="45.5" rx=".7" ry=".7"/><ellipse cx="68.1" cy="45.5" rx=".7" ry=".7"/><ellipse cx="70.2" cy="45.5" rx=".7" ry=".7"/><ellipse cx="97.1" cy="45.5" rx=".7" ry=".7"/><ellipse cx="99.2" cy="45.5" rx=".7" ry=".7"/><ellipse cx="101.3" cy="45.5" rx=".7" ry=".7"/><ellipse cx="103.4" cy="45.5" rx=".7" ry=".7"/><ellipse cx="105.4" cy="45.5" rx=".7" ry=".7"/><ellipse cx="107.5" cy="45.5" rx=".7" ry=".7"/><ellipse cx="84.7" cy="45.5" rx=".7" ry=".7"/><ellipse cx="86.8" cy="45.5" rx=".7" ry=".7"/><ellipse cx="88.8" cy="45.5" rx=".7" ry=".7"/><ellipse cx="90.9" cy="45.5" rx=".7" ry=".7"/><ellipse cx="93" cy="45.5" rx=".7" ry=".7"/><ellipse cx="95.1" cy="45.5" rx=".7" ry=".7"/><ellipse cx="82.6" cy="47.7" rx=".7" ry=".7"/><ellipse cx="63.9" cy="47.7" rx=".7" ry=".7"/><ellipse cx="66" cy="47.7" rx=".7" ry=".7"/><ellipse cx="68.1" cy="47.7" rx=".7" ry=".7"/><ellipse cx="97.1" cy="47.7" rx=".7" ry=".7"/><ellipse cx="99.2" cy="47.7" rx=".7" ry=".7"/><ellipse cx="101.3" cy="47.7" rx=".7" ry=".7"/><ellipse cx="103.4" cy="47.7" rx=".7" ry=".7"/><ellipse cx="105.4" cy="47.7" rx=".7" ry=".7"/><ellipse cx="107.5" cy="47.7" rx=".7" ry=".7"/><ellipse cx="84.7" cy="47.7" rx=".7" ry=".7"/><ellipse cx="86.8" cy="47.7" rx=".7" ry=".7"/><ellipse cx="88.8" cy="47.7" rx=".7" ry=".7"/><ellipse cx="90.9" cy="47.7" rx=".7" ry=".7"/><ellipse cx="93" cy="47.7" rx=".7" ry=".7"/><ellipse cx="95.1" cy="47.7" rx=".7" ry=".7"/><ellipse cx="66" cy="49.8" rx=".7" ry=".7"/><ellipse cx="68.1" cy="49.8" rx=".7" ry=".7"/><ellipse cx="97.1" cy="49.8" rx=".7" ry=".7"/><ellipse cx="99.2" cy="49.8" rx=".7" ry=".7"/><ellipse cx="101.3" cy="49.8" rx=".7" ry=".7"/><ellipse cx="103.4" cy="49.8" rx=".7" ry=".7"/><ellipse cx="105.4" cy="49.8" rx=".7" ry=".7"/><ellipse cx="107.5" cy="49.8" rx=".7" ry=".7"/><ellipse cx="90.9" cy="49.8" rx=".7" ry=".7"/><ellipse cx="93" cy="49.8" rx=".7" ry=".7"/><ellipse cx="95.1" cy="49.8" rx=".7" ry=".7"/><ellipse cx="66" cy="52" rx=".7" ry=".7"/><ellipse cx="68.1" cy="52" rx=".7" ry=".7"/><ellipse cx="70.2" cy="52" rx=".7" ry=".7"/><ellipse cx="97.1" cy="52" rx=".7" ry=".7"/><ellipse cx="99.2" cy="52" rx=".7" ry=".7"/><ellipse cx="101.3" cy="52" rx=".7" ry=".7"/><ellipse cx="103.4" cy="52" rx=".7" ry=".7"/><ellipse cx="105.4" cy="52" rx=".7" ry=".7"/><ellipse cx="107.5" cy="52" rx=".7" ry=".7"/><ellipse cx="95.1" cy="52" rx=".7" ry=".7"/><ellipse cx="72.2" cy="54.1" rx=".7" ry=".7"/><ellipse cx="70.2" cy="54.1" rx=".7" ry=".7"/><ellipse cx="97.1" cy="54.1" rx=".7" ry=".7"/><ellipse cx="99.2" cy="54.1" rx=".7" ry=".7"/><ellipse cx="101.3" cy="54.1" rx=".7" ry=".7"/><ellipse cx="103.4" cy="54.1" rx=".7" ry=".7"/><ellipse cx="105.4" cy="54.1" rx=".7" ry=".7"/><ellipse cx="95.1" cy="54.1" rx=".7" ry=".7"/><ellipse cx="97.1" cy="56.3" rx=".7" ry=".7"/><ellipse cx="99.2" cy="56.3" rx=".7" ry=".7"/><ellipse cx="101.3" cy="56.3" rx=".7" ry=".7"/><ellipse cx="103.4" cy="56.3" rx=".7" ry=".7"/><ellipse cx="105.4" cy="56.3" rx=".7" ry=".7"/><ellipse cx="99.2" cy="58.4" rx=".7" ry=".7"/><ellipse cx="101.3" cy="58.4" rx=".7" ry=".7"/><ellipse cx="103.4" cy="58.4" rx=".7" ry=".7"/><ellipse cx="105.4" cy="58.4" rx=".7" ry=".7"/><ellipse cx="107.5" cy="58.4" rx=".7" ry=".7"/><ellipse cx="99.2" cy="60.5" rx=".7" ry=".7"/><ellipse cx="101.3" cy="60.5" rx=".7" ry=".7"/><ellipse cx="105.4" cy="60.5" rx=".7" ry=".7"/><ellipse cx="107.5" cy="60.5" rx=".7" ry=".7"/><ellipse cx="109.4" cy="43.3" rx=".7" ry=".7"/><ellipse cx="111.5" cy="43.3" rx=".7" ry=".7"/><ellipse cx="111.5" cy="45.5" rx=".7" ry=".7"/><ellipse cx="113.6" cy="45.5" rx=".7" ry=".7"/><ellipse cx="111.5" cy="47.7" rx=".7" ry=".7"/><ellipse cx="113.6" cy="47.7" rx=".7" ry=".7"/><ellipse cx="111.5" cy="49.8" rx=".7" ry=".7"/><ellipse cx="113.6" cy="49.8" rx=".7" ry=".7"/><ellipse cx="115.7" cy="49.8" rx=".7" ry=".7"/><ellipse cx="111.5" cy="52" rx=".7" ry=".7"/><ellipse cx="113.6" cy="52" rx=".7" ry=".7"/><ellipse cx="115.7" cy="52" rx=".7" ry=".7"/><ellipse cx="111.5" cy="54.1" rx=".7" ry=".7"/><ellipse cx="113.6" cy="54.1" rx=".7" ry=".7"/><ellipse cx="115.7" cy="54.1" rx=".7" ry=".7"/><ellipse cx="117.8" cy="54.1" rx=".7" ry=".7"/><ellipse cx="113.6" cy="56.3" rx=".7" ry=".7"/><ellipse cx="115.7" cy="56.3" rx=".7" ry=".7"/><ellipse cx="117.8" cy="56.3" rx=".7" ry=".7"/><ellipse cx="115.7" cy="58.4" rx=".7" ry=".7"/><ellipse cx="117.8" cy="58.4" rx=".7" ry=".7"/><ellipse cx="119.8" cy="58.4" rx=".7" ry=".7"/><ellipse cx="117.8" cy="60.5" rx=".7" ry=".7"/><ellipse cx="99.2" cy="62.7" rx=".7" ry=".7"/><ellipse cx="101.3" cy="62.7" rx=".7" ry=".7"/><ellipse cx="105.4" cy="62.7" rx=".7" ry=".7"/><ellipse cx="107.5" cy="62.7" rx=".7" ry=".7"/><ellipse cx="97.1" cy="64.8" rx=".7" ry=".7"/><ellipse cx="99.2" cy="64.8" rx=".7" ry=".7"/><ellipse cx="105.4" cy="64.8" rx=".7" ry=".7"/><ellipse cx="107.5" cy="64.8" rx=".7" ry=".7"/><ellipse cx="97.1" cy="67" rx=".7" ry=".7"/><ellipse cx="105.4" cy="67" rx=".7" ry=".7"/><ellipse cx="107.5" cy="67" rx=".7" ry=".7"/><ellipse cx="95.1" cy="67" rx=".7" ry=".7"/><ellipse cx="105.4" cy="69.1" rx=".7" ry=".7"/><ellipse cx="107.5" cy="69.1" rx=".7" ry=".7"/><ellipse cx="93" cy="69.1" rx=".7" ry=".7"/><ellipse cx="95.1" cy="69.1" rx=".7" ry=".7"/><ellipse cx="103.4" cy="71.3" rx=".7" ry=".7"/><ellipse cx="105.4" cy="71.3" rx=".7" ry=".7"/><ellipse cx="93" cy="71.3" rx=".7" ry=".7"/><ellipse cx="103.4" cy="73.4" rx=".7" ry=".7"/><ellipse cx="105.4" cy="73.4" rx=".7" ry=".7"/><ellipse cx="90.9" cy="73.4" rx=".7" ry=".7"/><ellipse cx="93" cy="73.4" rx=".7" ry=".7"/><ellipse cx="95.1" cy="71.3" rx=".7" ry=".7"/></g><g fill="#fff"><path d="m123.5 34.8c-.2.2-.4.3-.6.3h-2c-.4.1-.8-.2-1-.5l-9.7-18.5c0-.1-.1-.1-.1-.1-.1 0 0 0 0 .1v18.4c0 .2-.1.3-.2.4s-.3.2-.4.2h-1.6c-.1 0-.3 0-.4-.1-.1 0-.2-.1-.2-.3v-22.1c0-.2.1-.5.3-.6.2-.2.4-.2.7-.3h1.7c.3 0 .6 0 .9.1.2.1.3.3.4.5l9.7 18.4.1.1s0 0 0-.1v-18.4c0-.2 0-.3.2-.4.1-.1.3-.2.4-.2h1.7c.2 0 .3.1.4.2s.2.3.2.4v21.9c-.3.2-.4.4-.5.6z"/><path d="m131 14.4c0 .2-.1.3-.2.4s-.3.2-.4.2h-1.6c-.2 0-.3-.1-.4-.2s-.2-.3-.2-.4v-2.5c0-.3.3-.6.6-.6h1.6c.3 0 .6.3.6.6zm-.1 20.1c0 .2-.1.3-.2.4s-.3.2-.4.2h-1.5c-.2 0-.3-.1-.4-.2s-.2-.3-.2-.4v-16.1c0-.2.1-.3.2-.4s.3-.2.4-.2h1.5c.3 0 .6.3.6.6z"/><path d="m148.3 26.6c0 .5-.2.7-.6.7h-10.6v.4c-.1 1.4.2 2.9 1.1 4 .9.8 2.1 1.3 3.3 1.2.9 0 1.9 0 2.9-.1s1.9-.2 2.7-.3h.2c.1 0 .2 0 .4.1.1.1.2.2.2.3v1.1c0 .2 0 .3-.1.5-.1.1-.3.2-.5.2-.9.2-1.8.3-2.7.4-1 .1-2 .2-2.9.2s-1.8-.1-2.6-.4c-.8-.2-1.6-.6-2.3-1.2s-1.3-1.5-1.6-2.4c-.4-1.2-.7-2.4-.6-3.6v-2.8c-.1-2 .5-3.9 1.8-5.4 1.4-1.4 3.3-2.1 5.2-2 1 0 2 .2 3 .5.8.3 1.6.8 2.2 1.5s1 1.5 1.3 2.3c.3 1 .4 2 .4 3zm-2.8-1.7c.1-1.3-.2-2.7-1-3.8-.8-.8-2-1.2-3.1-1.1-1.2-.1-2.3.4-3.1 1.2-.8 1.1-1.2 2.4-1.1 3.8v.3h8.4z"/><path d="m164.3 34c0 .2 0 .3-.1.5-.1.1-.3.2-.6.2-1 .2-1.9.3-2.9.4s-1.9.1-2.9.1-2-.2-3-.6c-.8-.3-1.6-.9-2.1-1.5-.6-.7-1-1.6-1.3-2.5-.3-1-.4-2.1-.4-3.2v-2.3c-.1-2 .5-4.1 1.7-5.7 1.3-1.4 3.2-2.1 5.2-2 .5 0 1.1 0 1.8.1s1.3.1 1.9.2v-5.7c0-.3.2-.6.6-.6h1.6c.2 0 .3.1.4.2s.2.3.2.4zm-2.8-13.8c-.6-.1-1.2-.2-1.9-.2h-1.8c-.7 0-1.3.1-1.9.3-.5.2-.9.6-1.3 1-.3.5-.5 1.1-.6 1.7-.1.7-.2 1.5-.2 2.3v2.3c-.1 1.4.2 2.8.9 4 .7 1 2 1.5 3.2 1.4.6 0 1.2 0 1.9-.1l1.8-.1z"/><path d="m181.4 26.6c0 .5-.2.7-.6.7h-10.6v.4c-.1 1.4.2 2.9 1.1 4 .9.8 2.1 1.3 3.3 1.2.9 0 1.9 0 2.9-.1s1.9-.2 2.7-.3h.2c.1 0 .2 0 .3.1s.2.2.2.3v1.1c0 .2 0 .3-.1.5-.1.1-.3.2-.5.2-.9.2-1.8.3-2.7.4-1 .1-2 .2-2.9.2s-1.8-.1-2.6-.4c-.8-.2-1.6-.6-2.3-1.2s-1.3-1.4-1.6-2.3c-.4-1.2-.7-2.4-.6-3.6v-2.9c-.1-2 .5-3.9 1.8-5.4 1.4-1.4 3.3-2.1 5.2-2 1 0 2 .2 3 .5.8.3 1.6.8 2.2 1.5s1 1.5 1.3 2.3c.3 1 .5 2 .4 3zm-2.8-1.7c.1-1.3-.2-2.7-1-3.8-1.8-1.5-4.5-1.5-6.2.1-.8 1.1-1.2 2.4-1.1 3.8v.3h8.4z"/><path d="m191.7 19.9c-.7 0-1.4.1-2.1.3-.8.2-1.5.6-2.2 1v13.2c0 .2-.1.3-.2.4s-.3.2-.4.2h-1.6c-.2 0-.3-.1-.4-.2s-.2-.3-.2-.4v-16c0-.2.1-.3.2-.4s.3-.2.4-.2h1.5c.2 0 .3.1.4.2s.2.3.2.4v.6c.7-.5 1.5-.9 2.3-1.2.7-.2 1.4-.3 2.1-.4.4 0 .7.2.7.6v1.3c0 .5-.2.6-.7.6z"/><path d="m205.8 30.7c0 .7-.1 1.4-.4 2.1-.3.6-.7 1.1-1.2 1.4-.6.4-1.2.7-1.9.8-.8.2-1.6.3-2.4.3h-1.1c-.4 0-.8 0-1.3-.1l-1.4-.1c-.4 0-.8-.1-1.3-.2-.4-.1-.7-.3-.7-.6v-1.1c0-.1 0-.3.1-.3.1-.1.3-.1.4-.1h.1l1.2.1c.4 0 .9.1 1.4.1s.9.1 1.3.1.8 0 1 0c.8.1 1.6-.1 2.3-.5.6-.4.9-1.1.8-1.8 0-.5-.2-.9-.5-1.3-.6-.5-1.2-1-1.9-1.4l-3.2-1.9c-.9-.5-1.7-1.2-2.3-1.9s-.9-1.6-.9-2.6c0-.7.1-1.4.4-2 .3-.5.7-1 1.2-1.3s1.2-.6 1.8-.7c.7-.1 1.5-.2 2.3-.2.9 0 1.7 0 2.6.1s1.6.2 2.4.3c.4.1.6.3.6.6v1c0 .3-.1.5-.4.5h-.1-.1l-2.1-.1c-.9-.1-1.8-.1-2.7-.1-.7 0-1.4.1-2.1.3-.5.2-.8.7-.8 1.5 0 .5.2.9.5 1.2.5.4 1 .8 1.6 1.1l3.1 1.9c1 .6 2 1.3 2.7 2.3.7.9 1 1.8 1 2.6z"/><path d="m221 34.5c0 .2-.1.3-.2.4s-.3.2-.4.2h-1.5c-.2 0-.3-.1-.4-.2s-.2-.3-.2-.4v-.7c-.7.4-1.5.8-2.3 1.1s-1.7.5-2.5.5c-.7 0-1.3-.1-1.9-.2-1.3-.3-2.3-1.2-2.8-2.4-.3-.8-.5-1.6-.4-2.5v-.4c0-.8.1-1.5.4-2.2s.7-1.2 1.3-1.6c.7-.5 1.5-.8 2.4-1 1.2-.2 2.4-.3 3.6-.3h2.3v-1.2c.1-1-.2-2-.8-2.8-.7-.6-1.7-.9-2.6-.8-1 0-1.9 0-2.7.1s-1.5.1-2.1.2h-.2c-.1 0-.3 0-.4-.1s-.2-.3-.2-.4v-1.1c0-.3.2-.5.7-.6.6-.1 1.4-.2 2.1-.3.9-.1 1.8-.1 2.8-.1 2.2 0 3.7.5 4.7 1.6 1 1.2 1.5 2.8 1.4 4.4zm-7.5-20.2c0 .2-.1.3-.2.4s-.3.2-.4.2h-1.2c-.2 0-.3-.1-.4-.2s-.2-.3-.2-.4v-2.6c0-.2.1-.3.2-.4s.3-.2.4-.2h1.2c.2 0 .3.1.4.2s.2.3.2.4zm4.7 12.4h-2.3c-.8 0-1.6 0-2.4.2-.5.1-1 .3-1.5.5-.3.2-.6.6-.8 1-.2.5-.2.9-.2 1.4v.4c-.1.8.2 1.7.8 2.3.6.4 1.4.6 2.2.5.7 0 1.4-.1 2.1-.3s1.5-.6 2.1-.9zm.8-12.4c0 .2-.1.3-.2.4s-.3.2-.4.2h-1.2c-.2 0-.3-.1-.4-.2s-.2-.3-.2-.4v-2.6c0-.3.3-.6.6-.6h1.2c.2 0 .3.1.4.2s.2.3.2.4z"/><path d="m235.3 34.7c-.1.1-.3.2-.5.2-.6.1-1.2.2-1.8.3-.7.1-1.4.1-2.1.1-1 0-2-.2-2.9-.6-.8-.3-1.5-.9-2.1-1.5-.6-.7-1.1-1.5-1.3-2.4-.3-1-.5-2.1-.4-3.1v-2.5c0-1.1.1-2.1.4-3.1.3-.9.7-1.7 1.3-2.4s1.3-1.2 2.1-1.5c.9-.4 1.9-.6 2.9-.5.7 0 1.4 0 2.1.1.6.1 1.2.1 1.8.3.2 0 .4.1.5.2s.1.3.1.5v1.1c0 .1 0 .3-.1.4s-.2.1-.4.1h-.1c-.7-.1-1.3-.2-1.9-.2s-1.2 0-2 0c-1.1-.1-2.2.4-2.9 1.3-.8 1.2-1.1 2.6-1 4v2.5c-.1 1.4.2 2.8 1 4 .7.9 1.8 1.3 2.9 1.3h2s1.2-.1 1.9-.2h.1c.1 0 .3 0 .4.1s.2.2.1.4v1.1c0-.2 0-.1-.1 0z"/><path d="m251.4 34.9c-.1.1-.3.2-.4.2h-1.5c-.2 0-.3-.1-.4-.2s-.2-.3-.2-.4v-10.4c.1-1.2-.2-2.3-.9-3.2-.7-.6-1.5-.9-2.4-.9-.3 0-.6 0-.9 0s-.7.1-1.1.2-.8.2-1.2.3-.8.2-1.1.4v13.7c0 .2-.1.3-.2.4s-.3.2-.4.2h-1.7c-.2 0-.3-.1-.4-.2s-.2-.3-.2-.4v-22.6c0-.2.1-.3.2-.4s.3-.2.4-.2h1.6c.2 0 .3.1.4.2s.2.3.2.4v6.5c.8-.4 1.6-.6 2.5-.7.8-.1 1.6-.2 2.4-.2s1.6.1 2.3.4c.7.2 1.3.6 1.8 1.2s.9 1.3 1.2 2c.3 1 .4 2 .4 3v10.4c-.1 0-.2.2-.4.3z"/><path d="m266.3 30.7c0 .7-.1 1.4-.4 2.1-.3.6-.7 1.1-1.2 1.4-.6.4-1.2.7-1.9.8-.8.2-1.6.3-2.4.3h-1.1c-.4 0-.8 0-1.3-.1l-1.4-.1c-.4 0-.8-.1-1.3-.2-.4-.1-.7-.3-.7-.6v-1.1c0-.1 0-.3.1-.3.1-.1.3-.1.4-.1h.1l1.2.1c.5 0 .9.1 1.4.1s.9.1 1.3.1.7 0 1 0c.8 0 1.6-.1 2.3-.5.6-.4.9-1.1.8-1.8 0-.5-.2-.9-.5-1.3-.6-.5-1.2-1-1.9-1.4l-3.1-1.9c-.9-.5-1.7-1.2-2.3-1.9s-.9-1.6-.9-2.6c0-.7.1-1.4.4-2 .3-.5.7-1 1.2-1.3s1.2-.6 1.8-.7c.7-.1 1.5-.2 2.3-.2.9 0 1.7 0 2.6.1s1.6.2 2.3.3c.4.1.6.3.6.6v1c0 .3-.1.5-.4.5h-.1-.1l-2.2-.1c-.9-.1-1.8-.1-2.7-.1-.7 0-1.4.1-2.1.3-.5.2-.8.7-.8 1.5 0 .5.2.9.5 1.2.5.4 1 .8 1.6 1.1l3.1 1.9c1 .6 2 1.3 2.7 2.3.8.9 1.1 1.8 1.1 2.6z"/><path d="m272.6 14.4c0 .2-.1.3-.2.4s-.3.2-.5.2h-1.6c-.3 0-.6-.3-.6-.6v-2.5c0-.2.1-.3.2-.4s.3-.2.4-.2h1.6c.2 0 .3.1.4.2s.2.3.2.4zm0 20.1c0 .2-.1.3-.2.4s-.3.2-.4.2h-1.5c-.2 0-.3-.1-.4-.2s-.2-.3-.2-.4v-16.1c0-.1.1-.3.2-.4s.3-.2.4-.2h1.6c.2 0 .3.1.4.2s.2.3.2.4z"/><path d="m287.6 30.7c0 .7-.1 1.4-.4 2.1-.3.6-.7 1.1-1.2 1.4-.6.4-1.2.7-1.9.8-.8.2-1.6.3-2.4.3h-1c-.4 0-.8 0-1.3-.1l-1.4-.2c-.4 0-.8-.1-1.3-.2-.4-.1-.7-.3-.7-.6v-1.1c0-.1.1-.3.2-.3.1-.1.3-.1.4-.1h.1l1.3.1c.5 0 .9.1 1.4.1s.9.1 1.3.1.8 0 1 0c.8.1 1.6-.1 2.3-.5.6-.4.9-1.1.8-1.8 0-.5-.2-.9-.5-1.3-.6-.5-1.2-1-1.9-1.4l-3.2-1.9c-.8-.5-1.6-1.1-2.3-1.9-.6-.7-.9-1.6-.9-2.6 0-.7.1-1.4.4-2 .3-.5.7-1 1.2-1.3s1.2-.6 1.8-.7c.7-.1 1.5-.2 2.3-.2.9 0 1.7 0 2.6.1s1.6.2 2.4.3c.4.1.6.3.6.6v1c0 .3-.1.5-.4.5h-.1-.1l-2.2-.1c-.9-.1-1.8-.1-2.7-.1-.7 0-1.4.1-2.1.3-.5.2-.8.7-.8 1.5 0 .5.2.9.5 1.2.5.4 1 .8 1.6 1.1l3.1 1.9c1 .6 2 1.3 2.7 2.3.6 1 .8 1.9.8 2.7z"/><path d="m301.4 34.7c-.1.1-.3.2-.5.2-.6.1-1.2.2-1.8.3-.7.1-1.4.1-2.1.1-1 0-2-.2-2.9-.6-.8-.4-1.5-.9-2.1-1.5-.6-.7-1-1.5-1.3-2.4-.3-1-.5-2.1-.4-3.1v-2.5c0-1.1.1-2.1.4-3.1.3-.9.7-1.7 1.3-2.4s1.3-1.2 2.1-1.5c.9-.4 1.9-.6 2.9-.5.7 0 1.4 0 2.1.1.6.1 1.2.1 1.8.3.2 0 .4.1.5.2s.1.3.1.5v1.1c0 .1 0 .3-.2.4-.1.1-.2.1-.4.1h-.1c-.7-.1-1.3-.2-1.9-.2s-1.2 0-2 0c-1.1-.1-2.2.4-3 1.2-.8 1.2-1.1 2.6-1 4v2.5c-.1 1.4.2 2.8 1 4 .7.9 1.8 1.3 2.9 1.3h2s1.2-.1 1.9-.2h.2c.1 0 .3 0 .4.1s.2.2.2.4v1.1c0-.1 0 0-.1.1z"/><path d="m317.5 34.9c-.1.1-.3.2-.4.2h-1.5c-.2 0-.3-.1-.4-.2s-.2-.3-.2-.4v-10.4c.1-1.2-.2-2.3-.9-3.2-.7-.6-1.6-.9-2.5-.9-.3 0-.5 0-.9 0s-.7.1-1.1.2-.8.2-1.2.3-.8.2-1.1.4v13.7c0 .2-.1.3-.2.4s-.3.2-.4.2h-1.7c-.2 0-.3-.1-.4-.2s-.2-.3-.2-.4v-22.6c0-.2.1-.3.2-.4s.3-.2.4-.2h1.6c.2 0 .3.1.4.2s.2.3.2.4v6.5c.8-.4 1.6-.6 2.5-.7.8-.1 1.6-.2 2.3-.2.8 0 1.6.1 2.3.4.7.2 1.3.6 1.8 1.2s.9 1.3 1.2 2c.3 1 .4 2 .4 3v10.4s-.1.2-.2.3z"/><path d="m334.8 26.6c0 .5-.2.7-.6.7h-10.6v.4c0 1.9.4 3.2 1.1 4 .9.8 2.1 1.2 3.3 1.1.9 0 1.9 0 3-.1s1.9-.2 2.7-.3h.2c.1 0 .2 0 .3.1s.2.2.2.3v1.2c0 .2 0 .3-.1.5-.1.1-.3.2-.5.2-.9.2-1.8.3-2.7.4-1 .1-2 .2-3 .2-.9 0-1.8-.1-2.6-.4-.8-.2-1.6-.6-2.3-1.2s-1.2-1.4-1.6-2.3c-.4-1.2-.7-2.4-.6-3.6v-2.8c-.1-2 .5-3.9 1.8-5.4 1.4-1.4 3.3-2.1 5.2-2 1 0 2 .2 3 .5.8.3 1.6.8 2.1 1.5.6.7 1 1.5 1.3 2.3.3 1 .5 2 .5 3zm-2.8-1.7c.1-1.3-.2-2.7-1-3.8-.8-.8-2-1.2-3.1-1.1-1.2-.1-2.3.4-3.1 1.2-.8 1.1-1.2 2.4-1.1 3.8v.3h8.3z"/><path d="m155.6 60.6c0 1.1-.2 2.3-.7 3.3-.5.8-1.2 1.6-2 2.1-.9.5-1.9.9-3 1.1-1.2.2-2.3.3-3.5.3-1.1 0-2 0-2.9-.1-.8 0-1.5-.1-2.2-.2-.3 0-.6-.1-.8-.3s-.3-.5-.3-.8v-21c-.1-.5.3-1.1.8-1.2h.2c.5-.1 1.2-.1 2.1-.2s1.9-.1 2.9-.1c1.2 0 2.4.1 3.6.3 1 .2 2 .5 2.9 1 .8.4 1.5 1.1 2 1.9.5.9.8 1.9.7 3v.3c0 1.1-.3 2.1-.9 3s-1.5 1.6-2.5 2c1 .3 1.9 1 2.6 1.9.6.9 1 2 .9 3.2zm-3-11.1c0-.6-.1-1.3-.5-1.8-.3-.5-.8-.9-1.3-1.1-.6-.3-1.3-.5-2-.5-.9-.1-1.7-.1-2.6-.1h-1.6l-1.5.1v7.8h4.9c.8 0 1.5-.1 2.3-.3.5-.2 1-.4 1.4-.8.3-.3.6-.7.7-1.2s.2-1 .2-1.4zm.2 10.6c0-.5-.1-1-.2-1.5s-.4-.9-.8-1.3-.9-.7-1.5-.9c-.7-.2-1.5-.4-2.3-.3h-4.9v8.7l1.6.1h1.6c.9 0 1.8-.1 2.6-.2.7-.1 1.4-.3 2-.7.5-.3 1-.7 1.3-1.3.3-.7.5-1.4.4-2.1z"/><path d="m162.9 46.4c0 .2-.1.3-.2.4s-.3.2-.4.2h-1.6c-.2 0-.3-.1-.4-.2s-.2-.3-.2-.4v-2.5c0-.3.3-.6.6-.6h1.6c.3 0 .6.3.6.6zm-.1 20.1c0 .3-.3.6-.6.6h-1.5c-.3 0-.6-.3-.6-.6v-16.1c0-.2.1-.3.2-.4s.3-.2.4-.2h1.5c.2 0 .3.1.4.2s.2.3.2.4z"/><path d="m170.8 66.9c-.1.1-.3.2-.4.2h-1.6c-.2 0-.3-.1-.4-.2s-.2-.3-.1-.4v-22.5c0-.2 0-.3.1-.4s.3-.2.4-.2h1.6c.2 0 .3.1.4.2s.2.3.2.4v22.5c0 .1-.1.3-.2.4z"/><path d="m188.7 66.1c0 .2 0 .3-.1.5-.1.1-.3.2-.6.2-1 .2-1.9.3-2.9.4s-1.9.1-2.9.1-2.1-.2-3.1-.6c-.8-.3-1.6-.9-2.1-1.6-.6-.7-1-1.6-1.3-2.5-.3-1-.4-2.1-.4-3.2v-2.3c-.1-2 .5-4.1 1.7-5.7 1.3-1.4 3.2-2.1 5.2-2 .5 0 1.1 0 1.8.1s1.3.1 1.9.2v-5.7c0-.3.2-.6.6-.6h1.6c.2 0 .3.1.4.2s.2.3.2.4zm-2.8-13.9c-.6-.1-1.2-.2-1.9-.2h-1.8c-.7 0-1.4.1-2 .3-.5.2-.9.6-1.3 1-.3.5-.6 1.1-.7 1.7-.1.7-.2 1.5-.2 2.3v2.3c-.1 1.4.2 2.8.9 4 .8 1 2 1.5 3.2 1.4.6 0 1.2 0 1.9-.1l1.8-.1z"/><path d="m206.4 66.9c-.1.1-.3.2-.4.2h-1.6c-.2 0-.3-.1-.4-.2s-.2-.3-.2-.4v-.6c-.8.4-1.6.8-2.4 1.1s-1.7.4-2.6.4c-1.6.1-3.1-.5-4.2-1.7-1-1.4-1.4-3.1-1.3-4.8v-10.5c0-.2.1-.3.2-.4s.3-.2.4-.2h1.5c.2 0 .4.1.5.2s.2.3.2.4v10.3c0 .7.1 1.3.2 2 .1.5.3.9.6 1.3.3.3.7.6 1.1.7.5.1 1 .2 1.6.2.7 0 1.4-.1 2.1-.3s1.5-.5 2.2-.9v-13.3c0-.1 0-.3.1-.4s.3-.2.4-.2h1.6c.2 0 .3.1.4.2s.2.3.2.4v16c0 .2 0 .4-.2.5z"/><path d="m224.4 66.9c-.1.1-.3.2-.4.2h-1.5c-.3 0-.6-.3-.6-.6v-10.4c0-.7-.1-1.3-.2-2-.1-.5-.3-.9-.6-1.3-.3-.3-.7-.6-1.1-.7-.5-.1-1-.2-1.5-.2-.7 0-1.4.1-2.1.3s-1.5.5-2.2.9v13.3c0 .2-.1.3-.2.4s-.3.2-.4.2h-1.6c-.2 0-.3-.1-.4-.2s-.2-.3-.2-.4v-16c0-.2.1-.3.2-.4s.3-.2.4-.2h1.6c.2 0 .3.1.4.2s.2.3.2.4v.6c.8-.4 1.6-.8 2.5-1.1.8-.3 1.7-.4 2.6-.4 1.6-.1 3.1.5 4.2 1.7 1 1.4 1.4 3.1 1.3 4.8v10.4c-.3.2-.3.4-.4.5z"/><path d="m243.5 51.3c0 .2 0 .3-.1.4s-.3.1-.4.2l-1.1.2c.3.3.6.8.8 1.2.2.7.3 1.4.3 2v.3c.1 1.5-.5 3-1.7 4-1.1.9-2.9 1.4-5.3 1.4-.7 0-1.4 0-2.1-.2-.5-.1-1-.3-1.5-.5-.5.2-.8.6-.8 1.1 0 .2.1.5.2.6.2.2.5.3.8.4l4.7 1.2c.8.2 1.5.4 2.3.6.7.2 1.3.5 1.9.9.5.3 1 .8 1.4 1.3.4.6.5 1.2.5 1.9v.3c.1 1.4-.6 2.7-1.7 3.6s-2.9 1.3-5.5 1.3-4.4-.4-5.5-1.3c-1.2-.9-1.8-2.2-1.8-3.7v-.3c0-.8.2-1.6.6-2.4.3-.6.8-1.2 1.4-1.6l-.2-.1c-.5-.2-.9-.6-1.1-1s-.3-.9-.4-1.4c0-.4.1-.9.3-1.3s.6-.8 1-1c-.5-.4-.8-1-1.1-1.6-.3-.7-.4-1.4-.4-2.1v-.3c0-.7.1-1.4.3-2 .2-.7.6-1.3 1.1-1.8.6-.6 1.3-1 2.1-1.3 1.1-.3 2.2-.5 3.4-.5h6.9c.2 0 .4.1.5.2s.2.3.2.5zm-3.1 17c0-.6-.3-1.2-.9-1.4-1-.5-2-.8-3-1l-3.6-1c-.4.4-.8.8-1.1 1.3-.3.6-.5 1.3-.4 1.9v.3c0 .4.1.8.2 1.2.2.4.4.7.7.9.4.3.9.5 1.4.6 1.5.3 2.9.3 4.4 0 .5-.1.9-.3 1.3-.5.3-.2.5-.5.7-.8.1-.4.2-.8.2-1.2zm-.2-12.9c0-.5 0-.9-.2-1.4-.1-.4-.3-.8-.7-1.1s-.8-.6-1.3-.7c-.7-.2-1.4-.3-2.1-.3s-1.5.1-2.2.3c-.5.1-.9.4-1.3.7-.3.3-.5.7-.6 1.1s-.2.8-.2 1.3v.3c0 .4.1.7.1 1.1.1.4.3.7.6 1 .4.4.8.6 1.3.8.7.2 1.4.3 2.2.3.7 0 1.4-.1 2.1-.2.5-.1.9-.3 1.3-.7.3-.3.5-.6.7-1 .1-.4.2-.9.2-1.3z"/><path d="m258.2 62.7c0 .7-.1 1.4-.4 2.1-.3.6-.7 1.1-1.2 1.4-.6.4-1.2.7-1.9.8-.8.2-1.6.3-2.4.3h-1.1c-.4 0-.8 0-1.3-.1l-1.4-.1c-.4 0-.8-.1-1.3-.2-.4-.1-.7-.3-.7-.6v-1.1c0-.1.1-.3.2-.3.1-.1.3-.1.4-.1h.1l1.3.1c.4 0 .9.1 1.4.1s.9.1 1.3.1.7 0 1 0c.8 0 1.6-.1 2.3-.5.6-.4.9-1.1.8-1.8 0-.5-.2-.9-.5-1.3-.6-.5-1.2-1-1.8-1.3l-3.2-1.9c-.9-.5-1.7-1.2-2.3-1.9s-.9-1.6-.9-2.6c0-.7.1-1.4.4-2 .3-.5.7-1 1.2-1.3s1.2-.6 1.8-.7c.7-.1 1.5-.2 2.3-.2.9 0 1.7 0 2.6.1s1.6.2 2.3.3c.4.1.6.3.6.6v1c0 .3-.1.5-.4.5h-.1-.1l-2.2-.1c-.9-.1-1.8-.1-2.7-.1-.7 0-1.4.1-2.1.3-.5.2-.8.7-.8 1.5 0 .5.2.9.5 1.2.5.4 1 .8 1.6 1.2l3.1 1.9c1.1.6 2 1.3 2.7 2.3.6.7.9 1.6.9 2.4z"/></g><g fill="#78aae5"><path d="m272.8 66.7c-.1.1-.3.2-.5.2-.6.1-1.2.2-1.8.3-.7.1-1.4.1-2.1.1-1 0-2-.2-2.9-.6-.8-.3-1.5-.9-2.1-1.5-.6-.7-1-1.5-1.3-2.4-.3-1-.5-2.1-.4-3.2v-2.5c0-1.1.1-2.1.4-3.2.3-.9.7-1.7 1.3-2.4s1.3-1.2 2.1-1.5c.9-.4 1.9-.6 2.9-.5.7 0 1.4 0 2.1.1.6.1 1.2.1 1.8.3.2 0 .4.1.5.2s.1.3.1.5v1.1c0 .1 0 .3-.2.4-.1.1-.2.1-.4.1h-.1c-.7-.1-1.3-.1-1.9-.2-.6 0-1.2 0-2 0-1.1-.1-2.2.4-2.9 1.3-.8 1.2-1.1 2.6-1 4v2.5c-.1 1.4.2 2.8 1 4 .7.9 1.8 1.3 2.9 1.3h2s1.2-.1 1.9-.2h.1c.1 0 .3 0 .4.1s.2.2.2.4v1.1c.1 0 0 .1-.1.2z"/><path d="m279.8 66.9c-.1.1-.3.2-.4.2h-1.6c-.2 0-.3-.1-.4-.2s-.2-.3-.2-.4v-22.5c0-.2.1-.3.2-.4s.3-.2.4-.2h1.6c.2 0 .3.1.4.2s.2.3.2.4v22.5c0 .1-.1.3-.2.4z"/><path d="m298.4 59.6c0 1.1-.1 2.1-.4 3.2-.3.9-.7 1.7-1.3 2.4s-1.4 1.2-2.2 1.6c-1 .4-2 .6-3 .6s-2-.2-3-.6c-.8-.3-1.6-.9-2.2-1.6s-1.1-1.5-1.3-2.4c-.3-1-.5-2.1-.5-3.2v-2.4c0-1.1.1-2.1.5-3.2.3-.9.7-1.7 1.3-2.4s1.4-1.2 2.2-1.6c1-.4 2-.6 3-.5 1 0 2.1.2 3 .5.8.3 1.6.9 2.2 1.6s1.1 1.5 1.3 2.4c.3 1 .5 2.1.4 3.2zm-2.8-2.4c.1-1.4-.3-2.7-1-3.8-.8-1-2-1.5-3.3-1.4-1.2-.1-2.4.4-3.2 1.4-.7 1.1-1.1 2.5-1 3.9v2.4c-.1 1.4.3 2.7 1 3.8.8 1 2 1.5 3.2 1.4 1.2.1 2.5-.4 3.2-1.4.7-1.1 1.1-2.5 1-3.9z"/><path d="m315.6 66.9c-.1.1-.3.2-.4.2h-1.6c-.2 0-.3-.1-.4-.2s-.2-.3-.2-.4v-.6c-.8.4-1.6.8-2.5 1.1-.8.3-1.7.4-2.5.4-1.6.1-3.1-.5-4.2-1.7-1-1.4-1.4-3.1-1.3-4.8v-10.5c0-.2.1-.3.2-.4s.3-.2.4-.2h1.5c.3 0 .6.3.6.6v10.4c0 .7.1 1.3.2 2 .1.5.3.9.6 1.3.3.3.7.5 1.1.7.5.1 1 .2 1.6.2.7 0 1.4-.1 2.1-.3s1.5-.5 2.2-.9v-13.4c0-.2.1-.3.2-.4s.3-.2.4-.2h1.5c.2 0 .3.1.4.2s.2.3.2.4v16.1c0 .1 0 .3-.1.4z"/><path d="m333.2 66.1c0 .2 0 .3-.1.5s-.3.2-.5.2c-1 .2-1.9.3-2.9.4s-1.9.1-2.9.1-2.1-.2-3-.6c-.8-.3-1.6-.9-2.1-1.6-.6-.7-1-1.6-1.3-2.5-.3-1-.4-2.1-.4-3.2v-2.3c-.1-2 .5-4.1 1.7-5.7 1.3-1.4 3.2-2.1 5.2-2 .5 0 1.1 0 1.8.1s1.3.1 1.9.2v-5.7c0-.2.1-.3.2-.4s.3-.2.4-.2h1.6c.2 0 .3.1.4.2s.2.3.2.4zm-2.8-13.9c-.6-.1-1.2-.2-1.9-.2h-1.8c-.7 0-1.3.1-2 .3-.5.2-.9.6-1.3 1-.3.5-.6 1.1-.7 1.7-.1.7-.2 1.5-.2 2.3v2.3c-.1 1.4.2 2.8.9 4 .7 1 2 1.5 3.2 1.4.5 0 1.2 0 1.8-.1l1.9-.1v-12.6z"/><path d="m79.8 67.4c-.4.1-.9.2-1.3.2h-62.5c-5.2 0-14.1-8.1-15-19.6-.5-6.9 7.2-16.3 16.2-19.7 2-.7 3.6-2.5 4.1-4.6 1.2-5.3 4.5-14.4 12.7-19.4 7.7-4.6 17.7-4.4 30 .5.5.2.8.8.6 1.3s-.8.7-1.3.5c-11.7-4.6-21.2-4.8-28.2-.6-7.8 4.7-11.5 16.7-12.6 21.1-.3 1-1 1.8-1.9 2.2-4.1 1.7-15 7-17.3 17.3-.3.6-.3 1.3-.3 1.9.4 9.9 8.6 17.1 13 17.1h62.8c.1 0 7.7-2.4 8.2-9.1.1-.5.5-.9 1-.9.6 0 1 .4 1 1v.1c-.6 7.3-7 10-9.2 10.7z" stroke="#78aae5" stroke-miterlimit="10" stroke-width="2"/></g></svg>