<?xml version="1.0" encoding="utf-8"?><svg version="1.1" id="Ebene_1" xmlns="http://www.w3.org/2000/svg" xmlns:xlink="http://www.w3.org/1999/xlink" x="0px" y="0px" viewBox="0 0 1047 973.3" style="enable-background:new 0 0 1047 973.3;" xml:space="preserve"><g id="object"><g><g><path style="fill:#491708;" d="M1014.1,454.1c0,0-43.4-99.6-88.6-149.9c0,0,43.8,64.4,58.4,93.5s29.1,60.4,29.1,60.4L1014.1,454.1z"/><g><path style="fill:#638E1E;" d="M942.1,332.8c0,0-24.3-22.8-40.5-26.2c-16.1-3.4-33.5,3.7-33.5,3.7s19.3,25.3,35.8,27.3C920.6,339.6,942.1,332.8,942.1,332.8z"/><path style="fill:#4F542A;" d="M945.3,333c0.3,0.1,0.6,0.3,0.7,0.6c0.4,0.9-0.5,1.8-1.4,1.5l-54.6-18L945.3,333z"/></g><g><path style="fill:#638E1E;" d="M965.9,356c0,0,17.3-28.5,17.3-44.9c0-16.5-10.5-32-10.5-32s-20.8,24.1-19.4,40.7C954.8,336.3,965.9,356,965.9,356z"/><path style="fill:#4F542A;" d="M966.4,359.2c0,0.3-0.2,0.6-0.5,0.8c-0.8,0.6-1.9-0.1-1.7-1l6.4-57.1L966.4,359.2z"/></g><g><path style="fill:#638E1E;" d="M929.9,308.9c0,0-3.6-33.2-13.6-46.2c-10-13.1-27.8-19.1-27.8-19.1s-1.9,31.8,9.3,44.1C909.1,300,929.9,308.9,929.9,308.9z"/><path style="fill:#4F542A;" d="M932.1,311.2c0.2,0.3,0.2,0.6,0.1,0.9c-0.3,0.9-1.5,1.1-2,0.2l-29.6-49.2L932.1,311.2z"/></g><g><path style="fill:#638E1E;" d="M994.2,407.9c0,0,21.2-25.7,23.6-42s-5.7-33.2-5.7-33.2s-24,20.8-25,37.4S994.2,407.9,994.2,407.9z"/><path style="fill:#4F542A;" d="M994.1,411.1c-0.1,0.3-0.3,0.6-0.6,0.7c-0.9,0.4-1.8-0.3-1.6-1.3l14.6-55.5L994.1,411.1z"/></g><g><path style="fill:#638E1E;" d="M977.6,388.7c0,0-18.3-27.9-33.1-35c-14.9-7.1-33.4-4.3-33.4-4.3s12.8,29.1,28.4,35C955,390.3,977.6,388.7,977.6,388.7z"/><path style="fill:#4F542A;" d="M980.6,389.7c0.3,0.2,0.5,0.4,0.5,0.8c0.2,0.9-0.9,1.6-1.7,1.1l-48.8-30.3L980.6,389.7z"/></g></g><path style="fill:#491708;" d="M329.1,565.4c0,0-97.1,48.9-144.7,96.8c0,0,61.9-47.3,90.1-63.5s58.7-32.4,58.7-32.4L329.1,565.4z"/><g><path style="fill:#638E1E;" d="M224.6,634.3c0,0-21.4,25.6-23.9,41.8s5.5,33.2,5.5,33.2s24.2-20.7,25.2-37.3C232.6,655.4,224.6,634.3,224.6,634.3z"/><path style="fill:#4F542A;" d="M224.7,631c0.1-0.3,0.3-0.6,0.6-0.7c0.9-0.4,1.8,0.4,1.6,1.3L212,687.1L224.7,631z"/></g><g><path style="fill:#638E1E;" d="M188.8,657.6c0,0-32.9,5.4-45.4,16.1c-12.5,10.7-17.5,28.8-17.5,28.8s31.8,0.1,43.5-11.8S188.8,657.6,188.8,657.6z"/><path style="fill:#4F542A;" d="M190.9,655.2c0.3-0.2,0.6-0.3,0.9-0.2c0.9,0.2,1.1,1.5,0.4,2l-47.5,32.3L190.9,655.2z"/></g><path style="fill:#9CB5A4;" d="M733.5,732.8c-4.2,13.5-10.1,41-0.6,50c0,0-0.3-18.1,4.1-31.4c2.7-8.3,5.1-13.4,6.1-15.9c0.5-1.1,0.3-2.3-0.3-3.4l-0.1-0.2C740.6,728.5,734.7,729.1,733.5,732.8z"/><path style="fill:#9CB5A4;" d="M743.5,741.3c-3.7,13.6-8.4,41.3,1.5,50c0,0-1-18,2.8-31.5c2.4-8.4,4.6-13.5,5.5-16c0.4-1.1,0.2-2.4-0.5-3.4l-0.2-0.2C750.4,736.8,744.5,737.6,743.5,741.3z"/><path style="fill:#9CB5A4;" d="M755.3,744.6c-4.2,13.5-10.1,41-0.6,50c0,0-0.3-18.1,4.1-31.4c2.7-8.3,5.1-13.4,6.1-15.9c0.5-1.1,0.3-2.3-0.3-3.4l-0.1-0.2C762.4,740.3,756.5,740.8,755.3,744.6z"/><path style="fill:#9CB5A4;" d="M769,744.5c-5.4,13.2-13.6,40.2-4.9,49.8c0,0,1.3-18,6.8-31.1c3.4-8.1,6.3-13,7.5-15.4c0.5-1.1,0.5-2.3,0-3.4l-0.1-0.2C776.4,740.6,770.5,740.8,769,744.5z"/><path style="fill:#9CB5A4;" d="M538.8,783c3.9,13.6,14.1,39.8,27.1,42c0,0-10.2-14.9-13.9-28.5c-2.3-8.4-3.1-14-3.6-16.6c-0.2-1.2-1-2.1-2.1-2.7l-0.3-0.1C542.3,775.5,537.7,779.3,538.8,783z"/><path style="fill:#9CB5A4;" d="M551.9,784.6c4.5,13.4,15.7,39.1,28.8,40.9c0,0-10.8-14.5-15-27.9c-2.6-8.3-3.6-13.8-4.3-16.4c-0.3-1.2-1.1-2.1-2.2-2.6l-0.3-0.1C555.1,777,550.6,780.9,551.9,784.6z"/><path style="fill:#9CB5A4;" d="M563.5,780.8c3.9,13.6,14.1,39.8,27.1,42c0,0-10.2-14.9-13.9-28.5c-2.3-8.4-3.1-14-3.6-16.6c-0.2-1.2-1-2.1-2.1-2.7l-0.3-0.1C567,773.3,562.4,777,563.5,780.8z"/><path style="fill:#9CB5A4;" d="M574.8,773.2c2.8,14,10.8,41.1,23.4,44.3c0,0-8.9-15.7-11.5-29.7c-1.6-8.7-2-14.3-2.3-17c-0.1-1.2-0.8-2.2-1.9-2.8l-0.2-0.1C578.9,765.9,574.1,769.3,574.8,773.2z"/><path style="fill:#AF6A3A;" d="M627.3,588.9c0,0,39.1,43.1,29.9,117.7c-3.8,30.5,26.1,42.4,50.7-2.3c21.5-39.1,36.1-136.9,32.2-157.5S627.3,588.9,627.3,588.9z"/><path style="fill:#9B592D;" d="M689.2,583.4c0,0,7.8,24.4-0.8,45.5c0,0,1.4-13.4,1.4-25.6C689.8,595.1,689.6,589.3,689.2,583.4z"/><path style="fill:#9B592D;" d="M708.3,589.2c0,0,3.4,25.4-8.9,44.7c0,0,3.7-12.9,5.9-24.9C706.9,600.8,707.6,595,708.3,589.2z"/><path style="fill:#9B592D;" d="M714,588.5c0,0-7.2,88.8-22.3,120c0,0,16.1-7,26.9-67.9c10.7-60.9,12.3-62.2,12.3-62.2L714,588.5z"/><path style="fill:#AF6A3A;" d="M420.3,543.3c0,0-6,58-6.8,112.8c-0.6,42.2,3.1,82.5,7.4,93.1c11.1,27.5,40.9,22.5,43.3,7.6c2.3-15-4.6-47.2,6.4-94.4S488.1,562,488.1,562L420.3,543.3z"/><path style="fill:#9B592D;" d="M455.2,655.1c0,0-4.8-25.2,6.3-45.1c0,0-3,13.1-4.5,25.2C456,643.4,455.6,649.3,455.2,655.1z"/><path style="fill:#9B592D;" d="M442.9,670.6c0,0-5.3-25.1,5.5-45.2c0,0-2.7,13.1-4.1,25.3C443.4,658.8,443.1,664.7,442.9,670.6z"/><path style="fill:#9B592D;" d="M472.8,617.3c0,0-2.6,21.9-7.5,43.2s-10.7,56.1-8.2,74c0,0-3.9-9.4-3.9-38.5s9.4-63.4,7.8-72.6C459.6,614.1,472.8,617.3,472.8,617.3z"/><path style="fill:#330F01;" d="M0.5,491.6c0.3-11,11.7-18,21.6-13.3c59.3,28,244,99.4,554.7,79.7c278.3-17.7,407.7-107.6,442-135.9c4.7-3.9,11.7-1.8,13.6,4l13.7,42.2c2.4,7.3-0.1,15.2-6.1,19.9c-33.8,26.1-156.4,107-403.9,133.1c-286.5,30-542.3-50.7-615.6-76.8C7.9,540-0.3,528,0,514.7L0.5,491.6z"/><path style="fill:#491708;" d="M946.1,510.3c20.8-14.3,70.7-49.4,67.5-64c-1.4-6.3-0.1-14.3,1.7-21.5c-20.2,16.1-64.8,46.6-140.8,74.8c1.4,19.8-5.1,40.1-5.1,40.1S925.3,524.6,946.1,510.3z"/><path style="fill:#491708;" d="M37,498.5c5.3,13.7,47.9,36,105.4,53.7c57.5,17.8,152.2,26.2,152.2,26.2s-5.4-14.1-7.2-28.7c-134-17.6-220.9-51-260.8-69.4C30.7,486.3,34.8,492.9,37,498.5z"/><g><path style="fill:#9B592D;" d="M172.8,575.7c-7.3-2-16.5-4.1-26.3-6.4c-32.1-7.4-72.1-16.7-85.2-29.3c-5.3-5.2-8.7-11-12.3-17.3c-7.6-13.2-16.3-28.2-46.7-37.8c-0.4,0.7-0.6,1.4-0.9,2.1c29.7,9.4,37.8,23.4,45.6,36.9c3.7,6.4,7.2,12.4,12.7,17.8c13.6,13.1,53.9,22.4,86.3,29.9c9.7,2.2,18.9,4.4,26.2,6.3c9.8,2.7,23,9.8,36.3,18.2c2.1,0.4,4.2,0.9,6.4,1.3C199.7,587.6,184.2,578.8,172.8,575.7z"/><path style="fill:#9B592D;" d="M470.4,614.9c-37.6-0.6-151.6-7.2-186.3-23.2c-31.2-14.3-92.5-41.4-124.8-52.1c-45.4-14.9-74.4-28.9-78.4-37.5c-0.9-0.3-1.8-0.6-2.6-0.9c0,0.3,0.1,0.5,0.1,0.8c3.7,13,51.8,30.6,80.2,39.9c32.2,10.6,93.4,37.6,124.5,52c35.1,16.1,149.5,22.8,187.2,23.4c17.9,0.3,46.1,5.5,68.1,10.2c3.2-0.1,6.3-0.2,9.5-0.3C525.1,622,491.1,615.2,470.4,614.9z"/><path style="fill:#9B592D;" d="M1044.9,464.3c-4.5,7.6-11.3,15.5-21.1,18.8c-21.8,7.4-82.4,49.7-91.7,59.2c-2.5,2.5-4.7,5.8-6.5,9.2c1.2-0.5,2.4-1,3.5-1.5c1.4-2.3,2.9-4.4,4.6-6.1c9.2-9.4,69.3-51.3,90.8-58.6c9.8-3.3,16.7-10.7,21.4-18L1044.9,464.3z"/><path style="fill:#9B592D;" d="M46.2,550.1c-4.3-7.3-8.3-14.1-12.8-19.6c-10.2-12.3-25.3-19-33.3-21.8L0,511.2c7.9,2.9,22.1,9.4,31.5,20.8c4.3,5.3,8.3,12.1,12.6,19.3c0.3,0.5,0.7,1.1,1,1.7c1.1,0.4,2.2,0.7,3.3,1.1C47.7,552.7,46.9,551.4,46.2,550.1z"/><path style="fill:#9B592D;" d="M49,504.2c22.7,29,47.6,44,80.8,48.4c31.9,4.3,56.8,12,78.5,24.3c14.2,8.1,44.6,22.3,67.9,31.7c3.6,0.6,7.2,1.2,10.8,1.7c-23.1-8.7-60.3-25.6-77.6-35.4c-21.9-12.5-47.1-20.3-79.3-24.6c-32.5-4.4-56.9-19.1-79.3-47.6c-6.5-8.3-13.1-14.9-19.3-20.3c-3.2-1.4-6-2.7-8.7-4C30.7,484.4,40,492.7,49,504.2z"/><path style="fill:#9B592D;" d="M800,534.3l21.7-17.2c-1.9,0.6-3.9,1.1-5.8,1.7l-17.3,13.7c-1,0.7-99.4,67.7-126.9,72.7c-29.4,5.4-94.8,7.1-140.9-3.5c-34.7-8-77.4-7-111.7-6.3c-12.8,0.3-24.9,0.6-34.8,0.3c-35.8-0.9-104-19.8-133.5-32c-15.7-6.5-32.2-18.1-44.2-27.5c-1.7-0.3-3.3-0.7-5-1c12.2,9.8,30.7,23.4,48.3,30.6c30.3,12.5,97.7,31.3,134.3,32.2c10,0.2,22.1,0,34.9-0.3c34.2-0.8,76.7-1.7,111.1,6.2c46.4,10.7,112.1,8.9,141.8,3.5C700.1,602.3,795.8,537.1,800,534.3z"/><path style="fill:#9B592D;" d="M912.9,515.3c14.4-8.6,32.7-21.8,50.5-34.5c17.7-12.7,36-25.9,50.3-34.4c8.3-5,14.8-11,19.9-17.2l-0.8-2.6c-5.1,6.3-11.7,12.7-20.2,17.8c-14.4,8.6-32.7,21.8-50.5,34.5c-17.7,12.7-36,25.9-50.3,34.4c-26.5,15.9-72.5,60.7-79.7,70.8c1.2-0.4,2.5-0.7,3.7-1.1C846.2,570.7,888,530.2,912.9,515.3z"/><path style="fill:#9B592D;" d="M924.3,528.8c10.6-10.5,23.4-16.9,38.2-24.3c11.4-5.7,23.1-11.5,35.3-20c16.6-11.5,31.5-27.9,40.9-39.5l-0.8-2.6c-9.2,11.5-24.4,28.5-41.3,40.2c-12.1,8.4-23.8,14.2-35.1,19.9c-14.4,7.2-27.9,14-38.8,24.7c-10.1,10-21.4,25.2-29.7,37.2c1.3-0.5,2.5-0.9,3.8-1.4C904.8,551.5,915,537.9,924.3,528.8z"/><path style="fill:#9B592D;" d="M824,560.4c21-23.2,56.1-49.4,72.3-56.4c11.5-5,48-28,72.6-48.1c-4.2,2.4-8.7,4.9-13.4,7.5c-23,17.2-50.7,34.4-60.1,38.5c-16.4,7.1-51.9,33.6-73.1,57c-8.3,9.1-25.6,24.1-43.5,38.9c1.7-0.4,3.3-0.8,5-1.2C800.5,582.7,816.2,569,824,560.4z"/><path style="fill:#9B592D;" d="M705.1,608.3c21.1-10.4,47.3-23.3,63.5-33.9c9.7-6.3,27.7-20.9,46.8-36.3c13.1-10.6,27-21.8,39.8-31.7c-2.2,0.7-4.4,1.5-6.6,2.2c-11.3,8.8-23.3,18.5-34.6,27.7c-19,15.4-37,29.9-46.6,36.1c-16.2,10.5-42.3,23.4-63.3,33.8c-6.1,3-11.9,5.9-17.1,8.5c2.4-0.4,4.9-0.7,7.3-1.1C697.7,611.9,701.4,610.1,705.1,608.3z"/></g><path style="fill:#C27B49;" d="M480.7,433.7C529.1,438.3,597.4,317,701,328.5s160.9,88.7,162.7,134.3c5.4,135.1-53.9,257.5-82.3,283.6c-21.3,19.6-53.5,13.4-52-18c1.5-31.5,13-96,7.7-121.3s-14.6-36-14.6-36s-71.4,23.8-127.4,19.2c4.7,1.7,3.9,53.6-8.3,113c-8,39.2,14.2,97.8-26.4,92.7c-36.7-4.6-50.3-42.7-42.9-100.6c7.7-60.1-7.7-100.6-15.4-107.5s-135.9,13-166.6,3.8s-66.6-36.7-66.8-76c-0.3-45.7,19.5-98.5,102.1-105.9C430.8,404.5,451.4,430.9,480.7,433.7z"/><path style="fill:#9B592D;" d="M498.7,581.3c0,0-56.7,1.1-69.9,4.1c-13.2,3.1-13.2,3.1-13.2,3.1s9.5-7.8,36.8-12.4c27.3-4.6,45.1-4.6,45.1-4.6L498.7,581.3z"/><path style="fill:#FFFFFF;" d="M464,509.8c2.7-36.7-29.8-75.1-63-69.8c-23.1,3.7-20.3,18.8-30.5,18.8c-8,0-6.9-13.3-30-17c-33.2-5.3-55.2,21.1-55,64.5c0.2,41.2,33.4,79.2,85,79.2C427.6,585.4,460.9,550.9,464,509.8z"/><path style="fill:#89837A;" d="M391,484.8c4.1-15.2,20.7-14.7,50.2-2.6c32.8,13.5,32.5,32.5,25.5,39.3c-8.2,7.9-20.7-6.7-40.8-11.5C403.5,504.6,387.3,498.3,391,484.8z"/><path style="fill:#89837A;" d="M351.1,491.8c-4.1-15.2-20.7-14.7-50.2-2.6c-32.8,13.5-32.5,32.5-25.5,39.3c8.2,7.9,20.7-6.7,40.8-11.5C338.7,511.6,354.8,505.4,351.1,491.8z"/><path style="fill:#89837A;" d="M370.6,510.9c11-0.9,37.5,16.5,41.9,28.3c5.1,13.8-11.2,31.9-40.2,32.3c-28.9,0.4-39.9-24-37.9-31.3C337,530.8,360.6,511.7,370.6,510.9z"/><path style="fill:#231F20;" d="M386.3,523.8c0,5.3-6.8,9.6-15.3,9.6s-15.3-4.3-15.3-9.6s7.4-11.3,15.8-11.3S386.3,518.4,386.3,523.8z"/><path style="fill:#FFFFFF;" d="M359.5,519.4c0,0,6.1-4.8,13.1-4.3s8.8,3,8.8,3s-5.5-0.3-7.5,1.3c-2.1,1.6-4.9,2.5-6.4,1S359.5,519.4,359.5,519.4z"/><path style="fill:#9CB5A4;" d="M657.2,708.4c-3,11.1-7.1,33.5-0.4,40.9c0,0-0.2-14.8,2.9-25.7c1.9-6.8,3.6-10.9,4.3-13c0.3-0.9,0.2-1.9-0.2-2.8l-0.1-0.2C662.2,704.8,658,705.3,657.2,708.4z"/><path style="fill:#9CB5A4;" d="M664.3,715.3c-2.6,11.2-5.9,33.8,1,40.9c0,0-0.7-14.8,2-25.8c1.7-6.9,3.2-11.1,3.8-13.1c0.3-0.9,0.2-1.9-0.3-2.8l-0.1-0.2C669.1,711.6,665,712.2,664.3,715.3z"/><path style="fill:#9CB5A4;" d="M672.6,718c-3,11.1-7.1,33.5-0.4,40.9c0,0-0.2-14.8,2.9-25.7c1.9-6.8,3.6-10.9,4.3-13c0.3-0.9,0.2-1.9-0.2-2.8l-0.1-0.2C677.5,714.4,673.4,714.9,672.6,718z"/><path style="fill:#9CB5A4;" d="M682.1,717.9c-3.8,10.8-9.6,32.9-3.4,40.8c0,0,0.9-14.8,4.8-25.4c2.4-6.6,4.4-10.7,5.2-12.6c0.4-0.9,0.4-1.9,0-2.8l-0.1-0.2C687.3,714.8,683.2,714.9,682.1,717.9z"/><path style="fill:#9CB5A4;" d="M428.8,750.7c1.1,11.4,5.1,33.9,14,38.5c0,0-5.4-13.8-6.3-25.1c-0.6-7-0.5-11.5-0.5-13.7c0-1-0.5-1.9-1.2-2.5l-0.2-0.1C432.2,745.7,428.5,747.6,428.8,750.7z"/><path style="fill:#9CB5A4;" d="M437.9,754.8c1.5,11.4,6.3,33.7,15.3,37.9c0,0-5.9-13.6-7.2-24.8c-0.8-7-0.9-11.5-1-13.6c-0.1-1-0.5-1.9-1.3-2.5l-0.2-0.1C441.1,749.6,437.5,751.6,437.9,754.8z"/><path style="fill:#9CB5A4;" d="M446.6,754.3c1.1,11.4,5.1,33.9,14,38.5c0,0-5.4-13.8-6.3-25.1c-0.6-7-0.5-11.5-0.5-13.7c0-1-0.5-1.9-1.2-2.5l-0.2-0.1C450,749.3,446.2,751.2,446.6,754.3z"/><path style="fill:#9CB5A4;" d="M455.5,750.9c0.3,11.5,2.6,34.2,11.1,39.4c0,0-4.3-14.1-4.5-25.5c-0.1-7.1,0.4-11.5,0.5-13.7c0-1-0.3-1.9-1-2.6l-0.2-0.2C459.3,746.1,455.4,747.7,455.5,750.9z"/><path style="fill:#CE895B;" d="M542.6,790.3c-0.7-0.6-11.3-10.3-15.1-39.5c-4-30.1,5.4-101.4,0-129.8c-5.4-28.4-39.5-58.9-39.5-58.9c8.1,14,14.1,25.9,14.1,25.9c7.7,6.9,23,47.4,15.4,107.5C511.5,742.8,519.5,776.9,542.6,790.3z"/><path style="fill:#CE895B;" d="M746.3,614.1c-2.8-19.6-23.9-43-23.9-43s9.2,10.7,14.6,36.1c5.4,25.3-6.1,89.8-7.7,121.3c-0.8,15.4,6.6,24.8,16.9,28c0.4-0.1,0.6-0.2,0.6-0.2s-6.9-16.6-7.7-26.5C738.3,719.9,749.1,633.7,746.3,614.1z"/><path style="fill:#9B592D;" d="M594.7,586.1l-14.6-26.9c0,0,48.7,10.4,77.1,4.6s49.1-16.1,49.1-16.1s5.8,15.7,12.3,19.2C718.6,566.9,646.8,592.2,594.7,586.1z"/><path style="fill:#9B592D;" d="M592.5,602.6c0,0,4.1,16.6-2.5,52.5c-6.5,35.8-13.5,67-11.2,91.1s-2.8,43.4-10.8,43s-8-0.4-8-0.4s13.8-5.4,13-28s-3.8-48.4,1.5-69.5S593.1,607.2,592.5,602.6z"/><path style="fill:#9B592D;" d="M848.2,439.5c0,0,13.8,12.2,4.6,90.5c-9.2,78.3-33.4,141-49.5,171c-16.1,29.9-28.2,40.9-28.2,40.9s36.1-79.1,51.8-134.1C845.3,543.3,848.2,439.5,848.2,439.5z"/><path style="fill:#9B592D;" d="M791.9,683.9c0,0-1.3,25.6-16.8,42.3c0,0,6-12,10.4-23.5C788.3,695.1,790.1,689.5,791.9,683.9z"/><path style="fill:#9B592D;" d="M813.3,628.5c0,0-1.3,25.6-16.8,42.3c0,0,6-12,10.4-23.5C809.7,639.7,811.5,634.1,813.3,628.5z"/><path style="fill:#9B592D;" d="M828.5,556.1c0,0,3.2,25.4-9.1,44.6c0,0,3.8-12.9,6.1-24.9C826.9,567.7,827.8,561.9,828.5,556.1z"/><path style="fill:#9B592D;" d="M817.6,532.2c0,0,3.2,25.4-9.1,44.6c0,0,3.8-12.9,6.1-24.9C816.1,543.8,816.9,538,817.6,532.2z"/><path style="fill:#9B592D;" d="M692.8,542.6c0,0-21.8,13.5-44.4,10.1c0,0,13.3-1.9,25.2-4.8C681.5,546,687.2,544.4,692.8,542.6z"/><path style="fill:#9B592D;" d="M632.8,552.5c0,0-24.8,6.7-45.4-2.9c0,0,13.3,2,25.5,2.6C621.1,552.6,627,552.6,632.8,552.5z"/><path style="fill:#9B592D;" d="M584.8,606.2c0,0,3.4,25.4-8.9,44.7c0,0,3.7-12.9,5.9-24.9C583.4,617.8,584.1,612,584.8,606.2z"/><path style="fill:#9B592D;" d="M695.6,616.6c0,0,4.4,25.3-7,45c0,0,3.2-13.1,4.9-25.2C694.7,628.3,695.2,622.4,695.6,616.6z"/><path style="fill:#9B592D;" d="M700.6,643.5c0,0,3.4,25.4-8.9,44.7c0,0,3.7-12.9,5.9-24.9C699.2,655.1,700,649.3,700.6,643.5z"/><path style="fill:#9B592D;" d="M690.8,662.1c0,0,1.1,25.6-12.8,43.7c0,0,4.8-12.5,8.1-24.3C688.3,673.5,689.6,667.8,690.8,662.1z"/><path style="fill:#9B592D;" d="M450.3,706.9c0,0-7.5-24.5,1.5-45.5c0,0-1.6,13.3-1.8,25.6C449.9,695.2,450,701.1,450.3,706.9z"/><path style="fill:#9B592D;" d="M448.9,738.2c0,0-10.9-23.2-4.9-45.3c0,0,0.3,13.4,1.8,25.6C446.8,726.7,447.8,732.4,448.9,738.2z"/><path style="fill:#9B592D;" d="M573.7,616.7c0,0,3.4,25.4-8.9,44.7c0,0,3.7-12.9,5.9-24.9C572.3,628.4,573.1,622.6,573.7,616.7z"/><path style="fill:#9B592D;" d="M573.7,653.8c0,0,3.4,25.4-8.9,44.7c0,0,3.7-12.9,5.9-24.9C572.3,665.5,573.1,659.7,573.7,653.8z"/><path style="fill:#9B592D;" d="M572,561.1c0,0,11.6,22.9,6.5,45.1c0,0-0.8-13.4-2.7-25.5C574.5,572.6,573.3,566.8,572,561.1z"/><path style="fill:#9B592D;" d="M566.1,704.9c0,0,6,24.9-4.3,45.3c0,0,2.4-13.2,3.3-25.4C565.9,716.6,566,710.7,566.1,704.9z"/><path style="fill:#9B592D;" d="M568.9,745.2c0,0,2,25.6-11.3,44.1c0,0,4.4-12.7,7.3-24.6C566.8,756.8,567.9,751,568.9,745.2z"/><path style="fill:#9B592D;" d="M668.7,540.2c0,0-23.5,10.3-45.4,3.9c0,0,13.4,0,25.6-1.2C657.1,542,662.9,541.1,668.7,540.2z"/><path style="fill:#9B592D;" d="M650,533c0,0-23.7,9.9-45.4,3.1c0,0,13.4,0.2,25.6-0.8C638.4,534.7,644.2,533.9,650,533z"/><path style="fill:#9B592D;" d="M831.4,490.8c0,0,5.3,25.1-5.4,45.2c0,0,2.7-13.2,4-25.3C830.8,502.5,831.1,496.6,831.4,490.8z"/><path style="fill:#9B592D;" d="M795.6,649.7c0,0-1.3,25.6-16.8,42.3c0,0,6-12,10.4-23.5C792.1,660.9,793.9,655.3,795.6,649.7z"/><path style="fill:#9B592D;" d="M808.5,592.7c0,0,3.3,25.4-9,44.6c0,0,3.7-12.9,6-24.9C807,604.4,807.8,598.5,808.5,592.7z"/><path style="fill:#491708;" d="M131.6,518.1c0,0-60.1-90.5-77.8-155.8c0,0,30.3,71.8,46.8,99.8s34.9,57.2,34.9,57.2L131.6,518.1z"/><g><path style="fill:#638E1E;" d="M75,406.6c0,0-5.9-32.8,0-48.2c5.9-15.4,21.3-26.1,21.3-26.1s10.7,29.9,3.5,44.9C92.4,392.2,75,406.6,75,406.6z"/><path style="fill:#4F542A;" d="M73.5,409.4c-0.1,0.3,0,0.7,0.1,0.9c0.5,0.8,1.8,0.6,2-0.3l14.5-55.6L73.5,409.4z"/></g><g><path style="fill:#638E1E;" d="M86,444.7c0,0-33.3-0.9-47.1-9.9s-21.2-26.2-21.2-26.2s31.5-4.4,44.7,5.8C75.5,424.7,86,444.7,86,444.7z"/><path style="fill:#4F542A;" d="M88.4,446.8c0.3,0.2,0.6,0.2,0.9,0.1c0.9-0.4,0.9-1.6,0.1-2L38,419.3L88.4,446.8z"/></g><g><path style="fill:#638E1E;" d="M55.4,368.6c0,0-25.9-21-31.5-36.5c-5.5-15.5-0.9-33.7-0.9-33.7s27.7,15.7,31.9,31.8S55.4,368.6,55.4,368.6z"/><path style="fill:#4F542A;" d="M56.1,371.7c0.1,0.3,0.4,0.5,0.7,0.6c0.9,0.3,1.7-0.7,1.3-1.6l-25.3-51.6L56.1,371.7z"/></g><g><path style="fill:#638E1E;" d="M112.6,492.6c0,0-33.1,3.9-48.1-3c-15-6.8-24.7-22.8-24.7-22.8s30.5-8.9,45-0.7C99.3,474.3,112.6,492.6,112.6,492.6z"/><path style="fill:#4F542A;" d="M115.3,494.3c0.3,0.1,0.7,0.1,0.9-0.1c0.8-0.5,0.7-1.7-0.2-2l-54.6-17.9L115.3,494.3z"/></g><g><path style="fill:#638E1E;" d="M110.8,477.3c0,0-14.4-30.1-12.8-46.4s13.6-30.8,13.6-30.8s18.3,26,15.2,42.4S110.8,477.3,110.8,477.3z"/><path style="fill:#4F542A;" d="M110.1,480.4c0,0.3,0.1,0.7,0.4,0.9c0.7,0.6,1.8,0.1,1.8-0.9l-0.7-57.4L110.1,480.4z"/></g><g><path style="fill:#231F20;" d="M375.1,541.2c7.3,0,12.9,10.9,13.1,11.3c0.3,0.6,0.4,1.8,0.1,2.6c-0.3,0.8-0.7,0.9-1.1,0.2c-0.1-0.2-6.2-11.9-13.6-10.4c-7.5,1.6-13.4,12.4-13.4,12.5c-0.3,0.6-0.8,0.5-1.1-0.3s-0.2-1.9,0.1-2.6c0.3-0.5,6.3-11.6,14.2-13.3C374.1,541.3,374.6,541.2,375.1,541.2z"/></g><circle style="fill:#FFFFFF;stroke:#000000;stroke-miterlimit:10;" cx="328.8" cy="496.4" r="13.2"/><ellipse transform="matrix(0.7071 -0.7071 0.7071 0.7071 -254.6754 377.8565)" style="stroke:#000000;stroke-width:1;stroke-miterlimit:9.9999;" cx="328.8" cy="496.4" rx="7.4" ry="7.1"/><circle style="fill:#FFFFFF;stroke:#000000;stroke-miterlimit:10;" cx="412.4" cy="489.3" r="13.2"/><ellipse style="stroke:#000000;stroke-miterlimit:10;" cx="412.4" cy="489.3" rx="7.4" ry="7.1"/></g><g><path style="fill:#638E1E;" d="M310.7,841.8c0,0-8.4,32.7-22.9,42.4c-14.5,9.6-38.2,9-38.2,9s1.2-33.4,17.2-41.8C282.7,843,310.7,841.8,310.7,841.8z"/><path style="fill:#4F542A;" d="M313.9,840.3c0.3-0.2,0.4-0.6,0.3-0.9c-0.3-1.1-1.8-1.7-2.6-1l-44.1,39.3L313.9,840.3z"/></g><g><path style="fill:#638E1E;" d="M786.1,928.8c0,0,2-33.3,11.3-46.8s26.8-20.4,26.8-20.4s3.4,31.6-7.2,44.5S786.1,928.8,786.1,928.8z"/><path style="fill:#4F542A;" d="M783.9,931.2c-0.2,0.3-0.2,0.6-0.1,0.9c0.3,0.9,1.6,1,2,0.1l27.2-50.6L783.9,931.2z"/></g><g><path style="fill:#638E1E;" d="M532.5,897.3c0,0,19.8,26.8,21.3,43.2c1.5,16.4-7.5,32.8-7.5,32.8s-22.9-22.1-23-38.7C523.2,917.9,532.5,897.3,532.5,897.3z"/><path style="fill:#4F542A;" d="M532.6,894.1c-0.1-0.3-0.3-0.6-0.5-0.8c-0.8-0.5-1.8,0.2-1.6,1.2l11.6,56.3L532.6,894.1z"/></g><g><path style="fill:#638E1E;" d="M969.5,637.6c0,0,2.8,33.2-4.6,48s-23.6,24-23.6,24s-7.9-30.8,0.8-45C950.8,650.3,969.5,637.6,969.5,637.6z"/><path style="fill:#4F542A;" d="M971.3,634.9c0.1-0.3,0.1-0.7,0-0.9c-0.5-0.8-1.7-0.8-2,0.1L949.6,688L971.3,634.9z"/></g><g><path style="fill:#638E1E;" d="M475.3,209.8c0,0,2.8,33.2-4.5,48c-7.3,14.7-23.6,24-23.6,24s-7.9-30.8,0.7-45S475.3,209.8,475.3,209.8z"/><path style="fill:#4F542A;" d="M477.1,207.1c0.1-0.3,0.1-0.7-0.1-0.9c-0.5-0.8-1.7-0.8-2,0.1l-19.6,54L477.1,207.1z"/></g><g><path style="fill:#638E1E;" d="M890.1,191.6c0,0-14.8-29.9-13.4-46.3s13.2-31,13.2-31s18.6,25.8,15.8,42.2C902.8,172.9,890.1,191.6,890.1,191.6z"/><path style="fill:#4F542A;" d="M889.4,194.7c0,0.3,0.1,0.6,0.4,0.9c0.7,0.6,1.9,0.1,1.8-0.9l-1.5-57.4L889.4,194.7z"/></g><g><path style="fill:#638E1E;" d="M474.6,4.1c0,0,2.8,33.2-4.5,48c-7.3,14.7-23.6,24-23.6,24s-7.9-30.8,0.7-45S474.6,4.1,474.6,4.1z"/><path style="fill:#4F542A;" d="M476.4,1.5c0.1-0.3,0.1-0.7-0.1-0.9c-0.5-0.8-1.7-0.8-2,0.1l-19.6,54L476.4,1.5z"/></g><g><path style="fill:#638E1E;" d="M202.8,205c0,0-2.5-33.3,5-47.9c7.5-14.7,23.9-23.7,23.9-23.7s7.6,30.9-1.3,45C221.7,192.5,202.8,205,202.8,205z"/><path style="fill:#4F542A;" d="M201,207.6c-0.1,0.3-0.1,0.7,0,0.9c0.4,0.8,1.7,0.8,2-0.1l20.3-53.7L201,207.6z"/></g><g><path style="fill:#638E1E;" d="M748.7,55.7c0,0-16.3,29.1-30.6,37.2c-14.3,8.1-33,6.7-33,6.7s10.7-30,25.8-36.9C726.1,55.8,748.7,55.7,748.7,55.7z"/><path style="fill:#4F542A;" d="M751.6,54.5c0.3-0.2,0.5-0.5,0.5-0.8c0.1-1-1-1.6-1.8-1l-46.5,33.7L751.6,54.5z"/></g></g><g id="text"></g></svg>
