<svg enable-background="new 0 0 190.1 34.2" viewBox="0 0 190.1 34.2" xmlns="http://www.w3.org/2000/svg" xmlns:xlink="http://www.w3.org/1999/xlink"><mask id="a" height="31.3" maskUnits="userSpaceOnUse" width="79.9" x="-22" y="-10.9"><path clip-rule="evenodd" d="m-22-10.9h79.9v31.3h-79.9z" fill="#fff" fill-rule="evenodd"/></mask><g transform="translate(22 11)"><g clip-rule="evenodd" fill-rule="evenodd" transform="translate(0 2)"><path d="m4.2 15.4c0-.6-.2-1.1-.7-1.5-.4-.4-1-.7-1.7-1s-1.4-.6-2.2-1c-.8-.3-1.5-.7-2.2-1.2s-1.2-1.1-1.7-1.8c-.4-.7-.7-1.6-.7-2.8 0-1 .2-1.8.5-2.5.4-.7.9-1.3 1.5-1.8s1.3-.8 2.1-1.1c.9-.2 1.8-.3 2.8-.3 1.2 0 2.3.1 3.3.3s1.9.5 2.5.9l-1.2 3.2c-.4-.3-1-.5-1.9-.7-.8-.2-1.8-.3-2.7-.3s-1.6.2-2.1.5c-.5.4-.8.9-.8 1.5s.2 1 .7 1.4c.4.4 1 .7 1.7 1.1.7.3 1.4.7 2.2 1s1.5.8 2.2 1.2c.7.5 1.2 1.1 1.7 1.8.4.7.7 1.6.7 2.7s-.2 2-.5 2.8c-.4.8-.8 1.4-1.5 1.9-.6.5-1.4.9-2.3 1.1s-1.9.4-3 .4c-1.4 0-2.7-.1-3.8-.4s-1.9-.6-2.4-.8l1.3-3.3c.2.1.5.2.8.4.3.1.7.3 1.1.4s.9.2 1.3.3c.5.1.9.1 1.4.1 1.2 0 2.1-.2 2.7-.6.6-.5.9-1.1.9-1.9" fill="#87d3ee"/><path d="m22 20.9c-.9.2-1.9.3-2.9.3-1.2 0-2.3-.2-3.4-.6s-2-1-2.8-1.8-1.5-1.9-2-3.2-.7-2.9-.7-4.8c0-2 .3-3.6.8-4.9s1.2-2.4 2.1-3.2 1.8-1.4 2.9-1.7c1.1-.4 2.1-.5 3.2-.5s1.2 3.5.3 3.5c-1.6 0-2.9.6-3.8 1.7-1 1.1-1.4 2.9-1.4 5.2 0 1 .1 2 .3 2.8s.6 1.6 1 2.2c.5.6 1 1.1 1.7 1.4s1.5.5 2.4.5 1.6-.1 2.2-.3c.6-.3 1 3.2.1 3.4" fill="#87d3ee"/><path d="m51.4 1c-1.2-8.4-6.5-11.9-11.9-11.9-.2 0-.3 0-.5 0-5.5.2-10.9 4.2-11.8 10.5-1.2-.6-2.4-.9-3.5-.9-.6 0-1.1.1-1.7.2.1.2.2.4.3.7.4.9.4 1.8.4 2.4 0 .4 0 .7-.1 1 .3-.1.6-.2 1-.2.5 0 1.1.2 1.7.5s1.2.4 1.8.4c.7 0 1.3-.2 1.9-.5 1.2-.6 2-1.8 2.1-3.1.6-4.4 4.4-6.8 7.9-7h.3c4.2 0 7 3 7.8 8.3 0 .2.1.4.1.6v.1c.4 1.2 1.3 2.2 2.5 2.6 2.3.8 3.8 3 3.8 5.5 0 3.2-2.6 5.9-5.8 5.9h-.1c-.3 0-.5 0-.8 0s-.7 0-1.1 0-.8 0-1.2 0h-.5-19.2c.2.5.4 1.1.5 1.8.1.9 0 1.6-.1 2.2h19.3.5 2.3.9c5.4 0 9.8-4.5 9.8-10-.1-3.9-2.7-7.7-6.6-9.1zm-57.8 2.9h-5.8v16.5h-3.9v-16.5h-5.9v-3.5h15.6z" fill="#2488be" mask="url(#a)" transform="translate(0 .39984)"/></g><g fill="#2488be"><path d="m73.8-7.2h-3.1v11.3h-1.3v-11.3h-3.1v-1.2h7.5zm10.7 5.5h-4.6v5.8h-1.4v-12.6h1.4v5.5h4.6v-5.5h1.3v12.6h-1.3zm12.7-6.8h1.3v8.5c0 1.5-.3 2.6-.9 3.3s-1.4 1-2.5 1c-1.3 0-2.2-.3-2.8-1s-.9-1.7-.9-3v-8.7h1.3v8c0 .6 0 1.2.1 1.6s.2.8.4 1.1.4.5.7.6.6.2 1.1.2c.8 0 1.3-.3 1.6-.8s.5-1.4.5-2.7v-8.1zm-4.5-1.7c0-.3.1-.5.2-.6s.4-.2.6-.2c.3 0 .5.1.6.2.1.2.2.4.2.6 0 .3-.1.5-.2.6-.2.2-.4.2-.6.2-.3 0-.5-.1-.6-.2s-.2-.3-.2-.6zm2.9 0c0-.3.1-.5.2-.6s.4-.2.6-.2c.3 0 .5.1.6.2s.2.4.2.6c0 .3-.1.5-.2.6s-.4.2-.6.2c-.3 0-.5-.1-.6-.2s-.2-.3-.2-.6zm8.5 1.9c.4-.1.8-.2 1.3-.2s.9-.1 1.3-.1c.5 0 .9.1 1.3.2s.8.3 1.1.6.6.6.7 1.1c.2.4.3 1 .3 1.6 0 1-.2 1.8-.6 2.4s-1 1-1.6 1.2l.7.7 2.5 5h-1.6l-2.7-5.5-1.3-.3v5.8h-1.3v-12.5zm1.4 5.8h1.1c.7 0 1.2-.2 1.6-.6s.6-1.1.6-1.9c0-.7-.2-1.2-.5-1.6s-.8-.6-1.5-.6c-.2 0-.5 0-.7 0-.3 0-.5 0-.6.1zm10.8-6h1.4v12.6h-1.4zm9.2 4.6-.8-2h-.1l.2 2v8h-1.3v-12.8h.8l4.7 8.2.7 1.9h.1l-.2-1.9v-8h1.3v12.8h-.8zm14.5 1.8h3.5v5.5c-.3.3-.8.5-1.3.7s-1.1.2-1.6.2c-.7 0-1.3-.1-1.8-.4s-1-.6-1.4-1.2c-.4-.5-.7-1.2-.9-2s-.3-1.8-.3-2.9c0-1.2.1-2.2.4-3s.6-1.5 1-2 .9-.9 1.5-1.1c.5-.2 1.1-.4 1.7-.4s1.1 0 1.4.1c.4.1.7.2 1 .3l-.4 1.3c-.2-.1-.5-.2-.9-.3s-.7-.1-1.1-.1-.8.1-1.2.3-.7.5-1 .9-.5 1-.7 1.6c-.2.7-.3 1.5-.3 2.5 0 1.8.3 3.1.9 4s1.4 1.3 2.3 1.3c.6 0 1.1-.1 1.5-.4v-3.8l-2.3-.4zm8.7-6.4h5.6v1.2h-4.3v4.3h3.9v1.2h-3.9v4.6h4.3v1.2h-5.7v-12.5zm11 .2c.4-.1.8-.2 1.3-.2s.9-.1 1.3-.1c.5 0 .9.1 1.3.2s.8.3 1.1.6.6.6.7 1.1.3 1 .3 1.6c0 1-.2 1.8-.6 2.4s-1 1-1.6 1.2l.7.7 2.5 5h-1.6l-2.7-5.5-1.4-.3v5.8h-1.4v-12.5zm1.3 5.8h1.1c.7 0 1.2-.2 1.6-.6s.6-1.1.6-1.9c0-.7-.2-1.2-.5-1.6s-.8-.6-1.5-.6c-.2 0-.5 0-.7 0-.3 0-.5 0-.6.1z"/><path d="m71.2 18.9c0-.4-.1-.7-.3-1s-.5-.5-.9-.8-.7-.5-1.1-.7c-.4-.3-.8-.5-1.1-.9-.3-.3-.6-.7-.9-1.2-.2-.5-.3-1-.3-1.7 0-.6.1-1.1.3-1.6.2-.4.4-.8.8-1 .3-.3.7-.5 1.2-.6s.9-.2 1.4-.2c.6 0 1.2.1 1.7.2s1 .3 1.3.5l-.7 2c-.2-.1-.5-.3-.9-.4s-.8-.2-1.3-.2-.8.1-1.1.3-.4.5-.4.8.1.6.3.9.5.5.9.7c.3.2.7.5 1.1.7.4.3.8.6 1.1.9s.6.7.9 1.2c.2.5.3 1 .3 1.6s-.1 1.2-.3 1.7-.4.9-.8 1.2c-.3.3-.8.5-1.2.7-.5.2-1 .2-1.6.2-.7 0-1.4-.1-2-.2s-1-.3-1.3-.5l.7-2c.2.1.6.3 1 .4s.9.2 1.3.2c1.3.2 1.9-.3 1.9-1.2zm12.7 2.7c-.3.3-.7.5-1.3.6-.5.1-1 .2-1.6.2s-1.3-.1-1.8-.3c-.6-.2-1-.6-1.5-1.1-.4-.5-.8-1.2-1-2s-.4-1.9-.4-3.1c0-1.3.1-2.3.4-3.2.3-.8.6-1.5 1.1-2 .4-.5.9-.8 1.5-1.1.6-.2 1.1-.3 1.7-.3s1.1 0 1.5.1.8.2 1.1.3l-.5 2c-.2-.1-.5-.2-.8-.3s-.7-.1-1.1-.1c-.8 0-1.5.4-1.9 1.1s-.7 1.8-.7 3.4c0 .7.1 1.3.2 1.8s.3 1 .5 1.4.5.7.8.9.8.3 1.2.3.8-.1 1.1-.2.6-.2.8-.4zm8.8-4.8h-3.4v5.3h-2.3v-12.6h2.3v5.2h3.4v-5.2h2.3v12.6h-2.3zm11.5-7.3h2.1v8.2c0 1.6-.3 2.8-1 3.5s-1.6 1.1-2.8 1.1c-1.4 0-2.4-.4-3-1.1s-1-1.8-1-3.3v-8.4h2.3v8.1c0 1 .1 1.7.4 2.1s.7.6 1.3.6 1-.2 1.3-.6.4-1.1.4-2zm12.4 12.6h-6.7v-12.6h2.3v10.5h4.4zm8.6-.5c-.3.3-.7.5-1.3.6-.5.1-1 .2-1.6.2s-1.3-.1-1.8-.3c-.6-.2-1-.6-1.5-1.1-.4-.5-.8-1.2-1-2s-.4-1.9-.4-3.1c0-1.3.1-2.3.4-3.2s.6-1.5 1.1-2 .9-.8 1.5-1.1c.6-.2 1.1-.3 1.7-.3s1.1 0 1.5.1.8.2 1.1.3l-.4 2c-.2-.1-.5-.2-.8-.3s-.7-.1-1.1-.1c-.8 0-1.5.4-1.9 1.1s-.7 1.8-.7 3.4c0 .7.1 1.3.2 1.8s.3 1 .5 1.4.5.7.8.9.8.3 1.2.3.8-.1 1.1-.2.6-.2.8-.4zm9.8.5h-6.7v-12.6h2.3v10.5h4.4zm1.3-6.3c0-2.1.4-3.8 1.1-4.9s1.8-1.7 3.3-1.7c.8 0 1.5.2 2 .5.6.3 1 .7 1.4 1.3s.6 1.3.8 2.1.3 1.7.3 2.7c0 2.1-.4 3.8-1.1 4.9-.8 1.1-1.9 1.7-3.3 1.7-.8 0-1.5-.2-2-.5-.6-.3-1-.7-1.4-1.3s-.6-1.3-.8-2.1c-.3-.8-.3-1.7-.3-2.7zm2.3 0c0 .6 0 1.2.1 1.8.1.5.2 1 .4 1.4s.4.7.6.9c.3.2.6.3 1 .3.7 0 1.2-.4 1.6-1.1.3-.7.5-1.8.5-3.4 0-.6 0-1.2-.1-1.7s-.2-1-.4-1.4-.4-.7-.6-1c-.3-.2-.6-.4-1-.4-1.4.2-2.1 1.7-2.1 4.6zm15.5-6.3h2.1v8.2c0 1.6-.3 2.8-1 3.5s-1.6 1.1-2.8 1.1c-1.4 0-2.4-.4-3-1.1s-1-1.8-1-3.3v-8.4h2.3v8.1c0 1 .1 1.7.4 2.1s.7.6 1.3.6 1-.2 1.3-.6.4-1.1.4-2zm5.7 0c.2 0 .5-.1.7-.1s.5 0 .8-.1h.8.7c1 0 1.8.2 2.5.5s1.2.7 1.6 1.3.7 1.2.9 2 .3 1.6.3 2.6c0 .9-.1 1.7-.2 2.5s-.4 1.5-.9 2.1-1 1.1-1.7 1.4c-.7.4-1.6.5-2.6.5-.2 0-.4 0-.6 0s-.5 0-.8 0-.6 0-.8-.1c-.3 0-.5 0-.6-.1v-12.5zm3.3 1.9c-.2 0-.4 0-.6 0s-.4 0-.5 0v8.7h.2.3.3.2c.5 0 1-.1 1.3-.4s.6-.6.8-1 .3-.9.4-1.4.1-1.1.1-1.7 0-1.1-.1-1.6-.2-1-.4-1.4-.4-.7-.8-.9c-.2-.1-.6-.3-1.2-.3z"/></g></g></svg>
