<svg enable-background="new 0 0 204 60" viewBox="0 0 204 60" xmlns="http://www.w3.org/2000/svg"><path d="m0 0h206v60h-206z" fill="none"/><path d="m85.2 24.2c0-.4-.2-.8-.5-1-.3-.3-.7-.5-1.2-.7s-1-.4-1.5-.7c-.6-.2-1.1-.5-1.5-.9s-.9-.8-1.2-1.3-.5-1.2-.5-1.9.1-1.3.3-1.8.6-.9 1-1.3c.4-.3.9-.6 1.5-.7.6-.2 1.2-.2 1.9-.2.8 0 1.6.1 2.3.2s1.3.3 1.8.6l-.9 2.3c-.3-.2-.7-.4-1.3-.5s-1.2-.2-1.9-.2c-.6 0-1.1.1-1.5.4-.3.3-.5.6-.5 1s.2.7.5 1 .7.5 1.2.7 1 .5 1.5.7c.6.2 1.1.5 1.5.9s.9.8 1.2 1.3.5 1.1.5 1.9c0 .7-.1 1.4-.4 1.9-.2.5-.6 1-1 1.3-.4.4-1 .6-1.6.8s-1.3.3-2.1.3c-1 0-1.9-.1-2.6-.3s-1.3-.4-1.7-.6l.9-2.3c.1.1.3.2.6.3.2.1.5.2.8.3s.6.1.9.2.7.1 1 .1c.8 0 1.4-.1 1.9-.4.4-.4.6-.8.6-1.4zm12.1 3.2c-.4.3-.9.5-1.4.7-.6.2-1.2.2-1.8.2-.8 0-1.5-.1-2-.4-.6-.3-1-.6-1.3-1.1s-.6-1-.8-1.7-.2-1.4-.2-2.2c0-1.7.4-3 1.1-3.9s1.9-1.4 3.3-1.4c.7 0 1.3.1 1.8.2s.8.3 1.2.5l-.6 2.1c-.3-.1-.6-.3-.9-.3-.3-.1-.6-.1-1-.1-.7 0-1.3.2-1.6.7s-.7 1.3-.7 2.3c0 .4 0 .8.1 1.2s.2.7.4.9c.2.3.4.5.7.6.3.2.6.2 1 .2s.8-.1 1.1-.2.6-.2.8-.4zm8.2.6v-5.7c0-.8-.1-1.4-.3-1.8s-.6-.5-1.2-.5c-.4 0-.8.1-1.2.4s-.6.7-.7 1.2v6.4h-2.6v-14h2.6v5.1h.1c.3-.4.7-.8 1.2-1 .5-.3 1.1-.4 1.8-.4.5 0 1 .1 1.3.2.4.1.7.4 1 .7s.5.7.6 1.3c.1.5.2 1.2.2 2v6.1zm7.8-10v5.7c0 .8.1 1.4.3 1.8s.6.5 1.1.5.9-.1 1.2-.4.6-.7.7-1.1v-6.5h2.6v7c0 .5 0 1.1.1 1.6s.1 1 .2 1.4h-2l-.5-1.5h-.1c-.3.5-.7.9-1.3 1.3-.5.3-1.2.5-1.9.5-.5 0-1-.1-1.4-.2s-.7-.4-1-.7-.5-.7-.6-1.2-.2-1.2-.2-2v-6.2zm11.4 6.6c0 .5.1.8.2 1s.3.3.6.3h.5s.3-.1.6-.2l.3 2c-.2.1-.5.2-1 .3-.4.1-.9.2-1.4.2-.8 0-1.3-.2-1.7-.5s-.6-.9-.6-1.8v-11.9h2.6v10.6zm3.7-3.5h5v2.3h-5zm17.3 6.3c-.4.3-1 .5-1.6.7s-1.3.2-2 .2c-.8 0-1.6-.1-2.4-.4s-1.4-.7-2-1.3-1-1.3-1.4-2.3c-.3-.9-.5-2-.5-3.4s.2-2.5.6-3.5c.4-.9.9-1.7 1.5-2.2s1.3-1 2-1.2 1.5-.4 2.2-.4c.8 0 1.5.1 2 .2s1 .2 1.4.4l-.5 2.3c-.3-.1-.7-.3-1.1-.3-.4-.1-.9-.1-1.5-.1-1.1 0-2 .4-2.7 1.2s-1 2-1 3.7c0 .7.1 1.4.2 2s.4 1.1.7 1.5.7.7 1.2 1c.5.2 1 .4 1.7.4.6 0 1.1-.1 1.5-.2s.8-.3 1.1-.5zm4.8-2.8c0 .5.1.8.2 1s.3.3.6.3h.5s.3-.1.6-.2l.3 2c-.2.1-.5.2-1 .3-.4.1-.9.2-1.4.2-.8 0-1.3-.2-1.7-.5s-.6-.9-.6-1.8v-11.9h2.6v10.6zm3.2-1.6c0-1.7.4-3 1.2-3.9s2-1.4 3.5-1.4c.8 0 1.5.1 2.1.4s1.1.6 1.5 1.1.7 1 .9 1.7.3 1.4.3 2.2c0 1.7-.4 3-1.2 3.9s-2 1.4-3.5 1.4c-.8 0-1.5-.1-2.1-.4s-1.1-.6-1.5-1.1-.7-1-.9-1.7-.3-1.4-.3-2.2zm2.7 0c0 .4 0 .8.1 1.2s.2.7.4 1 .4.5.6.6c.3.2.6.2.9.2.7 0 1.2-.2 1.5-.7s.5-1.3.5-2.3c0-.9-.2-1.7-.5-2.2s-.8-.9-1.6-.9c-.6 0-1.1.2-1.5.7-.2.5-.4 1.3-.4 2.4zm11.5-5v5.7c0 .8.1 1.4.3 1.8s.6.5 1.1.5.9-.1 1.2-.4.6-.7.7-1.1v-6.5h2.6v7c0 .5 0 1.1.1 1.6s.1 1 .2 1.4h-2l-.5-1.5h-.1c-.3.5-.7.9-1.3 1.3-.5.3-1.2.5-1.9.5-.5 0-1-.1-1.4-.2s-.7-.4-1-.7-.5-.7-.6-1.2-.2-1.2-.2-2v-6.2zm17.3 6.5v1.7s.1 1.2.2 1.9h-1.9l-.4-1.3h-.1c-.3.5-.7.8-1.2 1.1s-1.1.4-1.8.4c-1.3 0-2.2-.4-2.9-1.2s-1-2.1-1-3.9c0-1.7.4-3 1.2-4 .8-.9 1.9-1.4 3.4-1.4.4 0 .8 0 1 .1.3 0 .5.1.8.2v-4.1h2.6v10.5zm-4.4 1.6c.5 0 .9-.1 1.2-.4s.5-.6.6-1.1v-4.2c-.2-.1-.4-.3-.6-.3s-.5-.1-.9-.1c-.7 0-1.3.2-1.7.7s-.6 1.3-.6 2.5c0 .9.2 1.5.5 2.1.3.5.8.8 1.5.8zm-92.7 11.1c0 .3-.1.7-.2 1s-.3.7-.5 1-.5.6-.8.8-.7.4-1.2.5v.1c.4.1.8.2 1.2.3.4.2.7.4 1 .7s.5.6.7 1 .3.9.3 1.4c0 .7-.1 1.3-.4 1.9s-.7 1-1.2 1.3-1 .6-1.7.7c-.6.2-1.3.2-1.9.2h-.8c-.3 0-.6 0-1 0s-.7 0-1-.1-.6 0-.9-.1v-13.8c.5-.1 1.1-.1 1.7-.2.7-.1 1.4-.1 2.1-.1.5 0 1.1 0 1.6.1s1 .3 1.5.5c.4.2.8.6 1.1 1s.4 1.1.4 1.8zm-4.6 9.5c.4 0 .8 0 1.2-.2.4-.1.8-.3 1.1-.5s.5-.5.7-.8.3-.7.3-1.1c0-.5-.1-1-.3-1.3s-.5-.6-.9-.8-.8-.3-1.2-.4-.9-.1-1.3-.1h-1.7v5c.1 0 .2 0 .4.1h.6.6c.2.1.3.1.5.1zm-1.1-6.5h.8s.6 0 .8-.1c.3-.1.6-.2.9-.4s.5-.3.8-.5c.2-.2.4-.4.5-.7s.2-.6.2-.9c0-.4-.1-.8-.3-1.1s-.4-.5-.7-.7-.6-.3-1-.4-.7-.1-1.1-.1-.8 0-1.2 0-.6 0-.8.1v4.8zm13.4-.7c-.4-.1-.8-.2-1.1-.2-.6 0-1 .2-1.4.5-.3.3-.5.7-.6 1.2v7h-1.6v-10h1.1l.3 1.2h.1c.3-.5.6-.8.9-1.1.4-.2.8-.4 1.3-.4.4 0 .8.1 1.3.2zm1.9-.8c.5-.3 1.1-.5 1.8-.7s1.4-.2 2.1-.2 1.3.1 1.7.3.7.4 1 .7c.2.3.4.6.4 1s.1.7.1 1.1c0 .8 0 1.6-.1 2.3 0 .8-.1 1.5-.1 2.2 0 .5 0 1 .1 1.4 0 .4.1.8.2 1.2h-1.2l-.4-1.4h-.1c-.1.2-.3.4-.4.5-.2.2-.4.3-.7.5-.3.1-.5.3-.9.4-.3.1-.7.1-1.1.1s-.8-.1-1.2-.2-.7-.3-1-.6c-.3-.2-.5-.5-.6-.9s-.2-.7-.2-1.2c0-.6.1-1.1.4-1.5.2-.4.6-.7 1-.9s1-.4 1.6-.5 1.3-.2 2-.2h.6.5c0-.4.1-.8.1-1.1 0-.7-.1-1.2-.4-1.5s-.8-.4-1.6-.4c-.2 0-.5 0-.7 0s-.5.1-.8.1c-.3.1-.5.1-.8.2-.2.1-.5.2-.6.3zm2.8 8.1c.4 0 .7 0 1-.1s.5-.2.8-.4c.2-.2.4-.3.5-.5s.2-.4.3-.5v-1.7c-.2 0-.4 0-.6 0s-.4 0-.6 0c-.4 0-.8 0-1.2.1-.4 0-.7.1-1 .3s-.5.3-.7.5-.3.5-.3.8c0 .5.2.8.5 1.2.4.1.8.3 1.3.3zm13.6 1.2v-5.7c0-1-.1-1.8-.4-2.3s-.8-.8-1.7-.8c-.7 0-1.3.2-1.8.6s-.8.9-1 1.4v6.8h-1.6v-10h1.1l.3 1.2h.1c.3-.4.8-.8 1.3-1.1s1.2-.4 1.9-.4c.5 0 1 .1 1.4.2s.8.3 1 .7c.3.3.5.8.6 1.3s.2 1.2.2 2v6h-1.4zm12.1-3.4v1.8s.1 1.1.2 1.6h-1.1l-.4-1.4h-.1c-.3.5-.7.9-1.2 1.2s-1.1.5-1.8.5c-1.3 0-2.3-.4-3-1.3s-1-2.2-1-3.9.4-3 1.2-3.9 1.9-1.3 3.3-1.3c.5 0 .9 0 1.2.1s.6.1.9.3v-4.3h1.6v10.6zm-4.1 2.2c.7 0 1.2-.2 1.6-.5.4-.4.7-.9.8-1.6v-5c-.2-.2-.5-.3-.8-.4s-.7-.1-1.2-.1c-.9 0-1.6.3-2.2.9s-.8 1.6-.8 2.9c0 .5 0 1.1.1 1.5.1.5.2.9.4 1.2s.5.6.8.8c.5.2.9.3 1.3.3zm14.3.4c-.4.3-.9.6-1.5.8s-1.2.3-1.9.3c-.8 0-1.4-.1-2-.4-.6-.2-1-.6-1.4-1.1s-.6-1-.8-1.7c-.2-.6-.3-1.4-.3-2.2 0-1.7.4-3 1.1-3.9.8-.9 1.8-1.3 3.3-1.3.5 0 .9.1 1.4.2s.9.3 1.2.6.7.7.9 1.2.3 1.2.3 2c0 .4 0 .9-.1 1.5h-6.4c0 .6.1 1.1.2 1.6s.3.8.6 1.1.6.6 1 .7c.4.2.9.3 1.5.3.5 0 .9-.1 1.4-.2.5-.2.8-.3 1-.6zm-3.4-8c-.8 0-1.4.2-1.9.6s-.8 1.1-.9 2.1h5c0-1-.2-1.7-.6-2.1s-.9-.6-1.6-.6zm12.6 8.8v-5.7c0-1-.1-1.8-.4-2.3s-.8-.8-1.6-.8c-.7 0-1.3.2-1.8.6s-.8.9-1 1.4v6.8h-1.6v-10h1.1l.3 1.2h.1c.3-.4.8-.8 1.3-1.1s1.2-.4 1.9-.4c.5 0 1 .1 1.4.2s.8.3 1 .7c.3.3.5.8.6 1.3s.2 1.2.2 2v6h-1.5zm4.4-14h1.6v5h.1c.3-.4.7-.7 1.2-.9s1-.3 1.6-.3c1.3 0 2.3.4 2.9 1.2s1 2.1 1 3.8-.4 3.1-1.3 4-2.1 1.4-3.6 1.4c-.7 0-1.4-.1-2-.2-.6-.2-1.1-.3-1.4-.5v-13.5zm4.2 5.2c-.7 0-1.2.2-1.6.6s-.7.9-.9 1.6v5c.3.1.6.3.9.3s.7.1 1.1.1c.9 0 1.6-.3 2.2-1 .5-.6.8-1.6.8-3 0-.5 0-1-.1-1.5s-.2-.8-.4-1.2c-.2-.3-.5-.6-.8-.8-.4 0-.8-.1-1.2-.1zm8-1.2v5.7c0 .5 0 1 .1 1.4s.2.7.3 1 .3.5.6.6.6.2 1 .2.7-.1 1-.2.5-.3.8-.5.4-.4.6-.7.3-.5.4-.8v-6.7h1.6v7.2c0 .5 0 1 .1 1.5 0 .5.1 1 .2 1.3h-1.1l-.4-1.6h-.1c-.3.5-.7 1-1.2 1.3s-1.2.5-2 .5c-.5 0-1-.1-1.4-.2s-.7-.3-1-.7c-.3-.3-.5-.8-.6-1.3s-.2-1.2-.2-2v-6zm13.9 1.5c-.4-.1-.8-.2-1.1-.2-.6 0-1 .2-1.4.5s-.5.7-.6 1.2v7h-1.6v-10h1.1l.3 1.2h.1c.3-.5.6-.8.9-1.1.4-.2.8-.4 1.3-.4.4 0 .8.1 1.3.2zm9.7 9c0 1.3-.3 2.2-1 2.9-.7.6-1.7.9-3.1.9-.8 0-1.4-.1-1.9-.2s-.9-.2-1.3-.4l.4-1.4c.3.1.6.2 1 .3s.9.2 1.5.2 1 0 1.4-.2c.4-.1.6-.3.9-.5.2-.2.4-.5.4-.9s.1-.8.1-1.3v-1h-.1c-.3.4-.6.7-1 .9s-1 .3-1.6.3c-1.3 0-2.3-.4-3-1.3-.6-.8-.9-2.1-.9-3.9 0-1.7.4-3 1.2-3.9s2-1.3 3.6-1.3c.8 0 1.4.1 1.9.2s1 .3 1.4.4v10.2zm-4-1.7c.7 0 1.2-.2 1.6-.5s.7-.9.8-1.6v-5.1c-.5-.3-1.2-.4-2-.4-.9 0-1.6.3-2.1.9s-.8 1.6-.8 2.9c0 .6 0 1.1.1 1.5.1.5.2.9.4 1.2s.5.6.8.8.7.3 1.2.3z" fill="#e4032e"/><path clip-rule="evenodd" d="m24.2 44.4h22.5 1.5c1.4 0 2.8-.5 3.8-1.3l1.9 2c-1.5 1.2-3.3 1.9-5.3 1.9-.4 0-.8 0-1.6 0h-23.2c-4.3.1-5.9-.2-7.8-2.2-4.7-5.2-.7-12.8 6.8-11.8.5-3.8 3.3-6.2 6.6-6l3.6 2.5c-.3.4-.8.6-1.3.4-3.4-1.7-6.5.4-6.5 4.4 0 .7-.6 1.2-1.2 1-6.1-1.5-9.2 3.9-5.7 7.7 1.2 1.3 2.3 1.5 5.9 1.4zm9.8-27.4h10.4l6.8 8.5 3.9-.5 2.1 1.4v1.3l-.7-.7h-1.4l-1 .9 9.9 5.4v8.7l-5.2-6.2-11.4-5.4-4.3 3-6.1-1.5 1.9-1.6 7.3-1.1-4.4-7.3z" fill="#e4032e" fill-rule="evenodd"/></svg>
